<svg width="303" height="225" viewBox="0 0 303 225" fill="none" xmlns="http://www.w3.org/2000/svg">
<path d="M152.25 220.282L118.22 144.083H200.682L302.374 211.162" fill="white"/>
<path d="M152.25 220.282L118.22 144.083H200.682L302.374 211.162" stroke="#263238" stroke-width="0.624476" stroke-linecap="round" stroke-linejoin="round"/>
<path d="M143.808 217.282L118.22 149.166V144.083L154.42 223.833L143.808 217.282Z" fill="#263238" stroke="#263238" stroke-width="0.624476" stroke-linecap="round" stroke-linejoin="round"/>
<path d="M165.368 147.235L200.443 188.35L157.867 198.268L133.675 152.309L165.368 147.235Z" fill="white" stroke="#263238" stroke-width="0.624476" stroke-linecap="round" stroke-linejoin="round"/>
<path d="M157.867 198.27V199.483L199.717 191.017L200.443 188.353L157.867 198.27Z" fill="#263238" stroke="#263238" stroke-width="0.624476" stroke-linecap="round" stroke-linejoin="round"/>
<path d="M164.043 162.029L165.838 164.678L170.402 163.442L168.503 160.856L164.043 162.029Z" fill="#263238"/>
<path d="M181.317 178.234L179.147 175.297L173.961 176.694L175.987 179.694L181.317 178.234Z" fill="#263238"/>
<path d="M160.317 156.508L161.649 158.486L165.942 157.393L164.594 155.558L160.317 156.508Z" fill="#263238"/>
<path d="M168.583 168.738L171.041 172.377L176.059 171.108L173.346 167.43L168.583 168.738Z" fill="#263238"/>
<path d="M181.581 170.448L177.28 171.541L179.434 174.461L183.815 173.28L181.581 170.448Z" fill="#263238"/>
<path d="M171.479 173.017L173.53 176.065L178.684 174.669L176.522 171.732L171.479 173.017Z" fill="#263238"/>
<path d="M155.458 157.583L156.782 159.722L160.899 158.669L159.551 156.674L155.458 157.583Z" fill="#263238"/>
<path d="M166.261 165.308L168.16 168.109L172.884 166.8L170.865 164.063L166.261 165.308Z" fill="#263238"/>
<path d="M162.08 159.118L163.612 161.392L168.033 160.227L166.405 158.017L162.08 159.118Z" fill="#263238"/>
<path d="M152.793 164.246L151.452 161.829L146.561 163.073L147.926 165.531L152.793 164.246Z" fill="#263238"/>
<path d="M145.763 170.096L149.122 169.194L147.567 166.386L144.263 167.255L145.763 170.096Z" fill="#263238"/>
<path d="M154.006 155.238L155.051 156.93L159.112 156.028L158.019 154.417L154.006 155.238Z" fill="#263238"/>
<path d="M151.085 161.166L149.793 158.836L144.822 159.93L146.194 162.411L151.085 161.166Z" fill="#263238"/>
<path d="M149.178 156.218L150.168 158.006L154.301 157.096L153.24 155.389L149.178 156.218Z" fill="#263238"/>
<path d="M142.229 163.426L145.468 162.596L144.08 160.099L140.848 160.809L142.229 163.426Z" fill="#263238"/>
<path d="M143.418 157.4L144.455 159.267L149.426 158.174L148.428 156.371L143.418 157.4Z" fill="#263238"/>
<path d="M159.032 163.354L160.708 166.059L165.096 164.878L163.301 162.229L159.032 163.354Z" fill="#263238"/>
<path d="M170.298 172.568L167.849 168.945L163.277 170.206L165.495 173.789L170.298 172.568Z" fill="#263238"/>
<path d="M150.535 158.671L151.811 160.985L156.04 159.908L154.708 157.753L150.535 158.671Z" fill="#263238"/>
<path d="M151.492 173.453L148.045 174.403L149.833 177.778L153.383 176.876L151.492 173.453Z" fill="#263238"/>
<path d="M161.107 166.704L162.878 169.561L167.418 168.316L165.527 165.507L161.107 166.704Z" fill="#263238"/>
<path d="M157.899 162.907L156.439 160.554L152.178 161.639L153.519 164.064L157.899 162.907Z" fill="#263238"/>
<path d="M165.902 187.92L161.027 189.165L162.766 192.301L167.657 191.096L165.902 187.92Z" fill="#263238"/>
<path d="M158.354 153.612L162.527 152.758L160.285 149.71L156.176 150.388L158.354 153.612Z" fill="#263238"/>
<path d="M148.061 155.708L146.043 152.062L140.928 152.907L143.05 156.737L148.061 155.708Z" fill="#263238"/>
<path d="M154.7 167.687L153.16 164.902L148.293 166.187L149.849 168.996L154.7 167.687Z" fill="#263238"/>
<path d="M167.123 177.795L165.16 174.627L160.086 175.92L161.905 179.207L167.123 177.795Z" fill="#263238"/>
<path d="M164.761 173.98L162.543 170.406L157.764 171.722L159.718 175.257L164.761 173.98Z" fill="#263238"/>
<path d="M172.788 176.262L170.729 173.206L165.894 174.435L167.857 177.594L172.788 176.262Z" fill="#263238"/>
<path d="M159.974 166.259L158.298 163.546L153.878 164.719L155.418 167.487L159.974 166.259Z" fill="#263238"/>
<path d="M157.181 160.369L158.633 162.707L162.87 161.59L161.33 159.308L157.181 160.369Z" fill="#263238"/>
<path d="M162.144 169.767L160.373 166.903L155.777 168.14L157.405 171.076L162.144 169.767Z" fill="#263238"/>
<path d="M175.253 179.901L173.219 176.901L168.256 178.241L170.147 181.297L175.253 179.901Z" fill="#263238"/>
<path d="M171.974 185.624L169.812 182.137L164.354 183.637L166.269 187.076L171.974 185.624Z" fill="#263238"/>
<path d="M155.617 180.907L153.75 177.532L150.184 178.441L152.003 181.888L155.617 180.907Z" fill="#263238"/>
<path d="M149.489 169.85L146.114 170.759L147.702 173.751L151.125 172.81L149.489 169.85Z" fill="#263238"/>
<path d="M165.535 187.268L163.636 183.829L158.801 185.153L160.66 188.504L165.535 187.268Z" fill="#263238"/>
<path d="M156.678 171.269L155.059 168.34L150.208 169.649L151.851 172.609L156.678 171.269Z" fill="#263238"/>
<path d="M158.793 154.257L159.878 155.861L164.123 154.919L162.998 153.395L158.793 154.257Z" fill="#263238"/>
<path d="M140.497 160.145L143.713 159.435L142.675 157.552L139.468 158.206L140.497 160.145Z" fill="#263238"/>
<path d="M153.591 154.578L157.58 153.764L155.386 150.517L151.476 151.163L153.591 154.578Z" fill="#263238"/>
<path d="M148.811 155.556L152.841 154.735L150.702 151.288L146.801 151.934L148.811 155.556Z" fill="#263238"/>
<path d="M147.207 165.73L145.835 163.257L142.58 164.087L143.912 166.592L147.207 165.73Z" fill="#263238"/>
<path d="M163.309 152.598L166.915 151.856L164.649 148.991L161.083 149.574L163.309 152.598Z" fill="#263238"/>
<path d="M142.3 156.89L140.162 153.028L137.002 153.554L139.117 157.536L142.3 156.89Z" fill="#263238"/>
<path d="M160.301 189.348L156.471 190.322L158.131 193.449L162.04 192.484L160.301 189.348Z" fill="#263238"/>
<path d="M178.501 184.704L173.107 186.076L175.078 189.26L180.647 187.879L178.501 184.704Z" fill="#263238"/>
<path d="M172.373 186.268L166.628 187.728L168.392 190.912L174.336 189.444L172.373 186.268Z" fill="#263238"/>
<path d="M184.884 183.077L179.251 184.513L181.397 187.697L187.23 186.253L184.884 183.077Z" fill="#263238"/>
<path d="M190.429 181.666L185.642 182.886L187.996 186.07L192.943 184.841L190.429 181.666Z" fill="#263238"/>
<path d="M158.083 185.351L154.373 186.364L156.12 189.667L159.934 188.694L158.083 185.351Z" fill="#263238"/>
<path d="M169.413 181.498L167.522 178.442L162.272 179.863L163.995 182.982L169.413 181.498Z" fill="#263238"/>
<path d="M178.07 184.065L175.676 180.531L170.546 181.935L172.708 185.43L178.07 184.065Z" fill="#263238"/>
<path d="M163.277 183.172L161.546 180.052L156.702 181.369L158.442 184.496L163.277 183.172Z" fill="#263238"/>
<path d="M154.03 185.711L157.724 184.697L155.984 181.562L152.354 182.543L154.03 185.711Z" fill="#263238"/>
<path d="M158.992 175.448L157.045 171.921L152.21 173.254L154.109 176.685L158.992 175.448Z" fill="#263238"/>
<path d="M184.421 182.448L181.78 178.865L176.418 180.333L178.82 183.876L184.421 182.448Z" fill="#263238"/>
<path d="M161.186 179.399L159.359 176.104L154.476 177.349L156.343 180.716L161.186 179.399Z" fill="#263238"/>
<path d="M174.096 167.223L176.817 170.909L181.086 169.824L178.15 166.106L174.096 167.223Z" fill="#263238"/>
<path d="M168.791 160.026L172.573 159.028L170.873 156.882L167.171 157.823L168.791 160.026Z" fill="#263238"/>
<path d="M165.375 155.39L166.7 157.193L170.386 156.259L169.054 154.576L165.375 155.39Z" fill="#263238"/>
<path d="M189.935 181.042L187.078 177.412L182.53 178.656L185.179 182.255L189.935 181.042Z" fill="#263238"/>
<path d="M169.253 160.655L171.16 163.232L175.054 162.179L173.059 159.649L169.253 160.655Z" fill="#263238"/>
<path d="M179.897 175.091L182.067 178.035L186.592 176.798L184.302 173.902L179.897 175.091Z" fill="#263238"/>
<path d="M164.897 154.752L168.559 153.946L167.418 152.494L163.788 153.236L164.897 154.752Z" fill="#263238"/>
<path d="M173.634 166.599L177.663 165.482L175.549 162.801L171.623 163.862L173.634 166.599Z" fill="#263238"/>
<path d="M206.004 151.831V158.357C205.341 158.998 204.611 159.565 203.826 160.049C202.621 160.775 192.703 162.443 192.703 162.443L205.278 176.238C205.278 176.238 216.808 174.977 220.039 174.06C223.422 173.086 222.696 160.751 222.696 160.751L206.004 151.831Z" fill="white" stroke="#263238" stroke-width="0.624476" stroke-linecap="round" stroke-linejoin="round"/>
<path d="M206.004 151.831V158.357C206.004 158.357 205.829 158.533 205.542 158.788L220.247 173.996C223.39 172.584 222.696 160.775 222.696 160.775L206.004 151.831Z" fill="#263238" stroke="#263238" stroke-width="0.624476" stroke-linecap="round" stroke-linejoin="round"/>
<path d="M183.751 68.3721V137.557L236.484 179.16V72.2419L183.751 68.3721Z" fill="white" stroke="#263238" stroke-width="0.624476" stroke-linecap="round" stroke-linejoin="round"/>
<path d="M187.381 72.002V130.296L231.648 157.632V75.8717L187.381 72.002Z" fill="#EF5D49" stroke="#263238" stroke-width="0.624476" stroke-linecap="round" stroke-linejoin="round"/>
<path d="M241.806 72.2427H236.484V179.184H241.806V72.2427Z" fill="#263238" stroke="#263238" stroke-width="0.624476" stroke-linecap="round" stroke-linejoin="round"/>
<path d="M190.286 75.6318L190.525 127.639L227.531 148.679V84.281L202.135 80.4352L200.443 76.8367L190.286 75.6318Z" fill="white" stroke="#263238" stroke-width="0.624476" stroke-linecap="round" stroke-linejoin="round"/>
<path d="M192.703 81.9219V126.189L225.361 143.607V87.7305L192.703 81.9219Z" fill="#EF5D49" stroke="#263238" stroke-width="0.624476" stroke-linecap="round" stroke-linejoin="round"/>
<path d="M211.803 125.126C216.411 123.579 218.418 117.178 216.286 110.828C214.154 104.478 208.69 100.585 204.083 102.132C199.475 103.679 197.468 110.081 199.6 116.43C201.732 122.78 207.196 126.673 211.803 125.126Z" fill="#263238"/>
<path d="M208.909 114.354L212.012 110.915C212.222 110.609 212.329 110.244 212.319 109.873C212.309 109.502 212.182 109.144 211.957 108.849C211.494 108.187 210.768 108.051 210.361 108.522L207.377 111.833L204.385 107.046C203.954 106.351 203.228 106.136 202.789 106.567C202.558 106.852 202.426 107.206 202.415 107.573C202.403 107.941 202.512 108.302 202.725 108.601L205.829 113.588L202.669 117.011C202.46 117.318 202.353 117.684 202.365 118.055C202.376 118.426 202.505 118.784 202.733 119.078C202.915 119.366 203.2 119.575 203.531 119.66C203.674 119.696 203.825 119.691 203.966 119.646C204.107 119.601 204.233 119.517 204.329 119.405L207.321 116.094L210.305 120.881C210.488 121.206 210.792 121.447 211.151 121.551C211.289 121.595 211.436 121.6 211.576 121.566C211.717 121.532 211.845 121.461 211.949 121.36C212.178 121.073 212.307 120.719 212.317 120.352C212.327 119.985 212.217 119.624 212.004 119.325L208.909 114.354Z" fill="white"/>
<path d="M198.504 96.9189L216.792 102.289" stroke="#263238" stroke-width="0.624476" stroke-linecap="round" stroke-linejoin="round"/>
<path d="M197.778 91.8389L221.483 98.4534" stroke="#263238" stroke-width="0.624476" stroke-linecap="round" stroke-linejoin="round"/>
<path d="M214.119 205.825C214.119 205.825 202.557 206.894 198.281 210.317C194.004 213.74 197.212 215.456 201.273 216.525C205.334 217.594 223.534 215.879 225.888 213.525C228.242 211.171 225.888 205.394 214.119 205.825Z" fill="white" stroke="#263238" stroke-width="0.624476" stroke-linecap="round" stroke-linejoin="round"/>
<path d="M225.888 213.555C226.342 213.102 226.625 212.503 226.686 211.864C221.507 211.609 214.717 213.109 208.55 215.055C206.467 215.718 204.353 216.275 202.214 216.723C207.592 217.369 223.686 215.726 225.888 213.555Z" fill="#263238" stroke="#263238" stroke-width="0.624476" stroke-linecap="round" stroke-linejoin="round"/>
<path d="M173.131 78.8418L181.581 83.2382" stroke="#263238" stroke-width="0.832635" stroke-linecap="round" stroke-linejoin="round"/>
<path d="M168.28 76.3179L170.793 77.6264" stroke="#263238" stroke-width="0.832635" stroke-linecap="round" stroke-linejoin="round"/>
<path d="M174.99 100.991L177.855 101.318" stroke="#263238" stroke-width="0.832635" stroke-linecap="round" stroke-linejoin="round"/>
<path d="M164.027 99.7227L171.751 100.616" stroke="#263238" stroke-width="0.832635" stroke-linecap="round" stroke-linejoin="round"/>
<path d="M176.793 121.537L167.219 124.194" stroke="#263238" stroke-width="0.832635" stroke-linecap="round" stroke-linejoin="round"/>
<path d="M164.434 4.51074C159.905 4.51074 155.477 5.85378 151.712 8.37001C147.946 10.8862 145.011 14.4627 143.277 18.647C141.544 22.8313 141.091 27.4357 141.974 31.8778C142.858 36.3198 145.039 40.4001 148.241 43.6027C151.444 46.8052 155.524 48.9862 159.966 49.8698C164.408 50.7534 169.013 50.2999 173.197 48.5667C177.382 46.8335 180.958 43.8984 183.474 40.1326C185.99 36.3668 187.333 31.9394 187.333 27.4103C187.333 21.3369 184.921 15.5124 180.626 11.2179C176.332 6.92337 170.507 4.51074 164.434 4.51074ZM164.434 45.8097C160.795 45.8081 157.239 44.7277 154.214 42.705C151.189 40.6823 148.832 37.8081 147.441 34.4459C146.049 31.0837 145.686 27.3844 146.397 23.8158C147.108 20.2472 148.861 16.9695 151.434 14.3971C154.008 11.8247 157.286 10.0731 160.855 9.36382C164.424 8.65452 168.123 9.01935 171.485 10.4122C174.846 11.805 177.72 14.1633 179.741 17.1889C181.762 20.2145 182.841 23.7716 182.841 27.4103C182.845 29.8295 182.372 32.2258 181.449 34.4619C180.526 36.698 179.17 38.7299 177.46 40.4413C175.75 42.1527 173.72 43.5099 171.484 44.4352C169.249 45.3605 166.853 45.8357 164.434 45.8336V45.8097Z" fill="#263238"/>
<path d="M166.07 27.4332C166.077 27.7583 165.988 28.0784 165.813 28.3525C165.639 28.6267 165.386 28.8426 165.088 28.9725C164.79 29.1024 164.46 29.1406 164.14 29.082C163.82 29.0235 163.525 28.871 163.292 28.6439C163.059 28.4168 162.9 28.1255 162.833 27.8072C162.767 27.4888 162.797 27.1579 162.919 26.8567C163.042 26.5555 163.251 26.2976 163.521 26.1161C163.791 25.9345 164.109 25.8375 164.434 25.8374C164.861 25.8373 165.271 26.0041 165.577 26.3023C165.882 26.6005 166.059 27.0063 166.07 27.4332Z" fill="#263238"/>
<path d="M158.952 35.7402L164.434 27.4341L173.697 35.1018" stroke="#263238" stroke-width="0.832635" stroke-linecap="round" stroke-linejoin="round"/>
<path d="M42.9147 44.9888L40.162 37.4647L41.6301 39.1163V36.5471L44.7499 41.3185L41.9971 24.2516L45.6675 33.6108L46.0345 25.3526L46.585 28.1054L47.3191 18.7461L48.6037 33.0603L50.4388 28.1054L50.0718 34.5284L55.0267 19.8472L52.641 38.1987L56.1278 35.6295L54.1092 38.9328L56.6784 37.0976L53.7501 45.5394L43.0982 45.7229" fill="#EF5D49"/>
<path d="M54.6915 63.5241H43.2178L40.1219 43.6406H57.7793L54.6915 63.5241Z" fill="#263238" stroke="#263238" stroke-width="0.832635" stroke-linecap="round" stroke-linejoin="round"/>
<path d="M86.1046 63.3896H28.1855V217.471H86.1046V63.3896Z" fill="white" stroke="#263238" stroke-width="0.832635" stroke-linecap="round" stroke-linejoin="round"/>
<path d="M82.1631 68.4473H31.5527V105.557H82.1631V68.4473Z" stroke="#263238" stroke-width="0.832635" stroke-linecap="round" stroke-linejoin="round"/>
<path d="M66.979 83.6299H46.7365V90.3801H66.979V83.6299Z" fill="#263238"/>
<path d="M82.1631 111.748H31.5527V148.858H82.1631V111.748Z" stroke="#263238" stroke-width="0.832635" stroke-linecap="round" stroke-linejoin="round"/>
<path d="M66.979 126.933H46.7365V133.683H66.979V126.933Z" fill="#263238"/>
<path d="M82.1631 155.041H31.5527V192.151H82.1631V155.041Z" stroke="#263238" stroke-width="0.832635" stroke-linecap="round" stroke-linejoin="round"/>
<path d="M66.979 170.227H46.7365V176.977H66.979V170.227Z" fill="#263238"/>
<path d="M92.3122 208.678C92.3122 208.678 121.34 195.856 136.946 194.891L148.332 220.048H62.3353L92.3122 208.678Z" fill="#263238" stroke="#263238" stroke-width="0.624476" stroke-linecap="round" stroke-linejoin="round"/>
<path d="M127.643 57.0962C127.643 57.0962 148.077 81.3681 152.378 85.8204C156.678 90.2726 156.838 93.5041 155.449 95.4988C154.061 97.4935 143.625 101.188 132.869 108.098C122.113 115.007 91.5382 132.832 91.235 133.455C90.9318 134.077 88.0035 111.911 88.0035 111.911L139.164 90.863L139.013 89.3231L122.417 58.5962L127.643 57.0962Z" fill="white"/>
<path d="M147.311 92.9235L123.598 58.2949L122.457 58.63L139.053 89.3569L139.204 90.8968L88.0435 111.945C88.0435 111.945 88.0994 112.328 88.1792 112.975L91.5144 120.626L147.311 92.9235Z" fill="#EF5D49"/>
<path opacity="0.5" d="M147.311 92.9235L123.598 58.2949L122.457 58.63L139.053 89.3569L139.204 90.8968L88.0435 111.945C88.0435 111.945 88.0994 112.328 88.1792 112.975L91.5144 120.626L147.311 92.9235Z" fill="white"/>
<path d="M127.643 57.0962C127.643 57.0962 148.077 81.3681 152.378 85.8203C156.678 90.2726 156.838 93.5041 155.449 95.4988C154.061 97.4935 143.625 101.188 132.869 108.098C122.113 115.007 91.5382 132.832 91.235 133.455C90.9318 134.077 88.0035 111.911 88.0035 111.911L139.164 90.863L139.013 89.3231L122.417 58.5962L127.643 57.0962Z" stroke="#263238" stroke-width="0.624476" stroke-linecap="round" stroke-linejoin="round"/>
<path d="M111.358 46.4907C111.358 46.4907 108.9 44.3364 107.672 46.4907C106.443 48.645 106.291 52.1717 107.057 52.4828C107.823 52.794 110.895 52.3313 111.358 51.4057C111.821 50.4801 111.358 46.4907 111.358 46.4907Z" fill="white" stroke="#263238" stroke-width="0.624476" stroke-linecap="round" stroke-linejoin="round"/>
<path d="M115.659 45.4157C115.659 45.4157 113.049 42.655 111.358 43.7241C109.666 44.7933 110.129 50.6419 110.743 51.1046C111.358 51.5674 115.044 50.3068 115.531 49.5647C116.018 48.8227 115.659 45.4157 115.659 45.4157Z" fill="white" stroke="#263238" stroke-width="0.624476" stroke-linecap="round" stroke-linejoin="round"/>
<path d="M121.499 45.5671C121.499 45.5671 119.193 42.3755 117.047 42.3755C114.901 42.3755 113.353 50.0592 114.127 50.6736C114.901 51.288 119.959 50.522 120.27 50.0592C120.763 48.5858 121.173 47.0861 121.499 45.5671Z" fill="white" stroke="#263238" stroke-width="0.624476" stroke-linecap="round" stroke-linejoin="round"/>
<path d="M125.991 50.7923C125.991 49.8747 125.536 41.8798 122.8 42.3426C120.063 42.8053 117.119 49.2603 117.27 50.3215C117.422 51.3827 125.991 50.7923 125.991 50.7923Z" fill="white" stroke="#263238" stroke-width="0.624476" stroke-linecap="round" stroke-linejoin="round"/>
<path d="M139.164 90.896C139.164 90.896 147 93.8163 149.92 93.6567L139.164 90.896Z" fill="white"/>
<path d="M139.164 90.896C139.164 90.896 147 93.8163 149.92 93.6567" stroke="#263238" stroke-width="0.624476" stroke-linecap="round" stroke-linejoin="round"/>
<path d="M74.7345 220.258C83.0805 218.854 93.7723 213.117 96.9559 205.896C94.5622 193.377 91.5382 175.743 91.5382 164.956C91.5382 146.828 96.3255 136.535 94.1473 124.263C91.969 111.992 87.3891 103.989 82.4741 100.757C82.4741 100.757 74.95 102.752 67.2663 109.973C59.5826 117.194 52.8244 129.609 50.1914 141.442C47.5583 153.275 44.0476 189.683 44.0476 199.209C44.0476 208.736 43.3614 220.561 43.3614 220.561C52.5611 220.561 61.7608 220.561 70.9605 220.561C72.2251 220.573 73.4882 220.472 74.7345 220.258Z" fill="white"/>
<path d="M96.9558 205.884C92.2802 209.873 71.2238 217.621 68.1519 218.307C65.08 218.993 66.7875 212.498 71.5669 206.011C76.3463 199.524 65.7582 208.405 64.0507 209.083C62.3432 209.761 64.7369 196.445 64.7369 189.934C64.7369 183.423 70.8887 128.113 70.8887 128.113L82.498 106.929L86.4875 104.535C85.3731 103.054 84.0258 101.763 82.498 100.713C82.498 100.713 74.9739 102.708 67.2902 109.929C59.6065 117.15 52.8244 129.605 50.1913 141.438C47.5583 153.271 44.0475 189.678 44.0475 199.205C44.0475 208.732 43.3614 220.557 43.3614 220.557C52.5611 220.557 61.7608 220.557 70.9605 220.557C72.2207 220.558 73.4784 220.445 74.7186 220.222C83.0805 218.849 93.7723 213.113 96.9558 205.884Z" fill="#EF5D49"/>
<path opacity="0.5" d="M96.9558 205.884C92.2802 209.873 71.2238 217.621 68.1519 218.307C65.08 218.993 66.7875 212.498 71.5669 206.011C76.3463 199.524 65.7582 208.405 64.0507 209.083C62.3432 209.761 64.7369 196.445 64.7369 189.934C64.7369 183.423 70.8887 128.113 70.8887 128.113L82.498 106.929L86.4875 104.535C85.3731 103.054 84.0258 101.763 82.498 100.713C82.498 100.713 74.9739 102.708 67.2902 109.929C59.6065 117.15 52.8244 129.605 50.1913 141.438C47.5583 153.271 44.0475 189.678 44.0475 199.205C44.0475 208.732 43.3614 220.557 43.3614 220.557C52.5611 220.557 61.7608 220.557 70.9605 220.557C72.2207 220.558 73.4784 220.445 74.7186 220.222C83.0805 218.849 93.7723 213.113 96.9558 205.884Z" fill="white"/>
<path d="M74.7345 220.258C83.0805 218.854 93.7723 213.117 96.9559 205.896C94.5622 193.377 91.5382 175.743 91.5382 164.956C91.5382 146.828 96.3255 136.535 94.1473 124.263C91.969 111.992 87.3891 103.989 82.4741 100.757C82.4741 100.757 74.95 102.752 67.2663 109.973C59.5826 117.194 52.8244 129.609 50.1914 141.442C47.5583 153.275 44.0476 189.683 44.0476 199.209C44.0476 208.736 43.3614 220.561 43.3614 220.561C52.5611 220.561 61.7608 220.561 70.9605 220.561C72.2251 220.573 73.4882 220.472 74.7345 220.258V220.258Z" stroke="#263238" stroke-width="0.624476" stroke-linecap="round" stroke-linejoin="round"/>
<path d="M82.0273 103.581L95.2244 127.613L95.9346 140.794C95.9346 140.794 99.6128 131.395 97.9772 125.259C96.3415 119.124 82.0273 103.581 82.0273 103.581Z" fill="#263238" stroke="#263238" stroke-width="0.624476" stroke-linecap="round" stroke-linejoin="round"/>
<path d="M95.9267 140.803L92.2484 196.424L96.3416 207.874L99.206 184.966L96.7485 139.159L95.9267 140.803Z" fill="#263238" stroke="#263238" stroke-width="0.624476" stroke-linecap="round" stroke-linejoin="round"/>
<path d="M92.3043 81.0557C92.3043 81.0557 92.767 87.0479 93.2298 89.9682C93.6926 92.8885 86.4717 101.059 86.4717 101.059L96.9161 116.881L108.749 107.665C108.749 107.665 125.505 106.437 127.029 105.048C128.553 103.66 128.569 88.4602 128.569 88.4602L132.558 86.1543C132.558 86.1543 128.872 70.1964 127.954 66.6378L127.029 63.1111C127.029 63.1111 132.406 61.26 131.178 55.9301C129.949 50.6001 122.114 47.9511 114.278 49.1639C106.443 50.3767 104.448 53.313 104.448 53.313C104.448 53.313 93.3814 53.1614 87.086 58.3876C80.7907 63.6138 84.6285 71.9039 86.6233 74.8242C88.3207 77.0721 90.2224 79.1582 92.3043 81.0557Z" fill="white"/>
<path d="M110.831 102.519C107.759 98.7605 110.831 84.4144 113.225 77.2413C115.619 70.0683 109.81 66.9964 109.81 66.9964L127.252 63.9883L127.012 63.0867C128.192 62.6257 129.241 61.8834 130.068 60.9244L131.01 55.379C129.414 50.3364 121.858 47.9108 114.254 49.0996C106.419 50.3284 104.424 53.2487 104.424 53.2487C104.424 53.2487 93.3573 53.0971 87.0619 58.3233C80.7666 63.5495 84.6044 71.8396 86.5992 74.7599C88.2935 77.03 90.1953 79.1375 92.2802 81.0552C92.2802 81.0552 92.7429 87.0474 93.2057 89.9677C93.6685 92.888 86.4715 101.058 86.4715 101.058L96.9159 116.881L108.749 107.665C108.749 107.665 121.515 106.723 125.792 105.567L127.028 105.048C127.028 105.048 113.919 106.277 110.831 102.519Z" fill="#EF5D49"/>
<path opacity="0.5" d="M110.831 102.519C107.759 98.7605 110.831 84.4144 113.225 77.2413C115.619 70.0683 109.81 66.9964 109.81 66.9964L127.252 63.9883L127.012 63.0867C128.192 62.6257 129.241 61.8834 130.068 60.9244L131.01 55.379C129.414 50.3364 121.858 47.9108 114.254 49.0996C106.419 50.3284 104.424 53.2487 104.424 53.2487C104.424 53.2487 93.3573 53.0971 87.0619 58.3233C80.7666 63.5495 84.6044 71.8396 86.5992 74.7599C88.2935 77.03 90.1953 79.1375 92.2802 81.0552C92.2802 81.0552 92.7429 87.0474 93.2057 89.9677C93.6685 92.888 86.4715 101.058 86.4715 101.058L96.9159 116.881L108.749 107.665C108.749 107.665 121.515 106.723 125.792 105.567L127.028 105.048C127.028 105.048 113.919 106.277 110.831 102.519Z" fill="white"/>
<path d="M119.808 73.9932C119.808 73.9932 119.808 73.7538 119.808 73.3788C119.808 72.1899 120.007 69.6207 121.994 68.9186C124.603 68.001 126.781 70.4585 126.781 70.4585L126.933 72.916C126.557 72.4468 126.064 72.0857 125.503 71.8698C124.942 71.6539 124.334 71.5909 123.741 71.6872C122.214 72.0081 120.833 72.8176 119.808 73.9932Z" fill="#263238"/>
<path d="M124.268 78.9099C124.268 80.1786 123.917 81.2158 123.47 81.2158C123.023 81.2158 122.672 80.1786 122.672 78.9099C122.672 77.6413 123.015 76.604 123.47 76.604C123.925 76.604 124.268 77.6333 124.268 78.9099Z" fill="#263238"/>
<path d="M119.425 95.003C118.571 95.8887 117.43 96.1759 116.879 95.6493C116.329 95.1227 116.576 93.9657 117.43 93.0801C118.284 92.1944 119.417 91.9072 119.967 92.4338C120.518 92.9604 120.278 94.1173 119.425 95.003Z" fill="#263238"/>
<path d="M92.3043 81.0557C92.3043 81.0557 92.767 87.0479 93.2298 89.9682C93.6926 92.8885 86.4717 101.059 86.4717 101.059L96.9161 116.881L108.749 107.665C108.749 107.665 125.505 106.437 127.029 105.048C128.553 103.66 128.569 88.4602 128.569 88.4602L132.558 86.1543C132.558 86.1543 128.872 70.1964 127.954 66.6378L127.029 63.1111C127.029 63.1111 132.406 61.26 131.178 55.9301C129.949 50.6001 122.114 47.9511 114.278 49.1639C106.443 50.3767 104.448 53.313 104.448 53.313C104.448 53.313 93.3814 53.1614 87.086 58.3876C80.7907 63.6138 84.6285 71.9039 86.6233 74.8242C88.3207 77.0721 90.2224 79.1582 92.3043 81.0557V81.0557Z" stroke="#263238" stroke-width="0.624476" stroke-linecap="round" stroke-linejoin="round"/>
<path d="M107.057 66.001C109.826 64.1578 127.005 63.0887 127.005 63.0887C127.005 63.0887 132.382 61.2375 131.154 55.9076C129.925 50.5777 122.09 47.9287 114.254 49.1415C106.419 50.3543 104.424 53.2905 104.424 53.2905C104.424 53.2905 93.3574 53.1389 87.0621 58.3651C80.7667 63.5913 84.6045 71.8814 86.5993 74.8017C88.2936 77.0719 90.1954 79.1794 92.2803 81.0971C92.2803 81.0971 92.5356 84.3844 92.8548 87.2808L97.6421 88.6292L102.868 85.8605L108.095 84.6318C108.095 84.6318 104.249 81.7115 106.403 78.9508C108.557 76.1901 112.547 75.2645 112.698 73.1102C112.85 70.9559 104.289 67.8441 107.057 66.001Z" fill="#263238" stroke="#263238" stroke-width="0.624476" stroke-linecap="round" stroke-linejoin="round"/>
<path d="M123.829 57.0728C123.829 57.0728 122.026 53.7695 125.329 54.3679C128.632 54.9663 128.632 60.6792 125.928 61.8761C123.223 63.0729 108.509 60.376 100.395 62.7777C92.2803 65.1794 86.5834 71.7859 86.5834 71.7859" stroke="white" stroke-width="0.832635" stroke-miterlimit="10" stroke-linecap="round"/>
<path d="M91.0915 76.893C91.0915 76.893 97.4029 71.4912 102.501 70.5896C107.6 69.688 110.313 69.688 104.608 72.9833C98.9029 76.2786 102.805 75.6802 106.411 74.4833" stroke="white" stroke-width="0.832635" stroke-miterlimit="10" stroke-linecap="round"/>
<path d="M104.289 88.7388C104.289 88.7388 103.371 79.0604 98.6077 78.7572C93.8442 78.454 93.9958 85.3638 95.4161 90.1272C96.8363 94.8906 100.203 96.4226 102.94 93.965" fill="#EF5D49"/>
<g opacity="0.5">
<path d="M104.289 88.7388C104.289 88.7388 103.371 79.0604 98.6076 78.7572C93.8442 78.454 93.9958 85.3638 95.4161 90.1272C96.8363 94.8906 100.203 96.4226 102.94 93.965" fill="white"/>
<path d="M104.289 88.7388C104.289 88.7388 103.371 79.0604 98.6076 78.7572C93.8442 78.454 93.9958 85.3638 95.4161 90.1272C96.8363 94.8906 100.203 96.4226 102.94 93.965" stroke="#263238" stroke-width="0.624476" stroke-linecap="round" stroke-linejoin="round"/>
</g>
<path d="M104.289 88.7388C104.289 88.7388 103.371 79.0604 98.6077 78.7572C93.8442 78.454 93.9958 85.3638 95.4161 90.1272C96.8363 94.8906 100.203 96.4226 102.94 93.965" stroke="#263238" stroke-width="0.624476" stroke-linecap="round" stroke-linejoin="round"/>
<path d="M86.8946 95.1953L102.262 118.55L95.1927 127.614C92.009 121.472 88.471 115.52 84.5967 109.789C79.3705 102.416 78.7561 101.187 78.7561 101.187L86.8946 95.1953Z" fill="white"/>
<path d="M86.8945 95.1938L78.756 101.186C78.756 101.186 79.2108 102.088 82.5619 106.899L91.1632 101.681L86.8945 95.1938Z" fill="#EF5D49"/>
<path opacity="0.5" d="M86.8945 95.1938L78.756 101.186C78.756 101.186 79.2108 102.088 82.5619 106.899L91.1632 101.681L86.8945 95.1938Z" fill="white"/>
<path d="M86.8946 95.1953L102.262 118.55L95.1927 127.614C92.009 121.472 88.471 115.52 84.5967 109.789C79.3705 102.416 78.7561 101.187 78.7561 101.187L86.8946 95.1953Z" stroke="#263238" stroke-width="0.624476" stroke-linecap="round" stroke-linejoin="round"/>
<path d="M126.414 153.274C126.414 153.274 128.872 148.199 129.334 144.976C129.797 141.752 129.949 139.901 131.792 138.369C133.635 136.837 139.627 130.686 140.569 128.38C141.51 126.074 142.101 128.228 142.563 130.071C143.026 131.914 142.867 133.606 141.335 134.683C140.255 135.484 139.275 136.411 138.414 137.444L139.795 138.521C139.795 138.521 159 131.3 161.003 130.542C163.005 129.784 164.841 130.382 164.992 131.922C165.144 133.462 164.537 133.614 163.612 134.077C162.686 134.539 152.553 138.066 151.165 138.68L149.784 139.295L150.862 140.372C150.862 140.372 156.391 140.22 159.16 140.069C161.928 139.917 166.069 139.454 166.684 140.372C166.958 140.783 167.063 141.283 166.976 141.77C166.89 142.256 166.62 142.69 166.221 142.981C165.898 143.291 165.509 143.523 165.084 143.662C164.658 143.8 164.207 143.84 163.763 143.779C162.383 143.779 150.55 144.697 150.55 144.697L150.862 146.388C150.862 146.388 163.46 148.383 163.915 148.997C164.37 149.612 164.378 149.923 163.915 150.84C163.452 151.758 163.117 151.766 161.92 151.766C160.723 151.766 150.75 150.226 150.75 150.226C150.75 150.226 155.665 152.995 156.279 153.457C156.894 153.92 159.04 154.255 158.426 155.301C157.811 156.346 157.508 156.681 156.582 156.529C155.657 156.378 149.058 153.457 149.058 153.457C149.058 153.457 142.452 154.375 140.281 154.535C138.684 154.609 137.083 154.555 135.494 154.375L129.35 158.365L126.414 153.274Z" fill="white" stroke="#263238" stroke-width="0.624476" stroke-linecap="round" stroke-linejoin="round"/>
<path d="M82.7853 146.355C82.7853 146.355 78.3251 127.764 76.482 123.615C74.6389 119.466 64.1944 115.636 59.1198 124.693C54.0452 133.749 58.657 144.049 60.5082 151.422C62.3593 158.795 74.0245 192.115 75.716 196.288C77.4075 200.46 80.5034 199.479 82.171 199.056C83.8386 198.633 130.563 160.949 130.563 160.949L126.877 152.659L90.6207 171.274L82.7853 146.355Z" fill="white"/>
<path d="M81.4769 187.235C82.6606 183.638 84.0267 180.104 85.5701 176.647C87.2776 173.232 77.3757 184.506 75.3251 178.354C73.2745 172.203 60.3008 141.468 62.6865 131.223C63.7213 126.463 66.5064 122.265 70.4899 119.462C66.6839 118.56 62.0242 119.518 59.1199 124.704C54.0533 133.768 58.6571 144.061 60.5082 151.433C62.3593 158.806 74.0246 192.126 75.7161 196.299C77.4076 200.472 80.5034 199.491 82.171 199.068C83.3998 198.733 108.502 178.681 122.066 167.806L81.4769 187.235Z" fill="#EF5D49"/>
<path opacity="0.5" d="M81.4769 187.235C82.6606 183.638 84.0267 180.104 85.5701 176.647C87.2776 173.232 77.3757 184.506 75.3251 178.354C73.2745 172.203 60.3008 141.468 62.6865 131.223C63.7213 126.463 66.5064 122.265 70.4899 119.462C66.6839 118.56 62.0242 119.518 59.1199 124.704C54.0533 133.768 58.6571 144.061 60.5082 151.433C62.3593 158.806 74.0246 192.126 75.7161 196.299C77.4076 200.472 80.5034 199.491 82.171 199.068C83.3998 198.733 108.502 178.681 122.066 167.806L81.4769 187.235Z" fill="white"/>
<path d="M82.7853 146.355C82.7853 146.355 78.3251 127.764 76.482 123.615C74.6389 119.466 64.1944 115.636 59.1198 124.693C54.0452 133.749 58.657 144.049 60.5082 151.422C62.3593 158.795 74.0245 192.115 75.716 196.288C77.4075 200.46 80.5034 199.479 82.171 199.056C83.8386 198.633 130.563 160.949 130.563 160.949L126.877 152.659L90.6207 171.274L82.7853 146.355Z" stroke="#263238" stroke-width="0.624476" stroke-linecap="round" stroke-linejoin="round"/>
<path d="M121.499 155.73L125.648 164.18" stroke="#263238" stroke-width="0.624476" stroke-linecap="round" stroke-linejoin="round"/>
<path d="M24.0365 113.338L2.81253 128.059C2.81253 128.059 13.2729 139.118 12.1958 168.129C11.3979 190.287 14.3261 215.444 18.5789 220.559H41.1752C41.1752 220.559 33.3639 177.473 33.9224 152.786C34.3612 134.027 28.7281 121.006 24.0365 113.338Z" fill="white" stroke="#263238" stroke-width="0.624476" stroke-linecap="round" stroke-linejoin="round"/>
<path d="M26.5897 113.338L5.36572 128.059C5.36572 128.059 15.8261 139.118 14.741 168.129C13.9431 190.287 16.8713 215.444 21.1241 220.559H43.7284C43.7284 220.559 35.925 177.473 36.4836 152.786C36.9064 134.027 31.2733 121.006 26.5897 113.338Z" fill="#263238" stroke="#263238" stroke-width="0.624476" stroke-linecap="round" stroke-linejoin="round"/>
<path d="M24.0365 113.338H26.5897L5.36575 128.059H2.82047L24.0365 113.338Z" fill="white" stroke="#263238" stroke-width="0.624476" stroke-linecap="round" stroke-linejoin="round"/>
</svg>
