<?xml version="1.0" standalone="no"?>
<!DOCTYPE svg PUBLIC "-//W3C//DTD SVG 20010904//EN"
 "http://www.w3.org/TR/2001/REC-SVG-20010904/DTD/svg10.dtd">
<svg version="1.0" xmlns="http://www.w3.org/2000/svg"
 width="512.000000pt" height="512.000000pt" viewBox="0 0 512.000000 512.000000"
 preserveAspectRatio="xMidYMid meet">
<metadata>
Created by potrace 1.16, written by Peter Selinger 2001-2019
</metadata>
<g transform="translate(0.000000,512.000000) scale(0.100000,-0.100000)"
fill="#000000" stroke="none">
<path d="M282 4620 c-29 -10 -67 -28 -86 -39 -54 -34 -135 -127 -164 -188
l-27 -58 0 -1775 0 -1775 28 -57 c44 -89 116 -161 205 -205 l76 -38 2403 -3
2403 -2 0 1240 0 1240 -80 0 -80 0 0 -1160 0 -1160 -2307 2 c-2186 3 -2310 4
-2340 21 -99 54 -153 140 -153 245 0 108 52 192 148 239 l57 28 248 3 247 3 0
315 0 314 -80 0 -80 0 0 -234 0 -234 -182 -4 c-195 -5 -240 -13 -320 -64 l-38
-24 0 1512 0 1513 24 50 c29 62 76 107 141 136 43 19 72 23 213 27 l162 5 0
-1267 0 -1266 80 0 80 0 0 910 0 910 135 0 135 0 0 -805 0 -805 80 0 80 0 0
935 0 935 1620 0 1620 0 0 -1220 0 -1220 -1620 0 -1620 0 0 210 0 210 -80 0
-80 0 0 -290 0 -290 1780 0 1780 0 0 1170 0 1170 135 0 135 0 0 -340 0 -340
80 0 80 0 0 420 0 420 -215 0 -215 0 0 280 0 280 -340 0 -340 0 0 -80 0 -80
260 0 260 0 0 -70 0 -70 -1470 0 -1470 0 0 70 0 70 1140 0 1140 0 0 80 0 80
-1370 0 -1370 0 0 -280 0 -280 -135 0 -135 0 0 350 0 350 -262 0 c-233 -1
-269 -3 -316 -20z m1148 -350 l0 -70 -70 0 -70 0 0 70 0 70 70 0 70 0 0 -70z"/>
<path d="M4010 3810 l0 -80 110 0 110 0 0 -110 0 -110 80 0 80 0 0 190 0 190
-190 0 -190 0 0 -80z"/>
<path d="M2732 3634 c-249 -54 -469 -232 -576 -466 -46 -99 -65 -175 -73 -289
-7 -119 9 -236 48 -343 30 -82 96 -203 123 -225 15 -13 31 -3 130 80 4 4 -3
22 -17 41 -42 54 -96 179 -113 258 -20 95 -14 229 16 325 34 111 84 191 175
282 130 129 284 193 465 193 138 0 278 -44 385 -121 27 -19 49 -29 53 -23 5 5
28 33 52 63 l44 53 -25 19 c-83 66 -223 130 -339 154 -87 18 -262 18 -348 -1z"/>
<path d="M3490 3304 c-30 -25 -57 -48 -59 -50 -2 -2 9 -23 26 -47 41 -57 67
-110 95 -193 19 -58 23 -89 23 -194 -1 -109 -5 -136 -28 -207 -105 -315 -433
-511 -755 -450 -92 18 -198 63 -270 114 l-47 33 -23 -27 c-13 -16 -35 -43 -50
-62 l-26 -34 38 -33 c21 -18 75 -51 120 -73 499 -245 1082 38 1192 578 20 101
15 281 -10 376 -27 101 -140 316 -165 315 -3 0 -31 -21 -61 -46z"/>
<path d="M2983 2908 l-223 -223 -85 85 -85 85 -57 -58 -58 -57 143 -142 142
-143 282 282 283 283 -55 55 c-30 30 -57 55 -60 55 -3 0 -105 -100 -227 -222z"/>
<path d="M1600 1210 l0 -80 80 0 80 0 0 80 0 80 -80 0 -80 0 0 -80z"/>
<path d="M1900 1210 l0 -80 80 0 80 0 0 80 0 80 -80 0 -80 0 0 -80z"/>
<path d="M2200 1210 l0 -80 410 0 410 0 0 80 0 80 -410 0 -410 0 0 -80z"/>
<path d="M1300 910 l0 -80 80 0 80 0 0 80 0 80 -80 0 -80 0 0 -80z"/>
<path d="M1600 910 l0 -80 305 0 305 0 0 80 0 80 -305 0 -305 0 0 -80z"/>
</g>
</svg>
