<?xml version="1.0" encoding="UTF-8"?>
<svg version="1.1" xmlns="http://www.w3.org/2000/svg" width="1080" height="1080">
<path d="M0 0 C5.61 0 11.22 0 17 0 C15.55188039 7.80092575 13.60649679 15.37049789 11.4375 23 C11.12103516 24.13050781 10.80457031 25.26101563 10.47851562 26.42578125 C8.13827481 34.72345038 8.13827481 34.72345038 7 37 C8.12494873 36.97905273 9.24989746 36.95810547 10.40893555 36.93652344 C14.59272474 36.86398477 18.77645861 36.8181501 22.96069336 36.78027344 C24.7697078 36.76018947 26.57865757 36.73291659 28.38745117 36.69824219 C30.99153621 36.64958108 33.59476115 36.62699949 36.19921875 36.609375 C37.40731453 36.57840729 37.40731453 36.57840729 38.63981628 36.54681396 C42.39299005 36.54532277 44.62189643 36.80776882 48.01953125 38.53515625 C50.71025609 41.88396764 50.63497552 44.71793768 50.48828125 48.828125 C50.48120651 49.57713074 50.47413177 50.32613647 50.46684265 51.09783936 C50.43892138 53.48292237 50.37619535 55.86563056 50.3125 58.25 C50.28741382 59.86975768 50.2646012 61.48955228 50.24414062 63.109375 C50.18910325 67.07382739 50.10285322 71.03651153 50 75 C50.7528125 74.84144531 51.505625 74.68289063 52.28125 74.51953125 C55 74 55 74 58.5 73.6875 C67.57190945 72.55565496 75.85421849 69.74072395 83.1953125 64.26953125 C85 63 85 63 88 62 C88 61.34 88 60.68 88 60 C91.45201639 61.47721422 93.64961936 63.43794001 96.25 66.125 C96.95640625 66.84945312 97.6628125 67.57390625 98.390625 68.3203125 C98.92171875 68.87460937 99.4528125 69.42890625 100 70 C95.57667874 79.67343154 84.30247031 84.07552034 75 88 C66.67928764 91.01025772 58.79011659 91.3827954 50 91 C50.0822465 94.2925863 50.19494643 97.58350012 50.3125 100.875 C50.34633789 102.25171875 50.34633789 102.25171875 50.38085938 103.65625 C50.82528045 115.13039401 53.86480056 124.57264821 61.88671875 132.9765625 C69.37628561 139.89227257 76.69473711 143.12942176 86.91621399 143.12025452 C88.10106888 143.12162918 89.28592377 143.12300385 90.50668335 143.12442017 C91.79781036 143.12082489 93.08893738 143.11722961 94.41918945 143.11352539 C95.79921975 143.11324317 97.17925019 143.11340194 98.5592804 143.1139679 C102.29854768 143.1142545 106.03778281 143.10837978 109.77704263 143.10139394 C113.68747561 143.09513774 117.59790935 143.09455481 121.50834656 143.09336853 C128.91012431 143.0902619 136.31188727 143.08205751 143.71365851 143.07201904 C152.14166527 143.06083716 160.56967274 143.05534222 168.99768507 143.05032361 C186.3317986 143.03987435 203.66589774 143.02228784 221 143 C221.29874023 141.78111084 221.29874023 141.78111084 221.60351562 140.53759766 C221.86841797 139.46558105 222.13332031 138.39356445 222.40625 137.2890625 C222.66728516 136.22896973 222.92832031 135.16887695 223.19726562 134.07666016 C224.07209924 130.72366342 225.12013605 127.4712913 226.25390625 124.19921875 C227.04174895 121.87693896 227.74557039 119.54006066 228.4375 117.1875 C229.50688927 113.57484817 230.66169267 110.00433118 231.875 106.4375 C233.56391475 101.42899418 235.08558222 96.38625762 236.5625 91.3125 C236.98944335 89.86063591 237.41652258 88.40881177 237.84375 86.95703125 C238.52909759 84.62519136 239.19581833 82.29197168 239.84375 79.94921875 C240.5625 77.5 240.5625 77.5 242 74 C244.60160153 72.75779387 245.95018392 72.98788067 248.76171875 73.671875 C249.72722656 74.02765625 250.69273437 74.3834375 251.6875 74.75 C252.66074219 75.09546875 253.63398437 75.4409375 254.63671875 75.796875 C257 77 257 77 258 80 C257.36669922 82.93237305 257.36669922 82.93237305 256.3046875 86.51171875 C256.11699799 87.15248352 255.92930847 87.79324829 255.7359314 88.45343018 C255.12404868 90.53405133 254.49981082 92.61072824 253.875 94.6875 C253.45218709 96.11448341 253.02998708 97.54164856 252.60839844 98.96899414 C249.83156003 108.34243728 246.96754805 117.68519641 244 127 C241.525 134.92 241.525 134.92 239 143 C257.48 143 275.96 143 295 143 C294.98839844 137.09222656 294.97679687 131.18445313 294.96484375 125.09765625 C294.959737 121.36523328 294.95492323 117.6328146 294.95117188 113.90039062 C294.9451834 107.97012442 294.93808297 102.03987358 294.92456055 96.10961914 C294.91373178 91.33101164 294.90772319 86.55242062 294.90512276 81.7738018 C294.90326849 79.94646381 294.89964784 78.11912676 294.89426994 76.29179573 C294.88705964 73.74146671 294.88600905 71.19120663 294.88647461 68.64086914 C294.88287933 67.87770386 294.87928406 67.11453857 294.87557983 66.32824707 C294.88594784 61.11405216 294.88594784 61.11405216 296 60 C298.86267567 59.92674832 301.700719 59.90761795 304.5625 59.9375 C305.36880859 59.94201172 306.17511719 59.94652344 307.00585938 59.95117188 C309.00393756 59.96299482 311.00197783 59.98093086 313 60 C313.11588634 72.15235089 313.20471195 84.30457016 313.25906086 96.45736122 C313.28514666 102.10051628 313.32052692 107.7432931 313.37719727 113.38623047 C313.43155215 118.83273406 313.46142819 124.278874 313.47438622 129.7256279 C313.48361976 131.8028778 313.50165092 133.88010796 313.52865028 135.95720291 C313.56498632 138.8685521 313.56994338 141.77840169 313.56762695 144.68994141 C313.58560333 145.54733917 313.60357971 146.40473694 313.62210083 147.28811646 C313.61522751 148.08729492 313.60835419 148.88647339 313.60127258 149.70986938 C313.60588155 150.39752695 313.61049051 151.08518452 313.61523914 151.79368019 C312.63218427 155.31903039 310.90195414 157.84089596 308 160 C304.90553004 160.86613609 301.92071701 160.80659243 298.72328186 160.75517273 C297.78558706 160.76382711 296.84789226 160.77248149 295.88178247 160.78139812 C292.73708106 160.80300265 289.59414573 160.78168515 286.44946289 160.76049805 C284.1955989 160.76699092 281.94174105 160.77605169 279.68789673 160.78749084 C273.56120127 160.81060457 267.43512756 160.79582866 261.30845189 160.77302146 C254.89145214 160.75411287 248.47449436 160.76526374 242.05747986 160.77192688 C230.57960456 160.77867913 219.10206742 160.75589823 207.62426423 160.72098748 C197.2411911 160.69016096 186.85843944 160.68768991 176.4753418 160.70678711 C163.1126884 160.73133639 149.75030973 160.73026211 136.38763237 160.70801735 C131.29425488 160.70005631 126.20102554 160.70199327 121.10765266 160.71204185 C115.09514891 160.72264829 109.08319154 160.70830739 103.07077408 160.67529869 C100.87229966 160.66713757 98.67377478 160.66732074 96.47530556 160.67677689 C76.46734753 160.75333523 62.57283198 157.19486283 47.625 143 C36.53387011 131.29897091 33.19883787 117.40067861 33.51171875 101.6328125 C33.52107721 100.21793893 33.52817891 98.80304884 33.53315735 97.38815308 C33.55198981 93.71519973 33.60087407 90.04328027 33.65667725 86.37072754 C33.70839281 82.60276262 33.73078138 78.83462593 33.75585938 75.06640625 C33.80902548 67.71047287 33.89403612 60.35538282 34 53 C32.221698 53.02356567 32.221698 53.02356567 30.4074707 53.04760742 C25.999988 53.10199565 21.59253485 53.13638246 17.18481445 53.16479492 C15.27883919 53.17986128 13.37289848 53.20031824 11.46704102 53.22631836 C8.72403424 53.26279642 5.98148672 53.27974792 3.23828125 53.29296875 C2.38913651 53.30845261 1.53999176 53.32393646 0.66511536 53.33988953 C-4.04946198 53.34122413 -7.19514247 53.10168248 -11 50 C-13 47 -13 47 -12.79516602 44.91723633 C-12.53276123 43.95454834 -12.27035645 42.99186035 -12 42 C-11.8142038 41.31835785 -11.62840759 40.6367157 -11.4369812 39.93441772 C-10.73394646 37.39264129 -10.00764266 34.85829293 -9.27734375 32.32421875 C-9.01240616 31.3990596 -8.74746857 30.47390045 -8.47450256 29.52070618 C-7.63069865 26.57576599 -6.78413767 23.63162661 -5.9375 20.6875 C-5.36375008 18.6869012 -4.7901803 16.68625074 -4.21679688 14.68554688 C-2.81328488 9.7897633 -1.40730024 4.89469592 0 0 Z " fill="#EBEBEB" transform="translate(350,657)"/>
<path d="M0 0 C1.02931641 -0.01224609 2.05863281 -0.02449219 3.11914062 -0.03710938 C14.35864105 -0.0584367 23.18166152 2.11846288 33.1875 7.1875 C34.36505859 7.77724609 34.36505859 7.77724609 35.56640625 8.37890625 C41.18142972 11.33777949 46.54708176 14.83230842 51.1875 19.1875 C51.1875 19.8475 51.1875 20.5075 51.1875 21.1875 C51.765 21.22875 52.3425 21.27 52.9375 21.3125 C56.35813103 22.6427454 57.29865377 25.09666071 59.1875 28.1875 C60.09405223 29.48628543 61.01072435 30.77806727 61.9375 32.0625 C62.68 33.09375 63.4225 34.125 64.1875 35.1875 C65.42242188 35.03152344 66.65734375 34.87554687 67.9296875 34.71484375 C83.86200524 32.96845253 98.83860456 32.41827941 113.1875 40.1875 C114.01765625 40.58195312 114.8478125 40.97640625 115.703125 41.3828125 C122.16981781 44.61615891 127.96961555 49.21187447 133.1875 54.1875 C133.5175 55.1775 133.8475 56.1675 134.1875 57.1875 C135.1775 57.5175 136.1675 57.8475 137.1875 58.1875 C151.08662012 73.52714517 151.53224878 94.80495743 151.1875 114.1875 C151.92613281 114.51621094 152.66476562 114.84492188 153.42578125 115.18359375 C169.28428181 122.61915501 181.1744434 134.04371872 188.1875 150.1875 C188.50589844 150.87199219 188.82429688 151.55648437 189.15234375 152.26171875 C190.43815761 155.08813908 191.1875 157.04629693 191.1875 160.1875 C185.5775 160.1875 179.9675 160.1875 174.1875 160.1875 C173.176875 158.2075 172.16625 156.2275 171.125 154.1875 C164.51639196 141.79674469 155.34066652 133.20515645 141.6875 128.9375 C140.7284375 128.68484375 139.769375 128.4321875 138.78125 128.171875 C135.72148454 127.01063871 134.21018818 125.74643574 132.1875 123.1875 C131.67905234 118.10302339 132.37426479 114.44507324 133.734375 109.51953125 C135.22354511 101.85544026 134.83133777 93.54067381 132.1875 86.1875 C131.8575 85.25164062 131.5275 84.31578125 131.1875 83.3515625 C126.21957839 70.37613566 118.30306496 61.44792141 105.75 55.375 C92.81705583 49.91442357 78.16995294 49.27281257 65 54.4375 C61.07498657 55.48417025 58.93625652 54.68207543 55.1875 53.1875 C53.0703125 50.5 53.0703125 50.5 51.3125 47.1875 C42.86330513 32.22005787 31.00989052 23.17135403 14.5625 18.4375 C-2.48997126 14.4939806 -18.45374636 18.05978573 -33.10253906 27.06835938 C-41.21326713 32.37669425 -46.3019536 38.72663431 -50.8125 47.1875 C-52.61947839 50.48217865 -54.12411853 52.77774912 -57.4375 54.75 C-61.6297592 55.29344101 -64.41986012 54.32167401 -68.37890625 52.9921875 C-81.28309442 48.72531308 -96.50325669 50.78542199 -108.5 56.75 C-121.28890567 64.27398392 -128.51921718 75.34166291 -132.8125 89.1875 C-135.07387509 98.04455242 -134.19977553 107.46407211 -131.8125 116.1875 C-130.64644834 120.56019373 -130.64644834 120.56019373 -131.375 123.3125 C-133.91751029 126.62881777 -137.44484488 127.738672 -141.3359375 129.015625 C-148.32835612 131.3268446 -153.33235297 134.28261703 -158.8125 139.1875 C-159.84697266 140.06535156 -159.84697266 140.06535156 -160.90234375 140.9609375 C-166.97229944 146.48331561 -170.18368891 152.92987782 -173.8125 160.1875 C-179.0925 160.1875 -184.3725 160.1875 -189.8125 160.1875 C-190.8125 158.1875 -190.8125 158.1875 -190.0625 155.75390625 C-184.12095574 141.47563269 -175.97275929 128.76445106 -162.8125 120.1875 C-162.1525 120.1875 -161.4925 120.1875 -160.8125 120.1875 C-160.8125 119.5275 -160.8125 118.8675 -160.8125 118.1875 C-157.5125 116.8675 -154.2125 115.5475 -150.8125 114.1875 C-150.82410156 112.60839844 -150.83570313 111.02929688 -150.84765625 109.40234375 C-150.85703942 107.30989702 -150.86613905 105.21744901 -150.875 103.125 C-150.88337891 102.08666016 -150.89175781 101.04832031 -150.90039062 99.97851562 C-150.96006357 81.18153895 -143.93818846 66.56428859 -130.8125 53.1875 C-129.61560547 51.93259766 -129.61560547 51.93259766 -128.39453125 50.65234375 C-114.97167476 37.83869406 -100.03509048 33.80906019 -82 33.9375 C-80.89462891 33.92976563 -79.78925781 33.92203125 -78.65039062 33.9140625 C-77.0503418 33.91792969 -77.0503418 33.91792969 -75.41796875 33.921875 C-74.46043701 33.92413086 -73.50290527 33.92638672 -72.51635742 33.92871094 C-69.6246151 34.20548266 -67.4429401 34.98415954 -64.8125 36.1875 C-64.22082031 35.37925781 -63.62914062 34.57101562 -63.01953125 33.73828125 C-62.22157382 32.65869178 -61.42338428 31.57927384 -60.625 30.5 C-59.84769531 29.44425781 -59.07039062 28.38851563 -58.26953125 27.30078125 C-52.99655569 20.61944338 -46.74454498 16.01534977 -39.8125 11.1875 C-39.14089844 10.70925781 -38.46929688 10.23101562 -37.77734375 9.73828125 C-26.05413305 1.84813732 -13.80020761 0.00854502 0 0 Z " fill="#EBEBEB" transform="translate(607.8125,356.8125)"/>
<path d="M0 0 C10.4401743 -0.04640288 20.88032394 -0.08190961 31.32058048 -0.10362434 C36.1687542 -0.11404792 41.01685721 -0.12818108 45.86499023 -0.15087891 C50.54637278 -0.17265813 55.22768743 -0.18457936 59.90911674 -0.18975449 C61.69242865 -0.19344112 63.47573696 -0.20064019 65.25901985 -0.21146011 C67.76268583 -0.22604257 70.26607357 -0.22797513 72.76977539 -0.22705078 C73.50201828 -0.23424133 74.23426117 -0.24143188 74.98869324 -0.24884033 C79.65776547 -0.23026772 83.55827755 0.62132817 88 2 C90.69341482 2.18333554 93.25165163 2.28599557 95.9375 2.25 C96.64624268 2.24613281 97.35498535 2.24226562 98.08520508 2.23828125 C101.58485856 2.18018902 104.82879922 2.00473955 108.1875 1 C113.82095457 -0.47762743 119.23960164 -1.10420505 125 0 C127.59733976 2.18883797 128.5918963 4.95868759 130 8 C137.08390119 19.17574366 145.72744654 26.95082354 158 32 C158.95261719 32.39316406 159.90523437 32.78632812 160.88671875 33.19140625 C172.72109246 37.45296868 186.35023329 38.08353457 198 33 C199.49812205 32.55611198 200.99820146 32.11878574 202.5 31.6875 C217.76259348 26.56457732 227.61244713 13.59309728 235 0 C241.50149933 -0.1783948 247.36518812 -0.32755578 253.64453125 1.546875 C257.08451454 2.20862966 260.50949505 2.23083237 264 2.25 C264.66491455 2.25902344 265.3298291 2.26804687 266.01489258 2.27734375 C269.47974834 2.25688955 272.18758492 1.94693321 275.5625 0.9921875 C281.88177166 -0.7391198 288.50581946 -0.2076879 295 -0.125 C296.36067049 -0.11494978 297.72134817 -0.10582754 299.08203125 -0.09765625 C302.38820647 -0.0742082 305.6940088 -0.04138856 309 0 C305.29336108 8.0388446 295.9076627 11.92002268 288 15 C287.3090625 15.28746094 286.618125 15.57492187 285.90625 15.87109375 C278.61831595 18.80028263 271.46356115 19.16222459 263.6875 19.125 C262.84807861 19.12886719 262.00865723 19.13273438 261.14379883 19.13671875 C256.69186993 19.12981453 252.57269248 18.84227782 248.1875 18 C245.96685365 17.65490233 245.96685365 17.65490233 244 18 C242.15305339 19.58169364 241.0835568 21.29095973 239.79296875 23.3515625 C229.37725161 38.73687017 212.84966546 48.27556815 194.9375 52.25 C172.54278245 55.7960965 152.21554002 50.85519145 133.8125 37.8125 C130.26633908 35.09413267 126.90315402 32.40369782 124 29 C124 28.34 124 27.68 124 27 C123.34 27 122.68 27 122 27 C120.4921875 25.03125 120.4921875 25.03125 118.875 22.5 C118.33617187 21.6646875 117.79734375 20.829375 117.2421875 19.96875 C116.83226562 19.3190625 116.42234375 18.669375 116 18 C114.14375 18.2475 114.14375 18.2475 112.25 18.5 C88.98079491 20.75079082 69.75616849 17.63896078 51 3 C50.443125 3.54269531 49.88625 4.08539062 49.3125 4.64453125 C41.00263063 12.43503378 35.23048103 14.50233875 23.85864258 14.34545898 C13.78457482 13.978636 9.28864695 10.82949698 1.90625 4.05859375 C0 2 0 2 0 0 Z " fill="#E9E9E9" transform="translate(428,657)"/>
<path d="M0 0 C2.57039286 1.36637783 5.1765142 2.65876789 7.78564453 3.94921875 C7.78564453 4.60921875 7.78564453 5.26921875 7.78564453 5.94921875 C8.34251953 6.19671875 8.89939453 6.44421875 9.47314453 6.69921875 C17.96250968 11.28806477 24.05880618 19.71915623 28.78564453 27.94921875 C28.78564453 28.60921875 28.78564453 29.26921875 28.78564453 29.94921875 C29.44564453 29.94921875 30.10564453 29.94921875 30.78564453 29.94921875 C31.93703488 33.1764309 33.08076379 36.40630747 34.22314453 39.63671875 C34.54863281 40.54873047 34.87412109 41.46074219 35.20947266 42.40039062 C35.52207031 43.28662109 35.83466797 44.17285156 36.15673828 45.0859375 C36.44476318 45.89764404 36.73278809 46.70935059 37.02954102 47.5456543 C39.17612337 54.369388 38.85748573 60.83694053 38.78564453 67.94921875 C33.17564453 67.94921875 27.56564453 67.94921875 21.78564453 67.94921875 C20.7077738 64.71560657 20.37066371 61.77120448 19.97314453 58.38671875 C19.10379859 52.06598551 17.53639597 46.68711434 14.78564453 40.94921875 C14.45564453 40.21960938 14.12564453 39.49 13.78564453 38.73828125 C12.90934453 36.77667578 12.90934453 36.77667578 10.78564453 35.94921875 C10.24939453 34.93859375 9.71314453 33.92796875 9.16064453 32.88671875 C2.28795915 20.6212328 -11.0847275 13.67713184 -24.21435547 9.94921875 C-27.03929058 9.39349381 -29.38243329 9.06559911 -32.21435547 8.94921875 C-33.27654297 8.89765625 -34.33873047 8.84609375 -35.43310547 8.79296875 C-43.24637877 8.58914423 -49.84464291 9.37708842 -57.21435547 11.94921875 C-58.03291016 12.20445312 -58.85146484 12.4596875 -59.69482422 12.72265625 C-73.51666156 17.51305456 -84.30999602 28.43904096 -91.33056641 41.05273438 C-92.87589329 44.36878389 -93.60072728 47.81882347 -94.33935547 51.38671875 C-94.65391544 52.82303596 -94.96901776 54.25923449 -95.28466797 55.6953125 C-95.48213623 56.63395142 -95.48213623 56.63395142 -95.68359375 57.59155273 C-96.46416826 61.05889772 -97.35235445 64.50121468 -98.21435547 67.94921875 C-103.82435547 67.94921875 -109.43435547 67.94921875 -115.21435547 67.94921875 C-118.29923523 52.52481992 -110.56815681 35.62347423 -102.22607422 22.921875 C-97.27406817 15.97414523 -92.02611293 10.37754457 -85.21435547 5.19921875 C-84.20373047 4.420625 -83.19310547 3.64203125 -82.15185547 2.83984375 C-79.34500561 1.03330741 -77.49314016 0.31084941 -74.21435547 -0.05078125 C-74.21435547 -0.71078125 -74.21435547 -1.37078125 -74.21435547 -2.05078125 C-49.13117989 -13.0873785 -24.22381866 -12.98781695 0 0 Z " fill="#E4CF07" transform="translate(646.21435546875,450.05078125)"/>
<path d="M0 0 C4.29 0 8.58 0 13 0 C16.16433322 3.43712057 17.80681042 5.98304935 20 10 C21.39581239 12.20823259 22.82540467 14.3917465 24.26293945 16.57299805 C26.53312086 20.03271612 28.76232361 23.51917006 31 27 C31.33 18.09 31.66 9.18 32 0 C36.29 0 40.58 0 45 0 C45 16.17 45 32.34 45 49 C31 49 31 49 27.85009766 46.61328125 C27.21120605 45.52402344 26.57231445 44.43476562 25.9140625 43.3125 C25.556539 42.73540283 25.1990155 42.15830566 24.83065796 41.5637207 C23.7120681 39.7341048 22.66996921 37.87243789 21.625 36 C20.87447322 34.74458518 20.11929651 33.49193793 19.359375 32.2421875 C17.50684625 29.19239126 15.76383387 26.10913088 14 23 C13.67 31.58 13.34 40.16 13 49 C8.71 49 4.42 49 0 49 C0 32.83 0 16.66 0 0 Z " fill="#E8E8E8" transform="translate(594,542)"/>
<path d="M0 0 C13 0 13 0 16.2109375 3.1484375 C16.98228875 4.53055151 17.70340839 5.94175661 18.375 7.375 C21.88984819 14.01415768 25.60918293 19.72740418 30 26 C30.33 17.42 30.66 8.84 31 0 C35.29 0 39.58 0 44 0 C44 16.17 44 32.34 44 49 C39.71 49 35.42 49 31 49 C28.01960346 45.79718581 26.11092672 43.51356551 24.04931641 39.83740234 C22.46510855 37.06337993 20.72922942 34.3892431 19.00854492 31.69848633 C16.97623883 28.48409444 14.99312695 25.2388313 13 22 C12.67 30.91 12.34 39.82 12 49 C8.04 49 4.08 49 0 49 C0 32.83 0 16.66 0 0 Z " fill="#EFEFEF" transform="translate(387,542)"/>
<path d="M0 0 C13 0 13 0 16.2109375 3.1484375 C16.98228875 4.53055151 17.70340839 5.94175661 18.375 7.375 C21.88984819 14.01415768 25.60918293 19.72740418 30 26 C30.33 17.42 30.66 8.84 31 0 C35.29 0 39.58 0 44 0 C44 16.17 44 32.34 44 49 C39.71 49 35.42 49 31 49 C28.01960346 45.79718581 26.11092672 43.51356551 24.04931641 39.83740234 C22.46510855 37.06337993 20.72922942 34.3892431 19.00854492 31.69848633 C16.97623883 28.48409444 14.99312695 25.2388313 13 22 C12.67 30.91 12.34 39.82 12 49 C8.04 49 4.08 49 0 49 C0 32.83 0 16.66 0 0 Z " fill="#F0F0F0" transform="translate(335,542)"/>
<path d="M0 0 C5.18020696 4.73383992 8.57861815 9.98386681 9.31640625 17.015625 C9.61207981 25.21818186 8.7778405 31.72067624 3.234375 38 C-2.45824768 43.37885608 -8.0477612 46.04613806 -15.875 46.4375 C-22.72914271 46.20515618 -28.59867026 43.98370718 -33.875 39.625 C-40.93407311 30.90496851 -41.78668362 23.9109597 -41 13 C-39.35575195 6.2449682 -34.48732731 1.95879325 -29 -2 C-19.94539323 -6.74288926 -8.31217129 -5.9168359 0 0 Z M-26 11 C-28.93709584 15.63118867 -28.62831983 20.70525606 -28 26 C-26.39142924 29.27459047 -25.08955988 31.14391724 -22.25 33.375 C-17.03362133 34.82399408 -13.35103481 34.70053657 -8.625 32.25 C-5.38506139 29.47290976 -4.18682585 27.62805384 -3.69921875 23.37890625 C-3.49085573 16.09855568 -3.49085573 16.09855568 -7 10 C-13.87378222 5.46955263 -19.69909969 5.72482765 -26 11 Z " fill="#EAEAEA" transform="translate(478,546)"/>
<path d="M0 0 C5.44681296 4.20890092 7.43936552 9.65214869 8.30322266 16.3515625 C8.43574921 18.7221499 8.46796694 21.06349674 8.4375 23.4375 C8.42992676 24.26717285 8.42235352 25.0968457 8.41455078 25.95166016 C8.22559434 32.98442577 7.35802178 39.25620026 2.50390625 44.66796875 C-2.83397777 49.42014978 -7.9364862 49.345672 -14.76171875 49.27734375 C-19.37614746 48.88213936 -21.40025092 47.91043542 -25 45 C-32.3421016 36.07041697 -31.74183223 24.92445568 -31 14 C-30.08268605 7.19734508 -27.25442515 3.65686255 -22.03515625 -0.6875 C-15.36108901 -4.99169692 -6.59556899 -3.67829809 0 0 Z M-16.375 10.6875 C-20.11257339 16.00635444 -19.48143417 22.74951575 -19 29 C-18.18787643 31.93958838 -17.20628809 34.79371191 -15 37 C-11.58399407 37.41692853 -11.58399407 37.41692853 -8 37 C-5.03135199 34.13030692 -4.08525105 31.21318805 -3.796875 27.109375 C-3.4928194 18.04572303 -3.4928194 18.04572303 -7 10 C-10.99414461 8.62020459 -12.86285803 8.1920307 -16.375 10.6875 Z " fill="#ECECEC" transform="translate(840,542)"/>
<path d="M0 0 C1.93166016 0.01740234 1.93166016 0.01740234 3.90234375 0.03515625 C5.19269531 0.04417969 6.48304688 0.05320312 7.8125 0.0625 C8.81152344 0.07410156 9.81054688 0.08570313 10.83984375 0.09765625 C14.86705074 9.37554009 18.35845838 18.81191289 21.77124023 28.32885742 C22.66489462 30.82014498 23.56357013 33.309581 24.46289062 35.79882812 C25.03284169 37.38140615 25.60251394 38.96408462 26.171875 40.546875 C26.57488579 41.66385017 26.57488579 41.66385017 26.98603821 42.8033905 C28.83984375 47.98168043 28.83984375 47.98168043 28.83984375 49.09765625 C24.21984375 49.09765625 19.59984375 49.09765625 14.83984375 49.09765625 C12.83984375 44.09765625 12.83984375 44.09765625 12.83984375 41.09765625 C6.89984375 41.09765625 0.95984375 41.09765625 -5.16015625 41.09765625 C-5.82015625 43.73765625 -6.48015625 46.37765625 -7.16015625 49.09765625 C-11.78015625 49.09765625 -16.40015625 49.09765625 -21.16015625 49.09765625 C-17.29573322 37.99063907 -13.3981985 26.89523381 -9.46087646 15.81384277 C-9.00988643 14.54328192 -8.55989655 13.27236563 -8.11090088 12.00109863 C-7.47642211 10.205488 -6.83790849 8.41130463 -6.19921875 6.6171875 C-5.83006348 5.57667236 -5.4609082 4.53615723 -5.08056641 3.46411133 C-3.77864956 0.11676915 -3.77864956 0.11676915 0 0 Z M2.83984375 16.09765625 C2.16764024 18.03324224 1.50226298 19.97119997 0.83984375 21.91015625 C0.46859375 22.98910156 0.09734375 24.06804688 -0.28515625 25.1796875 C-1.30377137 28.06886427 -1.30377137 28.06886427 -1.16015625 31.09765625 C2.13984375 31.09765625 5.43984375 31.09765625 8.83984375 31.09765625 C8.3868951 29.34625482 7.92725627 27.59658281 7.46484375 25.84765625 C7.20960938 24.873125 6.954375 23.89859375 6.69140625 22.89453125 C5.94385866 20.43928322 5.06860558 18.3414822 3.83984375 16.09765625 C3.50984375 16.09765625 3.17984375 16.09765625 2.83984375 16.09765625 Z " fill="#ECECEC" transform="translate(561.16015625,541.90234375)"/>
<path d="M0 0 C4.25774679 3.02278482 7.34209283 6.63620546 9.3125 11.5 C9.3125 12.49 9.3125 13.48 9.3125 14.5 C7.06356046 14.60823773 4.81312425 14.68569645 2.5625 14.75 C0.68304687 14.81960938 0.68304687 14.81960938 -1.234375 14.890625 C-5.29884386 14.43084346 -6.07041923 13.48198963 -8.6875 10.5 C-12.47742009 9.12116227 -15.74807929 9.14510773 -19.5 10.5625 C-22.70071894 13.39742249 -24.34906675 16.17732794 -24.97265625 20.45703125 C-25.17933057 25.15662563 -24.34837539 28.50868692 -21.6875 32.5 C-18.74323006 34.89903477 -15.34079203 34.96357856 -11.60546875 34.90234375 C-9.36383347 34.63659174 -9.36383347 34.63659174 -7.5625 32 C-2.75677472 27.82110845 3.20650988 29.12818734 9.3125 29.5 C8.59870167 35.99834587 6.00201107 39.14751745 1.3125 43.5 C-5.24844357 47.56778501 -12.36206407 48.51481209 -19.921875 47.07421875 C-26.86141776 45.12396794 -32.34654042 41.43017439 -36.07421875 35.171875 C-39.72969795 27.01438458 -39.89460501 18.95190203 -36.72265625 10.6015625 C-34.02039228 5.11545677 -29.92676924 0.65416857 -24.28125 -1.83203125 C-16.33945537 -3.87728258 -7.2958972 -4.00344584 0 0 Z " fill="#EAEAEA" transform="translate(682.6875,544.5)"/>
<path d="M0 0 C4.62 0 9.24 0 14 0 C17.63 10.89 21.26 21.78 25 33 C28.17499536 25.16649352 28.17499536 25.16649352 30.88671875 17.24609375 C31.18513672 16.29025391 31.48355469 15.33441406 31.79101562 14.34960938 C32.08685547 13.38861328 32.38269531 12.42761719 32.6875 11.4375 C33.2927805 9.47700028 33.90070493 7.51731419 34.51171875 5.55859375 C34.77428467 4.70579834 35.03685059 3.85300293 35.30737305 2.97436523 C36 1 36 1 37 0 C39.18639453 -0.07258946 41.37500389 -0.08373783 43.5625 -0.0625 C45.35880859 -0.04896484 45.35880859 -0.04896484 47.19140625 -0.03515625 C48.11824219 -0.02355469 49.04507813 -0.01195312 50 0 C49.32448859 5.55086763 47.54593747 10.51138167 45.65625 15.73828125 C45.32709595 16.65965378 44.99794189 17.58102631 44.65881348 18.53031921 C43.96522404 20.4684257 43.26917061 22.40565195 42.57080078 24.34204102 C41.49813443 27.31767519 40.43403204 30.29626938 39.37109375 33.27539062 C38.69581353 35.15903386 38.02004932 37.04250367 37.34375 38.92578125 C37.02394165 39.82049637 36.7041333 40.71521149 36.37463379 41.63703918 C36.07762573 42.45846909 35.78061768 43.27989899 35.47460938 44.1262207 C35.08275452 45.21493217 35.08275452 45.21493217 34.6829834 46.32563782 C34 48 34 48 33 49 C30.30345146 49.07319621 27.63308542 49.09242537 24.9375 49.0625 C23.79958008 49.05573242 23.79958008 49.05573242 22.63867188 49.04882812 C20.75908129 49.0370068 18.87953101 49.01907078 17 49 C14.89751206 43.14775726 12.79799574 37.29446008 10.70117188 31.44018555 C9.98811191 29.45063824 9.2742546 27.46137651 8.55957031 25.47241211 C7.5297783 22.60606207 6.50290075 19.73868199 5.4765625 16.87109375 C5.15877838 15.98852402 4.84099426 15.10595428 4.51358032 14.19664001 C2.83602479 9.50007552 1.3067619 4.81333476 0 0 Z " fill="#EAEAEA" transform="translate(489,542)"/>
<path d="M0 0 C4.14989888 2.36778504 6.04667982 4.70253947 7.5625 9.25 C8.4512317 17.45255647 6.90373082 22.94748699 1.87890625 29.41796875 C-1.0569038 32.88411868 -3.76720466 35.4972785 -7.4375 38.25 C-2.1575 38.58 3.1225 38.91 8.5625 39.25 C8.5625 42.88 8.5625 46.51 8.5625 50.25 C-3.3175 50.25 -15.1975 50.25 -27.4375 50.25 C-27.4375 40.25 -27.4375 40.25 -24.3671875 36.74609375 C-23.03596427 35.70014448 -21.68317512 34.68118752 -20.3125 33.6875 C-18.92736156 32.58722752 -17.54834805 31.4791972 -16.17578125 30.36328125 C-15.52174316 29.83428223 -14.86770508 29.3052832 -14.19384766 28.76025391 C-10.26374035 25.38082052 -7.00140806 21.36324241 -6.0625 16.1796875 C-5.93720741 14.06339107 -5.93720741 14.06339107 -6.4375 11.25 C-7.50395115 9.95366379 -7.50395115 9.95366379 -10 10.1875 C-10.804375 10.208125 -11.60875 10.22875 -12.4375 10.25 C-13.4275 12.23 -14.4175 14.21 -15.4375 16.25 C-19.3975 16.25 -23.3575 16.25 -27.4375 16.25 C-27.10729198 9.97604765 -26.00839738 5.73779016 -21.4375 1.25 C-14.7526148 -2.81336159 -7.10286063 -3.30335246 0 0 Z " fill="#E7E7E7" transform="translate(776.4375,540.75)"/>
<path d="M0 0 C9.9 0 19.8 0 30 0 C30 3.3 30 6.6 30 10 C24.39 10 18.78 10 13 10 C13 12.97 13 15.94 13 19 C17.95 19 22.9 19 28 19 C28 22.3 28 25.6 28 29 C23.05 29 18.1 29 13 29 C13 32.3 13 35.6 13 39 C18.61 39 24.22 39 30 39 C30 42.3 30 45.6 30 49 C20.1 49 10.2 49 0 49 C0 32.83 0 16.66 0 0 Z " fill="#F0F0F0" transform="translate(699,542)"/>
<path d="M0 0 C4.29 0 8.58 0 13 0 C13 16.17 13 32.34 13 49 C8.71 49 4.42 49 0 49 C0 32.83 0 16.66 0 0 Z " fill="#E7E7E7" transform="translate(314,542)"/>
<path d="M0 0 C4.95 0 9.9 0 15 0 C18 3 18 3 18.35644531 5.63208008 C18.34709961 6.66743896 18.33775391 7.70279785 18.328125 8.76953125 C18.32296875 9.90583984 18.3178125 11.04214844 18.3125 12.21289062 C18.291875 13.40076172 18.27125 14.58863281 18.25 15.8125 C18.24484375 16.98876953 18.2396875 18.16503906 18.234375 19.37695312 C18.18548573 24.78227274 17.89444359 29.63333843 17 35 C11.39 35 5.78 35 0 35 C0 23.45 0 11.9 0 0 Z " fill="#CBB80C" transform="translate(599,393)"/>
<path d="M0 0 C2.93879484 1.35236577 5.29232911 2.89942659 7.75 5 C8.67039062 5.7734375 8.67039062 5.7734375 9.609375 6.5625 C11 8 11 8 11 10 C11.82757812 10.33644531 11.82757812 10.33644531 12.671875 10.6796875 C15.71211744 12.40385183 17.81425673 14.62515822 20.25 17.125 C21.14203125 18.03507812 22.0340625 18.94515625 22.953125 19.8828125 C23.62859375 20.58148438 24.3040625 21.28015625 25 22 C23.46781315 25.63061667 21.2816856 27.9863773 18.5 30.75 C17.7059375 31.54921875 16.911875 32.3484375 16.09375 33.171875 C14 35 14 35 12 35 C10.27034764 33.37617723 8.64075618 31.71164394 7 30 C5.52749129 28.521993 4.0519508 27.04700338 2.57421875 25.57421875 C-1.95052083 21.04947917 -6.47526042 16.52473958 -11 12 C-8.70744378 8.37857269 -6.59158713 5.32397422 -3.25 2.625 C-2.63640625 2.12226563 -2.0228125 1.61953125 -1.390625 1.1015625 C-0.93171875 0.73804688 -0.4728125 0.37453125 0 0 Z " fill="#E3CD09" transform="translate(520,428)"/>
<path d="M0 0 C3.63303084 1.69586126 5.94549046 3.73800488 8.75 6.625 C9.54921875 7.44226563 10.3484375 8.25953125 11.171875 9.1015625 C11.77515625 9.72804688 12.3784375 10.35453125 13 11 C11.00396268 13.33682418 9.00367433 15.66973558 7 18 C6.43539062 18.66 5.87078125 19.32 5.2890625 20 C2.38924396 23.35906582 -0.55751647 26.66778294 -3.625 29.875 C-4.15351562 30.42929687 -4.68203125 30.98359375 -5.2265625 31.5546875 C-7 33 -7 33 -12 35 C-15.63 31.37 -19.26 27.74 -23 24 C-18.32533663 18.37696243 -13.32234333 13.20258446 -8.125 8.0625 C-7.34125 7.28326172 -6.5575 6.50402344 -5.75 5.70117188 C-3.83561419 3.79845915 -1.91891966 1.89813829 0 0 Z " fill="#DEC808" transform="translate(695,427)"/>
<path d="M0 0 C1.38903267 1.62053812 2.71332828 3.29705213 4 5 C6.55194674 8.53669544 6.55194674 8.53669544 10 11 C9.38766587 14.62435605 7.85153793 16.74083483 5.625 19.625 C2.01551073 24.60565049 0.44574762 29.04692156 -1 35 C-6.61 35 -12.22 35 -18 35 C-18.25345046 26.63613475 -16.71339903 21.13491114 -12.875 13.625 C-12.33617187 12.56539063 -11.79734375 11.50578125 -11.2421875 10.4140625 C-10.83226562 9.61742187 -10.42234375 8.82078125 -10 8 C-9.34 8 -8.68 8 -8 8 C-7.7525 7.4225 -7.505 6.845 -7.25 6.25 C-5.58207452 3.24773413 -3.67725381 0 0 0 Z " fill="#E7D206" transform="translate(579,482)"/>
<path d="M0 0 C16.5 0 33 0 50 0 C47.08479666 5.83040667 43.24167268 8.77726945 37.5625 11.875 C29.94895708 14.3780826 18.16333579 14.59367563 10.81640625 11.19140625 C6.84396369 8.58582564 3.2103996 5.50022734 0 2 C0 1.34 0 0.68 0 0 Z " fill="#F2F2F2" transform="translate(429,658)"/>
<path d="M0 0 C0.02691685 2.45840605 0.04679802 4.91651882 0.0625 7.375 C0.07087891 8.07367188 0.07925781 8.77234375 0.08789062 9.4921875 C0.11328125 14.7734375 0.11328125 14.7734375 -1 17 C-3.1796875 17.8515625 -3.1796875 17.8515625 -5.875 18.625 C-7.20144531 19.01558594 -7.20144531 19.01558594 -8.5546875 19.4140625 C-11 20 -11 20 -14 20 C-16.31 15.05 -18.62 10.1 -21 5 C-15.97909757 -0.02090243 -6.84553747 -3.42276874 0 0 Z " fill="#D8C50C" transform="translate(609,472)"/>
<path d="M0 0 C1.9375 0.5625 1.9375 0.5625 4 2 C4.75 5.625 4.75 5.625 5 9 C6.65 9.33 8.3 9.66 10 10 C10 10.99 10 11.98 10 13 C10.78375 13.103125 11.5675 13.20625 12.375 13.3125 C15 14 15 14 17 17 C16.67 17.99 16.34 18.98 16 20 C13.04215769 21.22393475 11.00272755 20.96516243 8 20 C8 20.99 8 21.98 8 23 C6.02 23.99 6.02 23.99 4 25 C4 23.68 4 22.36 4 21 C2.35 20.67 0.7 20.34 -1 20 C-1 18.68 -1 17.36 -1 16 C-1.61875 15.9175 -2.2375 15.835 -2.875 15.75 C-5 15 -5 15 -6.1875 13 C-6.455625 12.34 -6.72375 11.68 -7 11 C-7.33 10.67 -7.66 10.34 -8 10 C-7.04367001 8.70684939 -6.08486149 7.41553147 -5.125 6.125 C-4.59132813 5.40570313 -4.05765625 4.68640625 -3.5078125 3.9453125 C-2 2 -2 2 0 0 Z " fill="#E8D206" transform="translate(520,428)"/>
<path d="M0 0 C2.14875399 1.84178914 2.92991554 3.21863279 3.18359375 6.046875 C3.18711381 8.03219032 3.09914207 10.01715856 3 12 C1.68 11.67 0.36 11.34 -1 11 C-0.67 10.67 -0.34 10.34 0 10 C-2.31 9.67 -4.62 9.34 -7 9 C-7 8.01 -7 7.02 -7 6 C-7.66 6 -8.32 6 -9 6 C-9.33 6.99 -9.66 7.98 -10 9 C-10.53625 9.474375 -11.0725 9.94875 -11.625 10.4375 C-13.25474704 11.9200437 -13.25474704 11.9200437 -12.875 14.125 C-12.58625 14.74375 -12.2975 15.3625 -12 16 C-11.01 16.33 -10.02 16.66 -9 17 C-9 18.98 -9 20.96 -9 23 C-9.99 23 -10.98 23 -12 23 C-12 23.99 -12 24.98 -12 26 C-12.66 26 -13.32 26 -14 26 C-14 26.66 -14 27.32 -14 28 C-17.44738372 26.46782946 -20.25309882 24.59429556 -23 22 C-23 20.68 -23 19.36 -23 18 C-22.34 17.67 -21.68 17.34 -21 17 C-20.2884375 15.329375 -20.2884375 15.329375 -19.5625 13.625 C-17.08050295 7.86676685 -14.51729385 6.75864693 -9 4 C-8.67 3.34 -8.34 2.68 -8 2 C-4.9681144 0.11813998 -3.75482645 0 0 0 Z " fill="#E7D20B" transform="translate(699,431)"/>
<path d="M0 0 C1.32 0 2.64 0 4 0 C5.78574043 2.31791473 7.26882294 4.50081525 8.75 7 C9.36681641 8.00160156 9.36681641 8.00160156 9.99609375 9.0234375 C11.01028343 10.67444395 12.00684598 12.3362548 13 14 C12.98839844 13.40832031 12.97679687 12.81664062 12.96484375 12.20703125 C12.91677614 7.99768215 12.93993117 4.1077667 14 0 C14.99 0 15.98 0 17 0 C17 6.93 17 13.86 17 21 C12 20 12 20 9.98046875 17.49609375 C9.38878906 16.48675781 8.79710937 15.47742188 8.1875 14.4375 C7.28064453 12.91962891 7.28064453 12.91962891 6.35546875 11.37109375 C5.90816406 10.58863281 5.46085937 9.80617188 5 9 C4.67 12.96 4.34 16.92 4 21 C2.68 21 1.36 21 0 21 C0 14.07 0 7.14 0 0 Z " fill="#ABAB23" transform="translate(372,616)"/>
<path d="M0 0 C5 1 5 1 7.23828125 3.72265625 C8.26501953 5.37587891 8.26501953 5.37587891 9.3125 7.0625 C10.00988281 8.16722656 10.70726562 9.27195312 11.42578125 10.41015625 C11.94527344 11.26480469 12.46476562 12.11945312 13 13 C13.33 8.71 13.66 4.42 14 0 C14.99 0 15.98 0 17 0 C17 6.93 17 13.86 17 21 C15.68 21 14.36 21 13 21 C10.859375 18.375 10.859375 18.375 8.75 15 C8.04359375 13.88625 7.3371875 12.7725 6.609375 11.625 C6.07828125 10.75875 5.5471875 9.8925 5 9 C4.67 12.96 4.34 16.92 4 21 C2.68 21 1.36 21 0 21 C0 14.07 0 7.14 0 0 Z " fill="#ABAB1D" transform="translate(351,616)"/>
<path d="M0 0 C11.71428571 0 11.71428571 0 16 3 C18.40467242 5.95118888 18.41186021 9.29107729 18.328125 13.03125 C17.80947233 16.14316604 16.21445226 17.85067869 14 20 C11.23547967 21.38226016 8.9538637 21.09525387 5.875 21.0625 C2.966875 21.0315625 2.966875 21.0315625 0 21 C0 14.07 0 7.14 0 0 Z M4 3 C4 7.95 4 12.9 4 18 C10.38427943 18.62422743 10.38427943 18.62422743 12.875 16.8125 C14.33551279 14.45945162 14.80213778 12.7700711 15 10 C13.93600927 6.18736653 13.3748349 5.24988993 10 3 C8.02 3 6.04 3 4 3 Z " fill="#C1C32A" transform="translate(683,616)"/>
<path d="M0 0 C2.46615278 1.84961459 3.49544028 3.48974064 4.75 6.3125 C5.28931658 11.34612145 4.77273442 14.24343444 1.75 18.3125 C-0.73358626 20.79608626 -2.79267338 20.99617701 -6.21875 21.34375 C-10.14832087 21.28329506 -12.27196213 19.18936153 -15.0625 16.6875 C-16.92761359 12.95727281 -17.04901522 9.3874776 -16.25 5.3125 C-11.7239422 -0.40462564 -7.20586758 -2.20179287 0 0 Z M-12.25 5.3125 C-13.14262284 8.81923258 -13.62031613 11.23003746 -12.4375 14.6875 C-11.33014273 16.46338244 -11.33014273 16.46338244 -9.25 17.3125 C-4.62634809 17.70596021 -4.62634809 17.70596021 -0.3125 16.3125 C1.40841319 13.07313399 1.38857688 9.83886345 0.75 6.3125 C-0.77277007 3.70529682 -0.77277007 3.70529682 -3.25 2.3125 C-7.21034806 1.61943909 -9.54775749 2.32073151 -12.25 5.3125 Z " fill="#C0C32E" transform="translate(408.25,616.6875)"/>
<path d="M0 0 C10 0 10 0 14 3 C15.02840004 5.86482868 15.25205094 7.32140132 14.1875 10.1875 C13 12 13 12 11 14 C12.32 16.31 13.64 18.62 15 21 C13.35 21 11.7 21 10 21 C9.0234375 19.20963542 8.046875 17.41927083 7.0703125 15.62890625 C6.08589976 13.83381685 6.08589976 13.83381685 4 13 C4 15.64 4 18.28 4 21 C2.68 21 1.36 21 0 21 C0 14.07 0 7.14 0 0 Z M4 3 C4 5.31 4 7.62 4 10 C5.98 10 7.96 10 10 10 C10.33 8.35 10.66 6.7 11 5 C8.35261084 3.5393715 7.10551666 3 4 3 Z " fill="#A6A81B" transform="translate(554,616)"/>
<path d="M0 0 C1.38903267 1.62053812 2.71332828 3.29705213 4 5 C6.55194674 8.53669544 6.55194674 8.53669544 10 11 C9.38801624 14.43950364 8.07941153 16.51564485 5.9375 19.25 C5.38964844 19.95640625 4.84179688 20.6628125 4.27734375 21.390625 C3.85582031 21.92171875 3.43429687 22.4528125 3 23 C2.1031286 20.3093858 1.72140874 18.11102904 1.4375 15.3125 C1.35371094 14.50425781 1.26992188 13.69601562 1.18359375 12.86328125 C1.12300781 12.24839844 1.06242188 11.63351562 1 11 C-1.64 11.66 -4.28 12.32 -7 13 C-7 12.34 -7 11.68 -7 11 C-7.66 11 -8.32 11 -9 11 C-9.309375 11.61875 -9.61875 12.2375 -9.9375 12.875 C-10.625 14.25 -11.3125 15.625 -12 17 C-12.66 16.67 -13.32 16.34 -14 16 C-12.68 13.36 -11.36 10.72 -10 8 C-9.34 8 -8.68 8 -8 8 C-7.7525 7.4225 -7.505 6.845 -7.25 6.25 C-5.58207452 3.24773413 -3.67725381 0 0 0 Z " fill="#DCC80C" transform="translate(579,482)"/>
<path d="M0 0 C9 0 9 0 13 2 C14.40457737 4.80915474 14.24895157 6.88810534 14 10 C12.5 12.375 12.5 12.375 11 14 C11.7425 15.175625 11.7425 15.175625 12.5 16.375 C14 19 14 19 14 21 C13.01 21.33 12.02 21.66 11 22 C6.57142857 16.85714286 6.57142857 16.85714286 6 13 C5.01 13 4.02 13 3 13 C3 15.64 3 18.28 3 21 C2.01 21.33 1.02 21.66 0 22 C0 14.74 0 7.48 0 0 Z M3 3 C3 5.31 3 7.62 3 10 C4.99954746 10.04254356 7.00041636 10.04080783 9 10 C10.28322547 8.9404123 10.28322547 8.9404123 10.125 6.5 C10.28322547 4.0595877 10.28322547 4.0595877 9 3 C7.00041636 2.95919217 4.99954746 2.95745644 3 3 Z " fill="#D6D62E" transform="translate(774,616)"/>
<path d="M0 0 C2.27248124 1.76748541 2.83423232 3.61048569 3.6875 6.3125 C-1.0625 5.5625 -1.0625 5.5625 -3.3125 3.3125 C-6.84144948 3.39993691 -6.84144948 3.39993691 -10.3125 4.3125 C-12.54801759 7.66577639 -12.48533528 8.21993657 -11.9375 12 C-11.82664062 12.80824219 -11.71578125 13.61648438 -11.6015625 14.44921875 C-11.50617187 15.06410156 -11.41078125 15.67898438 -11.3125 16.3125 C-9.85457116 16.36649736 -8.39607288 16.40529177 -6.9375 16.4375 C-6.12539063 16.46070313 -5.31328125 16.48390625 -4.4765625 16.5078125 C-2.09907757 16.52620051 -2.09907757 16.52620051 -0.3125 14.3125 C1.0075 14.3125 2.3275 14.3125 3.6875 14.3125 C2.53576645 16.78050047 1.63966435 18.36033565 -0.3125 20.3125 C-5.91903573 21.74161695 -9.2875559 21.16982116 -14.3125 18.3125 C-16.91651871 14.23287069 -17.15824291 10.01014128 -16.3125 5.3125 C-11.74854731 -0.45249287 -7.25009014 -2.1554322 0 0 Z " fill="#D1D231" transform="translate(547.3125,616.6875)"/>
<path d="M0 0 C1.32 0 2.64 0 4 0 C5.17495143 2.93425371 6.33850852 5.87289513 7.5 8.8125 C7.83386719 9.64587891 8.16773438 10.47925781 8.51171875 11.33789062 C8.82753906 12.14033203 9.14335938 12.94277344 9.46875 13.76953125 C9.90864258 14.87711792 9.90864258 14.87711792 10.35742188 16.00708008 C11 18 11 18 11 21 C9.68 20.67 8.36 20.34 7 20 C7 19.01 7 18.02 7 17 C4.03 17.33 1.06 17.66 -2 18 C-2.33 18.99 -2.66 19.98 -3 21 C-4.32 21 -5.64 21 -7 21 C-5.180206 13.74839665 -2.93841629 6.87619244 0 0 Z M2 6 C-0.2013866 9.80427492 -0.2013866 9.80427492 -1 14 C0.98 14 2.96 14 5 14 C4.34 11.36 3.68 8.72 3 6 C2.67 6 2.34 6 2 6 Z " fill="#DBDC1E" transform="translate(593,616)"/>
<path d="M0 0 C1.32 0 2.64 0 4 0 C5.17192435 3.12305373 6.33663876 6.24874739 7.5 9.375 C8.00080078 10.70917969 8.00080078 10.70917969 8.51171875 12.0703125 C8.82753906 12.92109375 9.14335937 13.771875 9.46875 14.6484375 C9.90864258 15.82672119 9.90864258 15.82672119 10.35742188 17.02880859 C11 19 11 19 11 21 C9.68 21 8.36 21 7 21 C6.67 19.68 6.34 18.36 6 17 C3.03 17 0.06 17 -3 17 C-3.33 18.32 -3.66 19.64 -4 21 C-5.32 20.67 -6.64 20.34 -8 20 C-6.85865495 16.85251982 -5.71117657 13.70731119 -4.5625 10.5625 C-4.07426758 9.21575195 -4.07426758 9.21575195 -3.57617188 7.84179688 C-3.26357422 6.98779297 -2.95097656 6.13378906 -2.62890625 5.25390625 C-2.34088135 4.46314697 -2.05285645 3.6723877 -1.75610352 2.85766602 C-1 1 -1 1 0 0 Z M1 5 C0.34 7.97 -0.32 10.94 -1 14 C0.98 14 2.96 14 5 14 C4.01 11.03 3.02 8.06 2 5 C1.67 5 1.34 5 1 5 Z " fill="#CBCD26" transform="translate(442,616)"/>
<path d="M0 0 C2 1.6875 2 1.6875 3 4 C2.92936148 7.46128747 2.64776603 9.28025997 0.3125 11.875 C-2.73610685 13.35810604 -4.64742924 13.48891657 -8 13 C-11.08884321 10.88658096 -11.87108765 9.68753254 -12.5625 6 C-12 3 -12 3 -9.9375 0.5625 C-6.08703161 -1.48562148 -4.14064223 -1.22685696 0 0 Z " fill="#DBDBDB" transform="translate(801,579)"/>
<path d="M0 0 C-0.99 0.66 -1.98 1.32 -3 2 C-4.98046875 1.35546875 -4.98046875 1.35546875 -7.1875 0.1875 C-11.5671893 -1.9449061 -15.15968073 -2.64797678 -20 -3 C-20 -3.66 -20 -4.32 -20 -5 C-24.29221231 -4.89053657 -28.5835149 -4.75981105 -32.875 -4.625 C-34.70998047 -4.57859375 -34.70998047 -4.57859375 -36.58203125 -4.53125 C-37.74863281 -4.49257813 -38.91523437 -4.45390625 -40.1171875 -4.4140625 C-41.19597168 -4.3826416 -42.27475586 -4.3512207 -43.38623047 -4.31884766 C-46.15761654 -4.25323678 -46.15761654 -4.25323678 -48 -2 C-50.58064129 -1.85502015 -53.04943884 -1.81322455 -55.625 -1.875 C-56.33140625 -1.88402344 -57.0378125 -1.89304687 -57.765625 -1.90234375 C-59.51056098 -1.92592397 -61.25532295 -1.96179539 -63 -2 C-59.42442293 -5.35034387 -55.49356723 -5.96290121 -50.8125 -6.6875 C-50.01948486 -6.8127002 -49.22646973 -6.93790039 -48.40942383 -7.06689453 C-31.13929898 -9.58221045 -15.74143984 -7.98113082 0 0 Z " fill="#B4A51A" transform="translate(643,448)"/>
<path d="M0 0 C0.33 0 0.66 0 1 0 C1.33663062 3.70293685 1.47736015 5.39534381 -0.875 8.375 C-3 10 -3 10 -5 10 C-4.67 10.99 -4.34 11.98 -4 13 C-4.25 15.5625 -4.25 15.5625 -5 18 C-5.99 18.66 -6.98 19.32 -8 20 C-11.74009856 24.63772222 -12.14849745 30.27990642 -13 36 C-13.66 36 -14.32 36 -15 36 C-15.33 40.29 -15.66 44.58 -16 49 C-10.72 49 -5.44 49 0 49 C0 49.33 0 49.66 0 50 C-5.61 50 -11.22 50 -17 50 C-20.02653775 34.86731126 -12.59736263 17.93431172 -4.31640625 5.46484375 C-2.93102143 3.58111907 -1.56709849 1.73554882 0 0 Z " fill="#BBAC14" transform="translate(548,468)"/>
<path d="M0 0 C3.96 0 7.92 0 12 0 C12 0.99 12 1.98 12 3 C9.36 3 6.72 3 4 3 C4 4.98 4 6.96 4 9 C6.31 9 8.62 9 11 9 C11 9.99 11 10.98 11 12 C8.69 12 6.38 12 4 12 C4 13.98 4 15.96 4 18 C6.64 18 9.28 18 12 18 C12 18.99 12 19.98 12 21 C8.04 21 4.08 21 0 21 C0 14.07 0 7.14 0 0 Z " fill="#919412" transform="translate(572,616)"/>
<path d="M0 0 C3.96 0 7.92 0 12 0 C12 0.99 12 1.98 12 3 C9.36 3 6.72 3 4 3 C4 4.98 4 6.96 4 9 C6.31 9 8.62 9 11 9 C11 9.99 11 10.98 11 12 C8.69 12 6.38 12 4 12 C4 13.98 4 15.96 4 18 C6.64 18 9.28 18 12 18 C12 18.99 12 19.98 12 21 C8.04 21 4.08 21 0 21 C0 14.07 0 7.14 0 0 Z " fill="#A6A920" transform="translate(471,616)"/>
<path d="M0 0 C1.32 0 2.64 0 4 0 C5.98 4.95 7.96 9.9 10 15 C11.98 10.05 13.96 5.1 16 0 C17.32 0.33 18.64 0.66 20 1 C18.970903 4.157771 17.89635225 7.29814326 16.8125 10.4375 C16.52052734 11.33533203 16.22855469 12.23316406 15.92773438 13.15820312 C15.62802734 14.01220703 15.32832031 14.86621094 15.01953125 15.74609375 C14.75245361 16.53685303 14.48537598 17.3276123 14.21020508 18.14233398 C13 20 13 20 10.3737793 20.76586914 C9.59043213 20.84313232 8.80708496 20.92039551 8 21 C5.03584181 14.0758202 2.27435204 7.18216433 0 0 Z " fill="#ADAD20" transform="translate(414,616)"/>
<path d="M0 0 C1.32 0 2.64 0 4 0 C5.98 4.95 7.96 9.9 10 15 C11.98 10.05 13.96 5.1 16 0 C17.32 0.33 18.64 0.66 20 1 C17.36 7.6 14.72 14.2 12 21 C7 20 7 20 5.78979492 18.26586914 C5.38917847 17.16166626 5.38917847 17.16166626 4.98046875 16.03515625 C4.68076172 15.23529297 4.38105469 14.43542969 4.07226562 13.61132812 C3.78029297 12.77021484 3.48832031 11.92910156 3.1875 11.0625 C2.87619141 10.22525391 2.56488281 9.38800781 2.24414062 8.52539062 C0 2.39469437 0 2.39469437 0 0 Z " fill="#AEB324" transform="translate(737,616)"/>
<path d="M0 0 C3.96 0 7.92 0 12 0 C12 0.99 12 1.98 12 3 C9.03 3 6.06 3 3 3 C3 4.98 3 6.96 3 9 C5.64 8.67 8.28 8.34 11 8 C11.33 8.66 11.66 9.32 12 10 C11.67 10.66 11.34 11.32 11 12 C8.36 12 5.72 12 3 12 C3 13.98 3 15.96 3 18 C6.96 17.505 6.96 17.505 11 17 C11.33 18.32 11.66 19.64 12 21 C8.04 21 4.08 21 0 21 C0 14.07 0 7.14 0 0 Z " fill="#B9BB25" transform="translate(704,616)"/>
<path d="M0 0 C3.63 0 7.26 0 11 0 C11 0.99 11 1.98 11 3 C8.36 3 5.72 3 3 3 C3 4.98 3 6.96 3 9 C6.465 8.505 6.465 8.505 10 8 C10.33 9.32 10.66 10.64 11 12 C8.36 12 5.72 12 3 12 C3 13.98 3 15.96 3 18 C5.64 18 8.28 18 11 18 C11 18.99 11 19.98 11 21 C7.37 21 3.74 21 0 21 C0 14.07 0 7.14 0 0 Z " fill="#F2F159" transform="translate(759,616)"/>
<path d="M0 0 C3.63 0 7.26 0 11 0 C11 0.99 11 1.98 11 3 C8.36 3 5.72 3 3 3 C3 4.98 3 6.96 3 9 C5.64 9 8.28 9 11 9 C11 9.99 11 10.98 11 12 C8.36 12 5.72 12 3 12 C3 13.98 3 15.96 3 18 C5.64 18 8.28 18 11 18 C11 18.99 11 19.98 11 21 C7.37 21 3.74 21 0 21 C0 14.07 0 7.14 0 0 Z " fill="#ABAD18" transform="translate(623,616)"/>
<path d="M0 0 C0.268125 0.639375 0.53625 1.27875 0.8125 1.9375 C1.88667752 4.33131686 1.88667752 4.33131686 5 5 C5 6.98 5 8.96 5 11 C4.01 11 3.02 11 2 11 C2 11.99 2 12.98 2 14 C1.34 14 0.68 14 0 14 C0 14.66 0 15.32 0 16 C-3.81684226 14.44499019 -6.19195732 11.96404505 -9 9 C-3.2 0 -3.2 0 0 0 Z " fill="#E8D204" transform="translate(685,443)"/>
<path d="M0 0 C4.62 0 9.24 0 14 0 C14 0.99 14 1.98 14 3 C12.35 3 10.7 3 9 3 C9 8.94 9 14.88 9 21 C7.68 21 6.36 21 5 21 C5 15.06 5 9.12 5 3 C3.35 3 1.7 3 0 3 C0 2.01 0 1.02 0 0 Z " fill="#B3B422" transform="translate(606,616)"/>
<path d="M0 0 C0.33 0.66 0.66 1.32 1 2 C0.0625 4.125 0.0625 4.125 -1 6 C-1.66 6 -2.32 6 -3 6 C-3 7.32 -3 8.64 -3 10 C-2.443125 10.2475 -1.88625 10.495 -1.3125 10.75 C1.39971127 12.21606015 3.63587365 14.02989471 6 16 C6 15.34 6 14.68 6 14 C6.66 14 7.32 14 8 14 C8 13.01 8 12.02 8 11 C8.99 11 9.98 11 11 11 C11 9.35 11 7.7 11 6 C12.32 5.67 13.64 5.34 15 5 C15.9375 7.0625 15.9375 7.0625 16 10 C12.64379135 14.64092947 9.33002437 16.86799025 4 19 C0.37 15.37 -3.26 11.74 -7 8 C-1.125 1.125 -1.125 1.125 0 0 Z " fill="#B2A322" transform="translate(679,443)"/>
<path d="M0 0 C4.95 0 9.9 0 15 0 C15 0.99 15 1.98 15 3 C13.02 3 11.04 3 9 3 C9 8.94 9 14.88 9 21 C8.01 21 7.02 21 6 21 C6 15.06 6 9.12 6 3 C4.02 3 2.04 3 0 3 C0 2.01 0 1.02 0 0 Z " fill="#CBCC2E" transform="translate(454,616)"/>
<path d="M0 0 C1.32 0 2.64 0 4 0 C6 3 6 3 6 7 C5.34 7 4.68 7 4 7 C4 11.62 4 16.24 4 21 C2.68 21 1.36 21 0 21 C0 14.07 0 7.14 0 0 Z " fill="#B5B621" transform="translate(372,616)"/>
<path d="M0 0 C0.66 1.32 1.32 2.64 2 4 C1.01 4 0.02 4 -1 4 C-1 4.66 -1 5.32 -1 6 C1.31 6.66 3.62 7.32 6 8 C6 8.99 6 9.98 6 11 C6.928125 11.2165625 6.928125 11.2165625 7.875 11.4375 C10 12 10 12 12 13 C12 13.66 12 14.32 12 15 C13.65 14.67 15.3 14.34 17 14 C18.14814997 16.29629994 18.30769809 18.07698086 18.5625 20.625 C18.64628906 21.44226563 18.73007812 22.25953125 18.81640625 23.1015625 C18.87699219 23.72804688 18.93757812 24.35453125 19 25 C18.319375 24.319375 17.63875 23.63875 16.9375 22.9375 C16.4734375 22.47988281 16.009375 22.02226562 15.53125 21.55078125 C14.50475221 20.51119038 13.50443644 19.44512697 12.53125 18.35546875 C7.4694115 12.8594039 1.48722481 9.59452954 -5 6 C-5.99 5.34 -6.98 4.68 -8 4 C-6.02 4 -4.04 4 -2 4 C-1.34 2.68 -0.68 1.36 0 0 Z " fill="#B0A013" transform="translate(638,458)"/>
<path d="M0 0 C0.99 0 1.98 0 3 0 C3 5.94 3 11.88 3 18 C5.64 18 8.28 18 11 18 C11 18.99 11 19.98 11 21 C7.37 21 3.74 21 0 21 C0 14.07 0 7.14 0 0 Z " fill="#CACB36" transform="translate(719,616)"/>
<path d="M0 0 C1.32 0 2.64 0 4 0 C4 6.93 4 13.86 4 21 C2.68 21 1.36 21 0 21 C0 14.07 0 7.14 0 0 Z " fill="#AAA923" transform="translate(344,616)"/>
<path d="M0 0 C0.99 0 1.98 0 3 0 C3.99 3.3 4.98 6.6 6 10 C4.68 10 3.36 10 2 10 C1.67 8.68 1.34 7.36 1 6 C-1.97 6 -4.94 6 -8 6 C-8.33 7.32 -8.66 8.64 -9 10 C-10.32 9.67 -11.64 9.34 -13 9 C-12.01 6.36 -11.02 3.72 -10 1 C-9.01 1 -8.02 1 -7 1 C-7 1.99 -7 2.98 -7 4 C-4.69 4 -2.38 4 0 4 C0 2.68 0 1.36 0 0 Z " fill="#F5F72D" transform="translate(447,627)"/>
<path d="M0 0 C1.21121254 2.42242508 1.6928475 4.29705798 2 7 C1.34 8.98 0.68 10.96 0 13 C4.62 13 9.24 13 14 13 C14 11.02 14 9.04 14 7 C15 4.625 15 4.625 16 3 C16.66 3 17.32 3 18 3 C17.69106068 4.6256807 17.3777305 6.25052748 17.0625 7.875 C16.88847656 8.77992188 16.71445312 9.68484375 16.53515625 10.6171875 C16 13 16 13 15 15 C9.39 15 3.78 15 -2 15 C-2.16803599 9.45481226 -2.13843222 5.21242854 0 0 Z " fill="#867A18" transform="translate(563,502)"/>
<path d="M0 0 C1.17219543 0.78345715 2.33763668 1.57702836 3.5 2.375 C4.47453125 3.03628906 4.47453125 3.03628906 5.46875 3.7109375 C5.9740625 4.13632812 6.479375 4.56171875 7 5 C7 5.66 7 6.32 7 7 C7.55171875 7.22429687 8.1034375 7.44859375 8.671875 7.6796875 C11.71211744 9.40385183 13.81425673 11.62515822 16.25 14.125 C17.14203125 15.03507812 18.0340625 15.94515625 18.953125 16.8828125 C19.62859375 17.58148438 20.3040625 18.28015625 21 19 C19.25 22.875 19.25 22.875 17 24 C17 21.69 17 19.38 17 17 C15.68 17 14.36 17 13 17 C12.34 15.02 11.68 13.04 11 11 C9.35 10.67 7.7 10.34 6 10 C6 9.01 6 8.02 6 7 C4.02 7 2.04 7 0 7 C0 4.69 0 2.38 0 0 Z " fill="#9E921A" transform="translate(524,431)"/>
<path d="M0 0 C1.74627478 2.61941217 2.38722388 4.03824877 3 7 C4.45792884 7.05399736 5.91642712 7.09279177 7.375 7.125 C8.59316406 7.15980469 8.59316406 7.15980469 9.8359375 7.1953125 C12.21342243 7.21370051 12.21342243 7.21370051 14 5 C15.32 5 16.64 5 18 5 C16.84826645 7.46800047 15.95216435 9.04783565 14 11 C8.21320526 12.47506533 5.02876866 11.91668583 0 9 C-1.63667381 5.93123661 -0.82037612 3.28150447 0 0 Z " fill="#B4B92D" transform="translate(533,626)"/>
<path d="M0 0 C2.64 0 5.28 0 8 0 C7.67 0.99 7.34 1.98 7 3 C5.35 2.67 3.7 2.34 2 2 C2 4.64 2 7.28 2 10 C3.98 10 5.96 10 8 10 C8 11.32 8 12.64 8 14 C5.525 13.01 5.525 13.01 3 12 C3 14.64 3 17.28 3 20 C2.01 20 1.02 20 0 20 C0 13.4 0 6.8 0 0 Z " fill="#CBCC2D" transform="translate(555,617)"/>
<path d="M0 0 C1.32 0 2.64 0 4 0 C4.6708712 1.6232687 5.33657029 3.24867578 6 4.875 C6.556875 6.23238281 6.556875 6.23238281 7.125 7.6171875 C8 10 8 10 8 12 C6.68 12 5.36 12 4 12 C3.34 10.35 2.68 8.7 2 7 C1.34 8.65 0.68 10.3 0 12 C-1.32 12 -2.64 12 -4 12 C-2.66666667 8 -1.33333333 4 0 0 Z " fill="#C1C023" transform="translate(593,616)"/>
<path d="M0 0 C0.33 0 0.66 0 1 0 C1 4.95 1 9.9 1 15 C7.72089427 14.82305336 7.72089427 14.82305336 9.9375 11.75 C11.02847258 8.92630625 11.2567222 6.99509228 11 4 C11.66 4.66 12.32 5.32 13 6 C13.66 5.34 14.32 4.68 15 4 C15.48512072 11.1555306 15.48512072 11.1555306 13.3125 14.9375 C10.78804723 17.18903896 9.32957907 17.72253508 6 18 C6 17.34 6 16.68 6 16 C4.02 16 2.04 16 0 16 C0 10.72 0 5.44 0 0 Z " fill="#93931B" transform="translate(686,619)"/>
<path d="M0 0 C1.32 0.33 2.64 0.66 4 1 C4.33 4.3 4.66 7.6 5 11 C5.66 11 6.32 11 7 11 C7 15.62 7 20.24 7 25 C12.28 25 17.56 25 23 25 C23 25.33 23 25.66 23 26 C17.39 26 11.78 26 6 26 C4.91840806 22.75522417 4.54644907 19.76877408 4.125 16.375 C3.33041374 10.57211245 2.0735113 5.4665298 0 0 Z " fill="#736A13" transform="translate(662,492)"/>
<path d="M0 0 C0 3 0 3 -1.5625 4.9375 C-3.25286347 6.87642762 -3.25286347 6.87642762 -2.75 9.125 C-2.0121108 11.04498297 -2.0121108 11.04498297 -1 13 C-0.01 13.33 0.98 13.66 2 14 C2 15.32 2 16.64 2 18 C3.65 18.33 5.3 18.66 7 19 C7 20.65 7 22.3 7 24 C1.70987876 19.59156563 -3.18808428 14.92440206 -8 10 C-5.61820737 6.25718301 -3.25524265 3.02272532 0 0 Z " fill="#948818" transform="translate(517,430)"/>
<path d="M0 0 C1.32 0.33 2.64 0.66 4 1 C1.69 6.94 -0.62 12.88 -3 19 C-4.32 18.67 -5.64 18.34 -7 18 C-5.64474464 13.78224268 -4.09799886 9.70578678 -2.375 5.625 C-1.92898438 4.56539062 -1.48296875 3.50578125 -1.0234375 2.4140625 C-0.68570313 1.61742187 -0.34796875 0.82078125 0 0 Z " fill="#A8AA27" transform="translate(753,616)"/>
<path d="M0 0 C2.05078125 0.03255208 4.1015625 0.06510417 6.15234375 0.09765625 C6.15234375 0.75765625 6.15234375 1.41765625 6.15234375 2.09765625 C4.17234375 2.09765625 2.19234375 2.09765625 0.15234375 2.09765625 C0.15234375 4.07765625 0.15234375 6.05765625 0.15234375 8.09765625 C2.79234375 8.09765625 5.43234375 8.09765625 8.15234375 8.09765625 C8.15234375 9.08765625 8.15234375 10.07765625 8.15234375 11.09765625 C4.52234375 11.09765625 0.89234375 11.09765625 -2.84765625 11.09765625 C-2.9453125 3.3828125 -2.9453125 3.3828125 -2.84765625 1.09765625 C-1.84765625 0.09765625 -1.84765625 0.09765625 0 0 Z " fill="#C7C731" transform="translate(474.84765625,625.90234375)"/>
<path d="M0 0 C1.32 0 2.64 0 4 0 C3.67 6.93 3.34 13.86 3 21 C2.01 21 1.02 21 0 21 C0 14.07 0 7.14 0 0 Z " fill="#BBBC1F" transform="translate(351,616)"/>
<path d="M0 0 C1.32 0 2.64 0 4 0 C4.42152344 1.05960938 4.84304688 2.11921875 5.27734375 3.2109375 C5.83068362 4.59897649 6.38407153 5.98699633 6.9375 7.375 C7.35418945 8.42300781 7.35418945 8.42300781 7.77929688 9.4921875 C9.28466196 13.29232246 9.28466196 13.29232246 11 17 C10.01 17 9.02 17 8 17 C7.67 17.99 7.34 18.98 7 20 C4.69 13.4 2.38 6.8 0 0 Z " fill="#B8BB28" transform="translate(414,616)"/>
<path d="M0 0 C0.66 0 1.32 0 2 0 C1.67 3.63 1.34 7.26 1 11 C0.34 11 -0.32 11 -1 11 C-1.33 15.29 -1.66 19.58 -2 24 C3.28 24 8.56 24 14 24 C14 24.33 14 24.66 14 25 C8.39 25 2.78 25 -3 25 C-3.93714647 20.31426765 -3.88472895 17.68226878 -3.1875 13.0625 C-3.01605469 11.87785156 -2.84460938 10.69320313 -2.66796875 9.47265625 C-2.03399368 6.17672737 -1.14057351 3.15221792 0 0 Z " fill="#776C16" transform="translate(534,493)"/>
<path d="M0 0 C0.33 0.99 0.66 1.98 1 3 C0.175 3.7425 -0.65 4.485 -1.5 5.25 C-4.44844853 7.87387385 -4.44844853 7.87387385 -4 12 C-4.99 12.33 -5.98 12.66 -7 13 C-7 12.34 -7 11.68 -7 11 C-7.66 11 -8.32 11 -9 11 C-9.309375 11.61875 -9.61875 12.2375 -9.9375 12.875 C-10.625 14.25 -11.3125 15.625 -12 17 C-12.66 16.67 -13.32 16.34 -14 16 C-12.68 13.36 -11.36 10.72 -10 8 C-9.34 8 -8.68 8 -8 8 C-7.7525 7.4225 -7.505 6.845 -7.25 6.25 C-5.58207452 3.24773413 -3.67725381 0 0 0 Z " fill="#C1B014" transform="translate(579,482)"/>
<path d="M0 0 C16.5 0 33 0 50 0 C48 4 48 4 46 5 C45.505 3.515 45.505 3.515 45 2 C43.74340576 2 42.48681152 2 41.19213867 2 C27.46142578 2 13.73071289 2 0 2 C0 1.34 0 0.68 0 0 Z " fill="#E8E8E8" transform="translate(429,658)"/>
<path d="M0 0 C0.33 0 0.66 0 1 0 C1 1.98 1 3.96 1 6 C4.465 5.505 4.465 5.505 8 5 C8.33 6.32 8.66 7.64 9 9 C6.36 9 3.72 9 1 9 C1 10.98 1 12.96 1 15 C3.64 15 6.28 15 9 15 C9 15.33 9 15.66 9 16 C4.05 16.495 4.05 16.495 -1 17 C-1.18451025 5.47835991 -1.18451025 5.47835991 0 0 Z " fill="#ACAF19" transform="translate(761,619)"/>
<path d="M0 0 C0.99 0 1.98 0 3 0 C3 6.93 3 13.86 3 21 C2.01 21 1.02 21 0 21 C0 14.07 0 7.14 0 0 Z " fill="#D9D931" transform="translate(732,616)"/>
<path d="M0 0 C3.3 1.65 6.6 3.3 10 5 C10 5.66 10 6.32 10 7 C10.928125 7.4640625 10.928125 7.4640625 11.875 7.9375 C13.25 8.625 14.625 9.3125 16 10 C15.67 10.66 15.34 11.32 15 12 C14.01 12 13.02 12 12 12 C11.34 12.66 10.68 13.32 10 14 C7.875 13.625 7.875 13.625 6 13 C6.66 10.69 7.32 8.38 8 6 C6.35 6 4.7 6 3 6 C2.67 4.68 2.34 3.36 2 2 C1.34 2 0.68 2 0 2 C0 1.34 0 0.68 0 0 Z " fill="#D0BD10" transform="translate(644,449)"/>
<path d="M0 0 C1.29873047 0.00644531 2.59746094 0.01289062 3.93554688 0.01953125 C5.30729432 0.0362419 6.67903911 0.05317179 8.05078125 0.0703125 C9.43423843 0.08034576 10.81770252 0.08947101 12.20117188 0.09765625 C15.58871577 0.12126283 18.97591197 0.15419213 22.36328125 0.1953125 C22.03328125 1.1853125 21.70328125 2.1753125 21.36328125 3.1953125 C11.13328125 2.8653125 0.90328125 2.5353125 -9.63671875 2.1953125 C-6.00365817 -0.22672788 -4.31852852 -0.03771641 0 0 Z " fill="#8E8E8E" transform="translate(714.63671875,656.8046875)"/>
<path d="M0 0 C0.99 0 1.98 0 3 0 C3 6.93 3 13.86 3 21 C2.01 21 1.02 21 0 21 C0 14.07 0 7.14 0 0 Z " fill="#DFDE2F" transform="translate(365,616)"/>
<path d="M0 0 C1.52299523 2.93720508 2.80100302 5.9168649 4 9 C4.66 9 5.32 9 6 9 C6 9.66 6 10.32 6 11 C7.98 11 9.96 11 12 11 C11.67 11.99 11.34 12.98 11 14 C6.47319018 13.82247805 4.45987844 13.40239364 1 10.375 C-1 7 -1 7 -0.8125 3.125 C-0.544375 2.09375 -0.27625 1.0625 0 0 Z " fill="#C6C82C" transform="translate(393,624)"/>
<path d="M0 0 C0.33 0 0.66 0 1 0 C1.02688151 1.64574566 1.04634123 3.29161413 1.0625 4.9375 C1.07410156 5.85402344 1.08570313 6.77054688 1.09765625 7.71484375 C1 10 1 10 0 11 C-2.69654854 11.07319621 -5.36691458 11.09242537 -8.0625 11.0625 C-9.20041992 11.05573242 -9.20041992 11.05573242 -10.36132812 11.04882812 C-12.24091871 11.0370068 -14.12046899 11.01907078 -16 11 C-16 8.69 -16 6.38 -16 4 C-15.67 4 -15.34 4 -15 4 C-15 5.65 -15 7.3 -15 9 C-10.38 9 -5.76 9 -1 9 C-0.67 6.03 -0.34 3.06 0 0 Z " fill="#CDBC2A" transform="translate(548,506)"/>
<path d="M0 0 C0.66 0 1.32 0 2 0 C2 0.99 2 1.98 2 3 C3.65 2.34 5.3 1.68 7 1 C7.66 1.66 8.32 2.32 9 3 C8.34 3 7.68 3 7 3 C7.33 3.99 7.66 4.98 8 6 C7.01 6.495 7.01 6.495 6 7 C6.309375 8.175625 6.309375 8.175625 6.625 9.375 C6.74875 10.24125 6.8725 11.1075 7 12 C6.34 12.66 5.68 13.32 5 14 C3.96958487 12.04669132 2.9509107 10.08718472 1.9375 8.125 C1.08478516 6.48917969 1.08478516 6.48917969 0.21484375 4.8203125 C-0.18605469 3.88960938 -0.58695313 2.95890625 -1 2 C-0.67 1.34 -0.34 0.68 0 0 Z " fill="#DDC80C" transform="translate(589,475)"/>
<path d="M0 0 C4.2742558 1.5830577 6.26531794 4.50568404 9 8 C8.01 8 7.02 8 6 8 C5.34 6.68 4.68 5.36 4 4 C3.236875 4.33 2.47375 4.66 1.6875 5 C-1 6 -1 6 -4 6 C-4.33 6.99 -4.66 7.98 -5 9 C-7.5625 10.1875 -7.5625 10.1875 -10 11 C-6.79239749 7.19364503 -3.59253891 3.45436433 0 0 Z " fill="#A1951A" transform="translate(695,427)"/>
<path d="M0 0 C3 1 3 1 4 3 C4.375 5.875 4.375 5.875 4 9 C1.5 11.375 1.5 11.375 -1 13 C-1.33 12.34 -1.66 11.68 -2 11 C-4.52733235 10.34444881 -4.52733235 10.34444881 -7 10 C-7 9.67 -7 9.34 -7 9 C-5.02 8.67 -3.04 8.34 -1 8 C-1.020625 7.05125 -1.04125 6.1025 -1.0625 5.125 C-1 2 -1 2 0 0 Z " fill="#9C9C14" transform="translate(784,617)"/>
<path d="M0 0 C0.66 0.33 1.32 0.66 2 1 C1.86328125 2.77734375 1.86328125 2.77734375 1 5 C-1.58203125 6.81640625 -1.58203125 6.81640625 -4.8125 8.5625 C-8.40597833 10.52775185 -11.79266927 12.44500772 -15 15 C-12.21893294 8.17374449 -5.76943956 4.16602212 0 0 Z " fill="#B6A818" transform="translate(564,453)"/>
<path d="M0 0 C0.33 0 0.66 0 1 0 C1.33 5.94 1.66 11.88 2 18 C4.97 18 7.94 18 11 18 C11 18.66 11 19.32 11 20 C7.37 20 3.74 20 0 20 C0 13.4 0 6.8 0 0 Z " fill="#F1F258" transform="translate(623,617)"/>
<path d="M0 0 C5.61 0 11.22 0 17 0 C16.67 1.98 16.34 3.96 16 6 C15.34 5.01 14.68 4.02 14 3 C11.21103437 2.52024246 11.21103437 2.52024246 8.0625 2.625 C7.00160156 2.61726562 5.94070313 2.60953125 4.84765625 2.6015625 C1.74964066 3.0350297 0.85577889 3.55580342 -1 6 C-0.67 4.02 -0.34 2.04 0 0 Z " fill="#909090" transform="translate(350,657)"/>
<path d="M0 0 C0.66 0 1.32 0 2 0 C2 1.98 2 3.96 2 6 C4.64 5.67 7.28 5.34 10 5 C10.33 6.32 10.66 7.64 11 9 C7.37 9 3.74 9 0 9 C0 6.03 0 3.06 0 0 Z " fill="#C3C23C" transform="translate(705,628)"/>
<path d="M0 0 C1.32 0.66 2.64 1.32 4 2 C3.38801624 5.43950364 2.07941153 7.51564485 -0.0625 10.25 C-0.61035156 10.95640625 -1.15820312 11.6628125 -1.72265625 12.390625 C-2.14417969 12.92171875 -2.56570313 13.4528125 -3 14 C-4.35015859 9.94952424 -3.62084998 7.2079832 -3 3 C-1.02 3.495 -1.02 3.495 1 4 C0.67 2.68 0.34 1.36 0 0 Z " fill="#A99A15" transform="translate(585,491)"/>
<path d="M0 0 C1.40185547 0.00966797 1.40185547 0.00966797 2.83203125 0.01953125 C4.28416016 0.04466797 4.28416016 0.04466797 5.765625 0.0703125 C6.74917969 0.07933594 7.73273437 0.08835937 8.74609375 0.09765625 C11.16951907 0.12118465 13.59244722 0.15405882 16.015625 0.1953125 C16.015625 0.8553125 16.015625 1.5153125 16.015625 2.1953125 C14.69111328 2.16050781 14.69111328 2.16050781 13.33984375 2.125 C5.63761257 2.00917697 -1.47133535 2.47804629 -8.984375 4.1953125 C-8.984375 3.5353125 -8.984375 2.8753125 -8.984375 2.1953125 C-5.85508322 0.36461347 -3.60794354 -0.04399931 0 0 Z " fill="#7B730F" transform="translate(597.984375,456.8046875)"/>
<path d="M0 0 C2 1 2 1 3 3 C2.0409375 3.7734375 2.0409375 3.7734375 1.0625 4.5625 C-1.55791681 7.65935623 -1.69389817 10.02067623 -2 14 C-2.99 14 -3.98 14 -5 14 C-5.78774617 5.96498906 -5.78774617 5.96498906 -2.5 1.9375 C-1.2625 0.9784375 -1.2625 0.9784375 0 0 Z " fill="#C6C82B" transform="translate(536,617)"/>
<path d="M0 0 C2.31 0.33 4.62 0.66 7 1 C7 3.64 7 6.28 7 9 C5.68 8.67 4.36 8.34 3 8 C3.33 7.67 3.66 7.34 4 7 C2.35 6.01 0.7 5.02 -1 4 C-0.67 2.68 -0.34 1.36 0 0 Z " fill="#E9D302" transform="translate(695,434)"/>
<path d="M0 0 C0.66 0 1.32 0 2 0 C2 0.66 2 1.32 2 2 C4.64 2 7.28 2 10 2 C10 2.66 10 3.32 10 4 C8.39743892 4.50512244 6.79288208 5.00391627 5.1875 5.5 C3.84751953 5.91765625 3.84751953 5.91765625 2.48046875 6.34375 C0 7 0 7 -3 7 C-3 6.01 -3 5.02 -3 4 C-2.01 4 -1.02 4 0 4 C0 2.68 0 1.36 0 0 Z " fill="#9E9115" transform="translate(598,485)"/>
<path d="M0 0 C1.65 0 3.3 0 5 0 C4.07038578 1.15224028 3.1309875 2.29659176 2.1875 3.4375 C1.40439453 4.39462891 1.40439453 4.39462891 0.60546875 5.37109375 C-1 7 -1 7 -4 8 C-8.875 3.25 -8.875 3.25 -10 1 C-7.03 1.99 -4.06 2.98 -1 4 C-0.67 2.68 -0.34 1.36 0 0 Z " fill="#867814" transform="translate(536,455)"/>
<path d="M0 0 C0.33 0 0.66 0 1 0 C1 2.31 1 4.62 1 7 C1.66 7 2.32 7 3 7 C1.84826645 9.46800047 0.95216435 11.04783565 -1 13 C-1.99 13 -2.98 13 -4 13 C-4 12.34 -4 11.68 -4 11 C-5.98 11 -7.96 11 -10 11 C-10 10.67 -10 10.34 -10 10 C-8.329375 9.814375 -8.329375 9.814375 -6.625 9.625 C-2.96896323 9.3534187 -2.96896323 9.3534187 -1 7 C-0.59952556 4.67724823 -0.2602896 2.34260643 0 0 Z " fill="#9C9F19" transform="translate(409,624)"/>
<path d="M0 0 C0.33 0 0.66 0 1 0 C1.28571429 8.57142857 1.28571429 8.57142857 -1 12 C-2.32 12 -3.64 12 -5 12 C-5 10.68 -5 9.36 -5 8 C-4.01 8 -3.02 8 -2 8 C-1.855625 6.865625 -1.71125 5.73125 -1.5625 4.5625 C-1 1 -1 1 0 0 Z " fill="#B3B226" transform="translate(427,625)"/>
<path d="M0 0 C0.33 0 0.66 0 1 0 C2.42857143 8.42857143 2.42857143 8.42857143 0 13 C1.98 13 3.96 13 6 13 C6 13.33 6 13.66 6 14 C3.69 14 1.38 14 -1 14 C-1 13.01 -1 12.02 -1 11 C-1.66 11 -2.32 11 -3 11 C-2.32829194 7.1936543 -1.27253436 3.64793184 0 0 Z " fill="#B7B820" transform="translate(441,617)"/>
<path d="M0 0 C0.66 0 1.32 0 2 0 C0.00176489 6.14841573 -2.03326599 12.24555902 -5 18 C-5.02712066 16.56260487 -5.04645067 15.12506137 -5.0625 13.6875 C-5.07410156 12.88699219 -5.08570313 12.08648437 -5.09765625 11.26171875 C-5 9 -5 9 -4 6 C-3.34 6 -2.68 6 -2 6 C-1.7834375 5.071875 -1.7834375 5.071875 -1.5625 4.125 C-1 2 -1 2 0 0 Z " fill="#998A19" transform="translate(555,486)"/>
<path d="M0 0 C0.33 0 0.66 0 1 0 C1.32693436 3.59627792 1.47194463 5.37635888 -0.75 8.3125 C-2.93611873 9.95208905 -4.32561938 10.61794563 -7 11 C-5.20974068 7.12110481 -3.03770253 3.03770253 0 0 Z " fill="#A79516" transform="translate(548,468)"/>
<path d="M0 0 C-2.51027705 2.5999298 -4.9863684 4.99091227 -8 7 C-8.66 7 -9.32 7 -10 7 C-10.22111261 4.27294446 -10.30361625 2.53579338 -8.9375 0.125 C-5.88430685 -1.64782183 -3.33588292 -0.69235306 0 0 Z " fill="#AB9B11" transform="translate(579,465)"/>
<path d="M0 0 C1.32 0.66 2.64 1.32 4 2 C4 2.99 4 3.98 4 5 C1.5 7.1875 1.5 7.1875 -1 9 C-1.625 5.625 -1.625 5.625 -2 2 C-1.34 1.34 -0.68 0.68 0 0 Z " fill="#C7B819" transform="translate(703,435)"/>
<path d="M0 0 C0.66 0 1.32 0 2 0 C2 2.31 2 4.62 2 7 C4.64 7 7.28 7 10 7 C10 7.66 10 8.32 10 9 C6.7 9 3.4 9 0 9 C0 6.03 0 3.06 0 0 Z " fill="#F4F450" transform="translate(573,628)"/>
<path d="M0 0 C0.33 0.66 0.66 1.32 1 2 C1.66 2.33 2.32 2.66 3 3 C2.01 3.66 1.02 4.32 0 5 C-1.21284876 8.05429073 -1.21284876 8.05429073 -2 11 C-2.99 10.34 -3.98 9.68 -5 9 C-4.50769231 3.46153846 -4.50769231 3.46153846 -1.9375 1.125 C-1.298125 0.75375 -0.65875 0.3825 0 0 Z " fill="#B5B627" transform="translate(397,617)"/>
<path d="M0 0 C3.63 0 7.26 0 11 0 C11 0.99 11 1.98 11 3 C8.03 3 5.06 3 2 3 C1.67 3.66 1.34 4.32 1 5 C0.67 3.35 0.34 1.7 0 0 Z " fill="#C2C32E" transform="translate(623,616)"/>
<path d="M0 0 C3.68006822 3.38168431 5.9785845 6.42521756 8 11 C7.01 11.495 7.01 11.495 6 12 C6 11.34 6 10.68 6 10 C4.35 10.33 2.7 10.66 1 11 C0.67 10.01 0.34 9.02 0 8 C0.99 7.67 1.98 7.34 3 7 C2.505 6.21625 2.01 5.4325 1.5 4.625 C0 2 0 2 0 0 Z " fill="#BDAD16" transform="translate(667,468)"/>
<path d="M0 0 C0.66 0.66 1.32 1.32 2 2 C4.43252661 2.46162427 4.43252661 2.46162427 7.125 2.625 C8.03507813 2.69976563 8.94515625 2.77453125 9.8828125 2.8515625 C10.58148437 2.90054688 11.28015625 2.94953125 12 3 C12 3.33 12 3.66 12 4 C7.545 4.495 7.545 4.495 3 5 C2.67 5.99 2.34 6.98 2 8 C0.68 8 -0.64 8 -2 8 C-1.34 5.36 -0.68 2.72 0 0 Z " fill="#A8AA22" transform="translate(588,629)"/>
<path d="M0 0 C0.33 1.32 0.66 2.64 1 4 C4.3 4 7.6 4 11 4 C11 4.33 11 4.66 11 5 C8.03 5 5.06 5 2 5 C1.67 6.32 1.34 7.64 1 9 C-0.32 8.67 -1.64 8.34 -3 8 C-2.01 5.36 -1.02 2.72 0 0 Z " fill="#A9AA23" transform="translate(437,628)"/>
<path d="M0 0 C3 1 3 1 4 3 C4.04022391 5.3329866 4.04320247 7.66706666 4 10 C3.01 10.33 2.02 10.66 1 11 C0.67 7.37 0.34 3.74 0 0 Z " fill="#CBCC27" transform="translate(409,620)"/>
<path d="M0 0 C0.33 0.66 0.66 1.32 1 2 C0.0625 4.125 0.0625 4.125 -1 6 C-1.66 6 -2.32 6 -3 6 C-3 7.32 -3 8.64 -3 10 C-2.34 10.33 -1.68 10.66 -1 11 C-1.99 11 -2.98 11 -4 11 C-5.6875 9 -5.6875 9 -7 7 C-4.69 4.69 -2.38 2.38 0 0 Z " fill="#A2961B" transform="translate(679,443)"/>
<path d="M0 0 C1.32 0 2.64 0 4 0 C3.01 2.97 2.02 5.94 1 9 C-0.32 8.67 -1.64 8.34 -3 8 C-1.125 2.25 -1.125 2.25 0 0 Z " fill="#ACAD1D" transform="translate(749,626)"/>
<path d="M0 0 C2.64 0 5.28 0 8 0 C7.67 0.99 7.34 1.98 7 3 C5.35 2.67 3.7 2.34 2 2 C2 4.31 2 6.62 2 9 C1.34 9 0.68 9 0 9 C0 6.03 0 3.06 0 0 Z " fill="#E3E73E" transform="translate(555,617)"/>
<path d="M0 0 C2.39763185 2.39763185 2.34280586 3.33273498 2.625 6.625 C2.69976563 7.44226563 2.77453125 8.25953125 2.8515625 9.1015625 C2.92503906 10.04128906 2.92503906 10.04128906 3 11 C-0.53586014 7.82679218 -2.58578031 5.83256305 -3 1 C-2.01 0.67 -1.02 0.34 0 0 Z " fill="#B7A814" transform="translate(654,472)"/>
<path d="M0 0 C3.66172475 0.62678171 6.8818995 1.64451846 10.3125 3.0625 C11.19550781 3.42472656 12.07851563 3.78695313 12.98828125 4.16015625 C13.65214844 4.43730469 14.31601562 4.71445312 15 5 C14.01 5.66 13.02 6.32 12 7 C9.08203125 6.1015625 9.08203125 6.1015625 5.8125 4.625 C4.72582031 4.14289063 3.63914062 3.66078125 2.51953125 3.1640625 C1.68808594 2.77992188 0.85664062 2.39578125 0 2 C0 1.34 0 0.68 0 0 Z " fill="#9F8F1B" transform="translate(628,443)"/>
<path d="M0 0 C0.33 0 0.66 0 1 0 C1 6.27 1 12.54 1 19 C0.01 19 -0.98 19 -2 19 C-1.34 12.73 -0.68 6.46 0 0 Z " fill="#F3F529" transform="translate(387,618)"/>
<path d="M0 0 C4.875 1.75 4.875 1.75 6 4 C6.13415472 6.6723621 6.04318541 9.32250488 6 12 C5.773125 11.46375 5.54625 10.9275 5.3125 10.375 C3.56617944 7.21499137 1.3597151 4.7323017 -1 2 C-0.67 1.34 -0.34 0.68 0 0 Z " fill="#D0D527" transform="translate(694,617)"/>
<path d="M0 0 C0.66 0.33 1.32 0.66 2 1 C1.67 2.32 1.34 3.64 1 5 C-0.32 5.33 -1.64 5.66 -3 6 C-3 7.32 -3 8.64 -3 10 C-3.66 10 -4.32 10 -5 10 C-4.56802365 5.2482602 -3.67230705 3.07999946 0 0 Z M-8 11 C-7.01 11.495 -7.01 11.495 -6 12 C-6.66 12.66 -7.32 13.32 -8 14 C-8 13.01 -8 12.02 -8 11 Z " fill="#C4B411" transform="translate(684,438)"/>
<path d="M0 0 C0 3 0 3 -1.5625 4.9375 C-3.27412216 6.89558235 -3.27412216 6.89558235 -2.6875 9.25 C-2.460625 9.8275 -2.23375 10.405 -2 11 C-2.99 11.495 -2.99 11.495 -4 12 C-6.125 11.0625 -6.125 11.0625 -8 10 C-5.61820737 6.25718301 -3.25524265 3.02272532 0 0 Z " fill="#847C10" transform="translate(517,430)"/>
<path d="M0 0 C4 4.75 4 4.75 4 7 C3.01 7.33 2.02 7.66 1 8 C-3 3.25 -3 3.25 -3 1 C-2.01 0.67 -1.02 0.34 0 0 Z " fill="#A8A729" transform="translate(784,630)"/>
<path d="M0 0 C3.3 0 6.6 0 10 0 C10 0.66 10 1.32 10 2 C7.36 2 4.72 2 2 2 C2 4.64 2 7.28 2 10 C1.67 10 1.34 10 1 10 C0.67 6.7 0.34 3.4 0 0 Z " fill="#EAED40" transform="translate(684,617)"/>
<path d="M0 0 C3.63 0 7.26 0 11 0 C11 0.99 11 1.98 11 3 C5.04296875 3.29296875 5.04296875 3.29296875 3 3 C2.01 2.01 1.02 1.02 0 0 Z " fill="#BABC2D" transform="translate(759,616)"/>
<path d="M0 0 C0.99 0.33 1.98 0.66 3 1 C2.6875 3.375 2.6875 3.375 2 6 C1.01 6.66 0.02 7.32 -1 8 C-1.33 5.69 -1.66 3.38 -2 1 C-1.34 0.67 -0.68 0.34 0 0 Z " fill="#BBAA0C" transform="translate(692,448)"/>
<path d="M0 0 C1.17219543 0.78345715 2.33763668 1.57702836 3.5 2.375 C4.47453125 3.03628906 4.47453125 3.03628906 5.46875 3.7109375 C5.9740625 4.13632812 6.479375 4.56171875 7 5 C7 5.66 7 6.32 7 7 C4.69 7 2.38 7 0 7 C0 4.69 0 2.38 0 0 Z " fill="#C2B31A" transform="translate(524,431)"/>
<path d="M0 0 C0.99 0.66 1.98 1.32 3 2 C2.01 3.98 1.02 5.96 0 8 C-1.32 8 -2.64 8 -4 8 C-3.40138258 5.64828869 -2.73075648 3.3140622 -2 1 C-1.34 0.67 -0.68 0.34 0 0 Z " fill="#B2B220" transform="translate(593,620)"/>
<path d="M0 0 C3.3 0 6.6 0 10 0 C10 0.66 10 1.32 10 2 C7.36 2 4.72 2 2 2 C2 3.98 2 5.96 2 8 C1.67 8 1.34 8 1 8 C0.67 5.36 0.34 2.72 0 0 Z " fill="#E3E542" transform="translate(573,617)"/>
<path d="M0 0 C0.33 0.66 0.66 1.32 1 2 C-0.21484375 4.3828125 -0.21484375 4.3828125 -1.9375 7.125 C-2.50339844 8.03507812 -3.06929687 8.94515625 -3.65234375 9.8828125 C-4.09707031 10.58148438 -4.54179688 11.28015625 -5 12 C-5.66 11.67 -6.32 11.34 -7 11 C-5.68 8.36 -4.36 5.72 -3 3 C-2.34 3 -1.68 3 -1 3 C-0.67 2.01 -0.34 1.02 0 0 Z " fill="#918519" transform="translate(572,487)"/>
<path d="M0 0 C1.32 0.33 2.64 0.66 4 1 C5.10228696 5.40914783 5.07654536 9.48382401 5 14 C4.67 14 4.34 14 4 14 C3.79503906 13.24074219 3.59007812 12.48148437 3.37890625 11.69921875 C3.10949219 10.70535156 2.84007812 9.71148437 2.5625 8.6875 C2.29566406 7.70136719 2.02882813 6.71523438 1.75390625 5.69921875 C1.21920575 3.78482474 0.62855462 1.88566385 0 0 Z " fill="#A09518" transform="translate(662,492)"/>
<path d="M0 0 C4.95 0 9.9 0 15 0 C13 4 13 4 11 5 C10.67 4.01 10.34 3.02 10 2 C6.7 1.67 3.4 1.34 0 1 C0 0.67 0 0.34 0 0 Z " fill="#D2D2D2" transform="translate(464,658)"/>
<path d="M0 0 C1.32 0.66 2.64 1.32 4 2 C3.01 2.495 3.01 2.495 2 3 C1.34 2.67 0.68 2.34 0 2 C0.33 3.32 0.66 4.64 1 6 C-0.98 6.99 -0.98 6.99 -3 8 C-3.66 7.34 -4.32 6.68 -5 6 C-3.35 4.02 -1.7 2.04 0 0 Z " fill="#CCBE18" transform="translate(520,428)"/>
<path d="M0 0 C1.54571278 2.31856917 2.79618552 4.50638429 4 7 C3.01 7 2.02 7 1 7 C0.67 7.99 0.34 8.98 0 10 C-1.125 6.6875 -1.125 6.6875 -2 3 C-1.34 2.01 -0.68 1.02 0 0 Z " fill="#A6A620" transform="translate(421,626)"/>
<path d="M0 0 C2 3 2 3 2.5 5.125 C2.665 5.74375 2.83 6.3625 3 7 C3.66 7.33 4.32 7.66 5 8 C3.02 8.99 3.02 8.99 1 10 C0.34 9.34 -0.32 8.68 -1 8 C-0.96712417 5.27130593 -0.43602229 2.7033382 0 0 Z " fill="#A1A41F" transform="translate(533,626)"/>
<path d="M0 0 C3.3 1.65 6.6 3.3 10 5 C9.67 5.66 9.34 6.32 9 7 C6.03 6.505 6.03 6.505 3 6 C2.67 4.68 2.34 3.36 2 2 C1.34 2 0.68 2 0 2 C0 1.34 0 0.68 0 0 Z " fill="#9C8E17" transform="translate(644,449)"/>
<path d="M0 0 C2.18975773 3.28463659 2.99806563 6.20696275 4 10 C2.68 10 1.36 10 0 10 C-0.33 8.68 -0.66 7.36 -1 6 C-0.34 6 0.32 6 1 6 C0.67 4.02 0.34 2.04 0 0 Z " fill="#AAAD2A" transform="translate(449,627)"/>
<path d="M0 0 C0.66 0 1.32 0 2 0 C3.35439668 2.70879335 3.06501451 5.00933268 3 8 C2.01 8 1.02 8 0 8 C0 5.36 0 2.72 0 0 Z " fill="#C1C628" transform="translate(785,618)"/>
<path d="M0 0 C1.32 0 2.64 0 4 0 C3.75 1.875 3.75 1.875 3 4 C0.9375 5.25 0.9375 5.25 -1 6 C-1.33 5.01 -1.66 4.02 -2 3 C-1.34 3 -0.68 3 0 3 C0 2.01 0 1.02 0 0 Z " fill="#AE9D14" transform="translate(687,454)"/>
<path d="M0 0 C0.99 0.33 1.98 0.66 3 1 C4.1875 3.5625 4.1875 3.5625 5 6 C2.625 5.6875 2.625 5.6875 0 5 C-0.66 4.01 -1.32 3.02 -2 2 C-1.34 1.67 -0.68 1.34 0 1 C0 0.67 0 0.34 0 0 Z " fill="#989920" transform="translate(546,617)"/>
<path d="M0 0 C0.66 0 1.32 0 2 0 C1.34 3.3 0.68 6.6 0 10 C-0.66 10 -1.32 10 -2 10 C-2.17942163 6.05272412 -2.09350689 3.4019487 0 0 Z " fill="#A29418" transform="translate(579,505)"/>
<path d="M0 0 C3.77545388 1.09068668 6.47043472 1.9083091 9 5 C8.67 5.99 8.34 6.98 8 8 C6.66372225 6.85760183 5.33104612 5.71098945 4 4.5625 C3.2575 3.92441406 2.515 3.28632813 1.75 2.62890625 C1.1725 2.09136719 0.595 1.55382812 0 1 C0 0.67 0 0.34 0 0 Z " fill="#99901A" transform="translate(642,468)"/>
<path d="M0 0 C0.66 0.33 1.32 0.66 2 1 C0.2863049 5.79834628 -3.61431921 7.80715961 -8 10 C-6.44303593 6.17836093 -3.96591316 3.81381505 -1 1 C-0.67 0.67 -0.34 0.34 0 0 Z " fill="#675E0B" transform="translate(557,458)"/>
<path d="M0 0 C1.98 0.495 1.98 0.495 4 1 C3.67 2.32 3.34 3.64 3 5 C1.68 4.67 0.36 4.34 -1 4 C-0.67 2.68 -0.34 1.36 0 0 Z " fill="#7A7C26" transform="translate(791,633)"/>
<path d="M0 0 C0.99 0.495 0.99 0.495 2 1 C2 1.99 2 2.98 2 4 C2.99 4 3.98 4 5 4 C5 4.99 5 5.98 5 7 C3.35 6.67 1.7 6.34 0 6 C0 4.02 0 2.04 0 0 Z " fill="#E1E434" transform="translate(744,630)"/>
<path d="M0 0 C0.66 0.33 1.32 0.66 2 1 C-0.97 3.97 -3.94 6.94 -7 10 C-7.33 9.01 -7.66 8.02 -8 7 C-5.36 4.69 -2.72 2.38 0 0 Z " fill="#ACACAC" transform="translate(758,573)"/>
<path d="M0 0 C0.66 0 1.32 0 2 0 C2.66 2.31 3.32 4.62 4 7 C3.34 7.66 2.68 8.32 2 9 C2 8.01 2 7.02 2 6 C1.01 5.67 0.02 5.34 -1 5 C-0.67 3.35 -0.34 1.7 0 0 Z " fill="#AD9F18" transform="translate(675,480)"/>
<path d="M0 0 C1.98 0.495 1.98 0.495 4 1 C3.34 2.65 2.68 4.3 2 6 C1.01 6 0.02 6 -1 6 C-0.67 4.02 -0.34 2.04 0 0 Z " fill="#B9BA2D" transform="translate(430,616)"/>
<path d="M0 0 C2.4375 0.75 2.4375 0.75 5 2 C5.9375 4 5.9375 4 6 6 C5.34 6.66 4.68 7.32 4 8 C3.566875 7.0409375 3.566875 7.0409375 3.125 6.0625 C2.17176549 3.84793921 2.17176549 3.84793921 0 3 C0 2.01 0 1.02 0 0 Z " fill="#928510" transform="translate(657,483)"/>
<path d="M0 0 C0.66 0 1.32 0 2 0 C2 1.65 2 3.3 2 5 C2.66 5 3.32 5 4 5 C4 6.65 4 8.3 4 10 C0.9083091 7.47043472 0.09068668 4.77545388 -1 1 C-0.67 0.67 -0.34 0.34 0 0 Z " fill="#A39720" transform="translate(589,475)"/>
<path d="M0 0 C1.2065625 0.0309375 1.2065625 0.0309375 2.4375 0.0625 C1.28576645 2.53050047 0.38966435 4.11033565 -1.5625 6.0625 C-2.2225 4.4125 -2.8825 2.7625 -3.5625 1.0625 C-2.5625 0.0625 -2.5625 0.0625 0 0 Z " fill="#A09415" transform="translate(560.5625,477.9375)"/>
<path d="M0 0 C2.64 0 5.28 0 8 0 C4.71536341 2.18975773 1.79303725 2.99806563 -2 4 C-2 3.34 -2 2.68 -2 2 C-1.34 2 -0.68 2 0 2 C0 1.34 0 0.68 0 0 Z " fill="#8E8018" transform="translate(581,461)"/>
<path d="M0 0 C1.2065625 0.0309375 1.2065625 0.0309375 2.4375 0.0625 C0.79580472 2.08304804 -0.87161778 4.08293058 -2.5625 6.0625 C-2.8925 6.0625 -3.2225 6.0625 -3.5625 6.0625 C-3.605221 4.39638095 -3.60313832 2.72867115 -3.5625 1.0625 C-2.5625 0.0625 -2.5625 0.0625 0 0 Z " fill="#A09413" transform="translate(538.5625,454.9375)"/>
<path d="M0 0 C0.763125 0.309375 1.52625 0.61875 2.3125 0.9375 C4.18789677 1.67893593 6.08684652 2.36228217 8 3 C8 3.99 8 4.98 8 6 C4.74456771 5.65120368 3.98126893 4.97866739 1.75 2.4375 C1.1725 1.633125 0.595 0.82875 0 0 Z " fill="#A3951A" transform="translate(511,441)"/>
<path d="M0 0 C0.33 0 0.66 0 1 0 C1 2.31 1 4.62 1 7 C-0.32 7 -1.64 7 -3 7 C-3 5.68 -3 4.36 -3 3 C-2.01 3 -1.02 3 0 3 C0 2.01 0 1.02 0 0 Z " fill="#E7E931" transform="translate(425,630)"/>
<path d="M0 0 C2.5654594 2.5654594 2.54046087 4.47686668 3 8 C1.68 7.67 0.36 7.34 -1 7 C-0.67 4.69 -0.34 2.38 0 0 Z " fill="#B3B52D" transform="translate(601,629)"/>
<path d="M0 0 C0.66 0 1.32 0 2 0 C1.67 1.32 1.34 2.64 1 4 C3.64 4 6.28 4 9 4 C9 4.33 9 4.66 9 5 C6.03 5 3.06 5 0 5 C-0.33 3.68 -0.66 2.36 -1 1 C-0.67 0.67 -0.34 0.34 0 0 Z " fill="#F3F435" transform="translate(590,627)"/>
<path d="M0 0 C0.66 0 1.32 0 2 0 C1.67 1.65 1.34 3.3 1 5 C0.01 5.33 -0.98 5.66 -2 6 C-1.125 1.125 -1.125 1.125 0 0 Z " fill="#D1D12F" transform="translate(752,621)"/>
<path d="M0 0 C1.32 0 2.64 0 4 0 C4.33 1.65 4.66 3.3 5 5 C4.34 5 3.68 5 3 5 C2.67 5.66 2.34 6.32 2 7 C1.34 4.69 0.68 2.38 0 0 Z " fill="#B8B720" transform="translate(444,622)"/>
<path d="M0 0 C0.66 0.33 1.32 0.66 2 1 C-0.31 3.31 -2.62 5.62 -5 8 C-5 5 -5 5 -2.5 2.3125 C-1.675 1.549375 -0.85 0.78625 0 0 Z " fill="#A5A5A5" transform="translate(757,541)"/>
<path d="M0 0 C0.66 0.33 1.32 0.66 2 1 C-0.31 3.31 -2.62 5.62 -5 8 C-5.66 7.67 -6.32 7.34 -7 7 C-4.66666667 4.66666667 -2.33333333 2.33333333 0 0 Z " fill="#B2B2B2" transform="translate(562,372)"/>
<path d="M0 0 C0.66 0.33 1.32 0.66 2 1 C-4.45 5.09326923 -4.45 5.09326923 -7.234375 4.62109375 C-7.81703125 4.41613281 -8.3996875 4.21117187 -9 4 C-7.54618103 3.30300448 -6.08677047 2.61766134 -4.625 1.9375 C-3.40683594 1.36322266 -3.40683594 1.36322266 -2.1640625 0.77734375 C-1.44992187 0.52082031 -0.73578125 0.26429688 0 0 Z " fill="#7B7B7B" transform="translate(582,361)"/>
<path d="M0 0 C0.99 0 1.98 0 3 0 C2.67 1.65 2.34 3.3 2 5 C1.01 4.67 0.02 4.34 -1 4 C-0.67 2.68 -0.34 1.36 0 0 Z " fill="#9A9931" transform="translate(638,633)"/>
<path d="M0 0 C0.66 0 1.32 0 2 0 C2.33 0.99 2.66 1.98 3 3 C2.01 3.66 1.02 4.32 0 5 C-0.66 4.01 -1.32 3.02 -2 2 C-1.34 1.34 -0.68 0.68 0 0 Z " fill="#ADB235" transform="translate(487,633)"/>
<path d="" fill="#000000" transform="translate(0,0)"/>
<path d="" fill="#000000" transform="translate(0,0)"/>
<path d="" fill="#000000" transform="translate(0,0)"/>
<path d="" fill="#000000" transform="translate(0,0)"/>
<path d="" fill="#000000" transform="translate(0,0)"/>
<path d="" fill="#000000" transform="translate(0,0)"/>
<path d="" fill="#000000" transform="translate(0,0)"/>
<path d="" fill="#000000" transform="translate(0,0)"/>
<path d="" fill="#000000" transform="translate(0,0)"/>
<path d="" fill="#000000" transform="translate(0,0)"/>
<path d="" fill="#000000" transform="translate(0,0)"/>
<path d="" fill="#000000" transform="translate(0,0)"/>
<path d="" fill="#000000" transform="translate(0,0)"/>
<path d="" fill="#000000" transform="translate(0,0)"/>
<path d="" fill="#000000" transform="translate(0,0)"/>
<path d="" fill="#000000" transform="translate(0,0)"/>
<path d="" fill="#000000" transform="translate(0,0)"/>
<path d="" fill="#000000" transform="translate(0,0)"/>
<path d="" fill="#000000" transform="translate(0,0)"/>
<path d="" fill="#000000" transform="translate(0,0)"/>
<path d="" fill="#000000" transform="translate(0,0)"/>
<path d="" fill="#000000" transform="translate(0,0)"/>
<path d="" fill="#000000" transform="translate(0,0)"/>
<path d="" fill="#000000" transform="translate(0,0)"/>
<path d="" fill="#000000" transform="translate(0,0)"/>
<path d="" fill="#000000" transform="translate(0,0)"/>
<path d="" fill="#000000" transform="translate(0,0)"/>
<path d="" fill="#000000" transform="translate(0,0)"/>
<path d="" fill="#000000" transform="translate(0,0)"/>
<path d="" fill="#000000" transform="translate(0,0)"/>
<path d="" fill="#000000" transform="translate(0,0)"/>
<path d="" fill="#000000" transform="translate(0,0)"/>
<path d="" fill="#000000" transform="translate(0,0)"/>
<path d="" fill="#000000" transform="translate(0,0)"/>
<path d="" fill="#000000" transform="translate(0,0)"/>
<path d="" fill="#000000" transform="translate(0,0)"/>
<path d="" fill="#000000" transform="translate(0,0)"/>
<path d="" fill="#000000" transform="translate(0,0)"/>
<path d="" fill="#000000" transform="translate(0,0)"/>
<path d="" fill="#000000" transform="translate(0,0)"/>
<path d="" fill="#000000" transform="translate(0,0)"/>
<path d="" fill="#000000" transform="translate(0,0)"/>
<path d="" fill="#000000" transform="translate(0,0)"/>
<path d="" fill="#000000" transform="translate(0,0)"/>
<path d="" fill="#000000" transform="translate(0,0)"/>
<path d="" fill="#000000" transform="translate(0,0)"/>
<path d="" fill="#000000" transform="translate(0,0)"/>
<path d="" fill="#000000" transform="translate(0,0)"/>
<path d="" fill="#000000" transform="translate(0,0)"/>
<path d="" fill="#000000" transform="translate(0,0)"/>
<path d="" fill="#000000" transform="translate(0,0)"/>
<path d="" fill="#000000" transform="translate(0,0)"/>
<path d="" fill="#000000" transform="translate(0,0)"/>
<path d="" fill="#000000" transform="translate(0,0)"/>
<path d="" fill="#000000" transform="translate(0,0)"/>
<path d="" fill="#000000" transform="translate(0,0)"/>
<path d="" fill="#000000" transform="translate(0,0)"/>
<path d="" fill="#000000" transform="translate(0,0)"/>
<path d="" fill="#000000" transform="translate(0,0)"/>
<path d="" fill="#000000" transform="translate(0,0)"/>
<path d="" fill="#000000" transform="translate(0,0)"/>
<path d="" fill="#000000" transform="translate(0,0)"/>
<path d="" fill="#000000" transform="translate(0,0)"/>
<path d="" fill="#000000" transform="translate(0,0)"/>
<path d="" fill="#000000" transform="translate(0,0)"/>
<path d="" fill="#000000" transform="translate(0,0)"/>
<path d="" fill="#000000" transform="translate(0,0)"/>
<path d="" fill="#000000" transform="translate(0,0)"/>
<path d="" fill="#000000" transform="translate(0,0)"/>
<path d="" fill="#000000" transform="translate(0,0)"/>
<path d="" fill="#000000" transform="translate(0,0)"/>
<path d="" fill="#000000" transform="translate(0,0)"/>
<path d="" fill="#000000" transform="translate(0,0)"/>
<path d="" fill="#000000" transform="translate(0,0)"/>
<path d="" fill="#000000" transform="translate(0,0)"/>
<path d="" fill="#000000" transform="translate(0,0)"/>
<path d="" fill="#000000" transform="translate(0,0)"/>
<path d="" fill="#000000" transform="translate(0,0)"/>
<path d="" fill="#000000" transform="translate(0,0)"/>
<path d="" fill="#000000" transform="translate(0,0)"/>
<path d="" fill="#000000" transform="translate(0,0)"/>
<path d="" fill="#000000" transform="translate(0,0)"/>
<path d="" fill="#000000" transform="translate(0,0)"/>
<path d="" fill="#000000" transform="translate(0,0)"/>
<path d="" fill="#000000" transform="translate(0,0)"/>
<path d="" fill="#000000" transform="translate(0,0)"/>
<path d="" fill="#000000" transform="translate(0,0)"/>
<path d="" fill="#000000" transform="translate(0,0)"/>
<path d="" fill="#000000" transform="translate(0,0)"/>
<path d="" fill="#000000" transform="translate(0,0)"/>
<path d="" fill="#000000" transform="translate(0,0)"/>
</svg>
