<?xml version="1.0" standalone="no"?>
<!DOCTYPE svg PUBLIC "-//W3C//DTD SVG 20010904//EN"
 "http://www.w3.org/TR/2001/REC-SVG-20010904/DTD/svg10.dtd">
<svg version="1.0" xmlns="http://www.w3.org/2000/svg"
 width="512.000000pt" height="512.000000pt" viewBox="0 0 512.000000 512.000000"
 preserveAspectRatio="xMidYMid meet">
<metadata>
Created by potrace 1.16, written by Peter Selinger 2001-2019
</metadata>
<g transform="translate(0.000000,512.000000) scale(0.100000,-0.100000)"
fill="#000000" stroke="none">
<path d="M2442 5055 c-95 -21 -1586 -811 -1648 -874 -62 -62 -87 -134 -82
-231 3 -41 8 -82 12 -91 7 -15 -6 -17 -121 -21 -115 -3 -134 -6 -190 -32 -103
-47 -178 -141 -202 -254 -8 -38 -11 -444 -11 -1407 l0 -1355 -74 0 c-59 0 -78
-4 -100 -21 -26 -20 -26 -21 -26 -168 0 -96 5 -163 14 -192 55 -180 204 -316
380 -348 84 -15 4248 -15 4332 0 176 32 325 168 380 348 9 29 14 96 14 192 0
147 0 148 -26 168 -22 17 -41 21 -100 21 l-74 0 0 1355 c0 963 -3 1369 -11
1407 -24 113 -99 207 -202 254 -56 26 -75 29 -190 32 -115 4 -128 6 -121 21 4
9 9 50 12 91 3 59 -1 87 -17 131 -40 105 -58 117 -623 417 -304 160 -526 272
-542 272 -60 0 -98 -82 -58 -128 9 -11 239 -138 511 -282 272 -144 501 -266
510 -272 72 -45 80 -172 15 -229 -15 -13 -949 -513 -975 -522 -3 -1 -143 156
-312 348 -218 248 -316 353 -336 359 -58 17 -113 -36 -98 -95 3 -13 137 -172
296 -354 160 -181 290 -333 291 -337 0 -9 -355 -195 -407 -213 -56 -19 -150
-19 -205 0 -37 12 -1465 763 -1526 801 -82 53 -81 192 2 243 107 66 1496 793
1538 806 104 30 166 16 351 -80 68 -36 136 -65 151 -65 32 0 76 40 76 70 0 52
-25 74 -182 152 -197 100 -277 115 -426 83z m-1373 -1467 l176 -93 -327 -5
c-297 -5 -329 -7 -345 -23 -17 -17 -18 -80 -18 -1233 l0 -1216 24 -19 c21 -17
42 -19 253 -19 l229 0 26 26 c21 21 24 32 20 62 -11 65 -17 67 -217 70 l-180
3 0 1095 0 1094 328 0 329 0 6 -192 c7 -222 20 -287 79 -406 51 -104 152 -214
251 -276 125 -77 351 -150 558 -180 286 -42 522 -28 847 51 19 5 22 1 22 -27
0 -23 -27 -80 -90 -189 -55 -96 -92 -172 -96 -198 -15 -95 40 -199 130 -245
59 -31 203 -31 262 -1 91 48 144 149 130 246 -4 27 -38 98 -91 191 -84 147
-85 149 -85 218 l0 69 36 15 c134 56 276 191 342 326 59 119 72 184 79 406 l6
192 329 0 328 0 0 -1095 0 -1095 -1555 0 -1556 0 -24 -25 c-32 -31 -33 -80 -3
-112 l21 -23 1613 0 c1572 0 1612 0 1635 19 l24 19 0 1216 c0 1153 -1 1216
-18 1233 -16 16 -48 18 -345 23 l-327 5 176 93 176 92 184 0 c157 0 190 -3
225 -19 51 -23 99 -81 113 -137 8 -30 11 -452 11 -1388 l0 -1346 -2200 0
-2200 0 0 1348 c0 1488 -3 1416 62 1479 59 57 84 62 287 63 l184 0 176 -92z
m883 -468 c254 -134 438 -225 474 -235 75 -19 194 -19 269 1 54 13 145 58 363
176 l72 40 0 -300 0 -300 -82 -22 c-120 -33 -277 -58 -408 -66 -257 -15 -605
53 -812 157 -81 41 -185 145 -226 224 -54 109 -63 155 -69 358 -3 103 -3 187
-1 187 3 0 192 -99 420 -220z m1635 33 c-6 -203 -15 -249 -69 -358 -32 -63
-138 -176 -195 -208 l-33 -18 0 308 0 308 143 77 c78 42 146 77 151 77 5 1 6
-79 3 -186z m-328 -1173 c28 -49 51 -96 51 -104 0 -8 -11 -28 -24 -43 -21 -25
-31 -28 -81 -28 -50 0 -60 3 -82 29 -17 20 -23 36 -19 52 5 19 96 184 102 184
1 0 25 -40 53 -90z m-1309 -1396 c27 -97 125 -192 231 -225 54 -17 94 -19 379
-19 285 0 325 2 379 19 106 33 204 128 231 225 l13 46 893 0 894 0 0 -32 c-1
-190 -92 -325 -250 -372 -48 -14 -267 -16 -2160 -16 -1893 0 -2112 2 -2160 16
-94 28 -166 87 -210 173 -19 39 -40 139 -40 199 l0 32 894 0 893 0 13 -46z
m1060 36 c0 -20 -66 -84 -105 -101 -36 -17 -71 -19 -345 -19 -274 0 -309 2
-345 19 -39 17 -105 81 -105 101 0 6 167 10 450 10 283 0 450 -4 450 -10z"/>
<path d="M950 1780 c-26 -26 -26 -80 -1 -111 l19 -24 509 -3 c279 -2 523 0
541 3 66 12 92 77 51 129 l-20 26 -540 0 c-526 0 -539 0 -559 -20z"/>
<path d="M956 1469 c-35 -27 -36 -86 -3 -117 l23 -22 780 0 c855 0 815 -3 829
59 8 38 -16 86 -47 95 -13 3 -368 6 -789 6 -760 0 -767 0 -793 -21z"/>
</g>
</svg>
