<svg width="303" height="225" viewBox="0 0 303 225" fill="none" xmlns="http://www.w3.org/2000/svg">
<path d="M133 137.895C133 137.895 135.458 132.82 135.92 129.597C136.383 126.373 136.535 124.522 138.378 122.99C140.221 121.458 146.213 115.307 147.155 113.001C148.096 110.695 148.687 112.849 149.149 114.692C149.612 116.535 149.453 118.227 147.921 119.304C146.841 120.105 145.861 121.032 145 122.065L146.381 123.142C146.381 123.142 165.586 115.921 167.589 115.163C169.591 114.405 171.427 115.003 171.578 116.543C171.73 118.083 171.123 118.235 170.198 118.698C169.272 119.161 159.139 122.687 157.751 123.302L156.37 123.916L157.447 124.993C157.447 124.993 162.977 124.842 165.746 124.69C168.514 124.538 172.655 124.076 173.27 124.993C173.544 125.404 173.649 125.904 173.562 126.391C173.476 126.877 173.206 127.311 172.807 127.602C172.484 127.912 172.095 128.144 171.67 128.283C171.244 128.421 170.793 128.461 170.349 128.4C168.969 128.4 157.136 129.318 157.136 129.318L157.447 131.009C157.447 131.009 170.046 133.004 170.501 133.618C170.956 134.233 170.964 134.544 170.501 135.461C170.038 136.379 169.703 136.387 168.506 136.387C167.309 136.387 157.336 134.847 157.336 134.847C157.336 134.847 162.251 137.616 162.865 138.079C163.48 138.541 165.626 138.876 165.011 139.922C164.397 140.967 164.094 141.302 163.168 141.15C162.243 140.999 155.644 138.079 155.644 138.079C155.644 138.079 149.038 138.996 146.867 139.156C145.27 139.23 143.669 139.176 142.08 138.996L135.936 142.986L133 137.895Z" fill="white" stroke="#263238" stroke-width="0.624476" stroke-linecap="round" stroke-linejoin="round"/>
<path d="M88.9723 128.205C88.9723 128.205 84.5121 109.615 82.669 105.465C80.8258 101.316 70.3814 97.4866 65.3068 106.543C60.2322 115.599 64.844 125.9 66.6951 133.272C68.5462 140.645 80.2114 173.965 81.903 178.138C83.5945 182.311 86.6903 181.329 88.3579 180.906C90.0255 180.483 136.75 142.799 136.75 142.799L133.064 134.509L96.8076 153.124L88.9723 128.205Z" fill="white"/>
<path d="M87.6602 169.073C88.8439 165.477 90.2101 161.943 91.7534 158.485C93.4609 155.07 83.5591 166.344 81.5085 160.193C79.4579 154.041 66.4841 123.306 68.8698 113.061C69.9047 108.301 72.6897 104.104 76.6732 101.3C72.8673 100.399 68.2076 101.356 65.3033 106.542C60.2366 115.606 64.8405 125.899 66.6916 133.272C68.5427 140.644 80.2079 173.964 81.8994 178.137C83.591 182.31 86.6868 181.329 88.3544 180.906C89.5831 180.571 114.685 160.52 128.249 149.645L87.6602 169.073Z" fill="#4763B7"/>
<path opacity="0.5" d="M87.6602 169.073C88.8439 165.477 90.2101 161.943 91.7534 158.485C93.4609 155.07 83.5591 166.344 81.5085 160.193C79.4579 154.041 66.4841 123.306 68.8698 113.061C69.9047 108.301 72.6897 104.104 76.6732 101.3C72.8673 100.399 68.2076 101.356 65.3033 106.542C60.2366 115.606 64.8405 125.899 66.6916 133.272C68.5427 140.644 80.2079 173.964 81.8994 178.137C83.591 182.31 86.6868 181.329 88.3544 180.906C89.5831 180.571 114.685 160.52 128.249 149.645L87.6602 169.073Z" fill="white"/>
<path d="M88.9723 128.205C88.9723 128.205 84.5121 109.615 82.669 105.465C80.8258 101.316 70.3814 97.4866 65.3068 106.543C60.2322 115.599 64.844 125.9 66.6951 133.272C68.5462 140.645 80.2114 173.965 81.903 178.138C83.5945 182.311 86.6903 181.329 88.3579 180.906C90.0255 180.483 136.75 142.799 136.75 142.799L133.064 134.509L96.8076 153.124L88.9723 128.205Z" stroke="#263238" stroke-width="0.624476" stroke-linecap="round" stroke-linejoin="round"/>
<path d="M151.602 220.282L117.572 144.083H200.035L301.726 211.162" fill="white"/>
<path d="M151.602 220.282L117.572 144.083H200.035L301.726 211.162" stroke="#263238" stroke-width="0.624476" stroke-linecap="round" stroke-linejoin="round"/>
<path d="M143.161 217.282L117.572 149.166V144.083L153.773 223.833L143.161 217.282Z" fill="#263238" stroke="#263238" stroke-width="0.624476" stroke-linecap="round" stroke-linejoin="round"/>
<path d="M164.72 147.235L199.795 188.35L157.22 198.268L133.027 152.309L164.72 147.235Z" fill="white" stroke="#263238" stroke-width="0.624476" stroke-linecap="round" stroke-linejoin="round"/>
<path d="M157.22 198.27V199.483L199.069 191.017L199.795 188.353L157.22 198.27Z" fill="#263238" stroke="#263238" stroke-width="0.624476" stroke-linecap="round" stroke-linejoin="round"/>
<path d="M163.395 162.029L165.191 164.678L169.755 163.442L167.856 160.856L163.395 162.029Z" fill="#263238"/>
<path d="M180.67 178.234L178.499 175.297L173.313 176.694L175.34 179.694L180.67 178.234Z" fill="#263238"/>
<path d="M159.669 156.508L161.002 158.486L165.294 157.393L163.946 155.558L159.669 156.508Z" fill="#263238"/>
<path d="M167.935 168.738L170.393 172.377L175.412 171.108L172.699 167.43L167.935 168.738Z" fill="#263238"/>
<path d="M180.933 170.448L176.632 171.541L178.787 174.461L183.167 173.28L180.933 170.448Z" fill="#263238"/>
<path d="M170.832 173.017L172.882 176.065L178.037 174.669L175.874 171.732L170.832 173.017Z" fill="#263238"/>
<path d="M154.81 157.583L156.134 159.722L160.252 158.669L158.903 156.674L154.81 157.583Z" fill="#263238"/>
<path d="M165.613 165.308L167.512 168.109L172.236 166.8L170.217 164.063L165.613 165.308Z" fill="#263238"/>
<path d="M161.433 159.118L162.965 161.392L167.385 160.227L165.757 158.017L161.433 159.118Z" fill="#263238"/>
<path d="M152.145 164.246L150.805 161.829L145.913 163.073L147.278 165.531L152.145 164.246Z" fill="#263238"/>
<path d="M145.116 170.096L148.475 169.194L146.919 166.386L143.616 167.255L145.116 170.096Z" fill="#263238"/>
<path d="M153.358 155.238L154.403 156.93L158.464 156.028L157.371 154.417L153.358 155.238Z" fill="#263238"/>
<path d="M150.438 161.166L149.145 158.836L144.174 159.93L145.547 162.411L150.438 161.166Z" fill="#263238"/>
<path d="M148.531 156.218L149.52 158.006L153.653 157.096L152.592 155.389L148.531 156.218Z" fill="#263238"/>
<path d="M141.581 163.426L144.82 162.596L143.432 160.099L140.201 160.809L141.581 163.426Z" fill="#263238"/>
<path d="M142.77 157.4L143.807 159.267L148.778 158.174L147.781 156.371L142.77 157.4Z" fill="#263238"/>
<path d="M158.385 163.354L160.06 166.059L164.449 164.878L162.653 162.229L158.385 163.354Z" fill="#263238"/>
<path d="M169.651 172.568L167.201 168.945L162.629 170.206L164.847 173.789L169.651 172.568Z" fill="#263238"/>
<path d="M149.887 158.671L151.164 160.985L155.392 159.908L154.06 157.753L149.887 158.671Z" fill="#263238"/>
<path d="M150.844 173.453L147.398 174.403L149.185 177.778L152.735 176.876L150.844 173.453Z" fill="#263238"/>
<path d="M160.459 166.704L162.23 169.561L166.77 168.316L164.879 165.507L160.459 166.704Z" fill="#263238"/>
<path d="M157.252 162.907L155.791 160.554L151.531 161.639L152.871 164.064L157.252 162.907Z" fill="#263238"/>
<path d="M165.254 187.92L160.379 189.165L162.119 192.301L167.01 191.096L165.254 187.92Z" fill="#263238"/>
<path d="M157.706 153.612L161.879 152.758L159.637 149.71L155.528 150.388L157.706 153.612Z" fill="#263238"/>
<path d="M147.414 155.708L145.395 152.062L140.28 152.907L142.403 156.737L147.414 155.708Z" fill="#263238"/>
<path d="M154.052 167.687L152.512 164.902L147.645 166.187L149.201 168.996L154.052 167.687Z" fill="#263238"/>
<path d="M166.475 177.795L164.512 174.627L159.438 175.92L161.257 179.207L166.475 177.795Z" fill="#263238"/>
<path d="M164.113 173.98L161.895 170.406L157.116 171.722L159.071 175.257L164.113 173.98Z" fill="#263238"/>
<path d="M172.14 176.262L170.082 173.206L165.247 174.435L167.209 177.594L172.14 176.262Z" fill="#263238"/>
<path d="M159.326 166.259L157.651 163.546L153.23 164.719L154.77 167.487L159.326 166.259Z" fill="#263238"/>
<path d="M156.533 160.369L157.986 162.707L162.222 161.59L160.682 159.308L156.533 160.369Z" fill="#263238"/>
<path d="M161.496 169.767L159.725 166.903L155.129 168.14L156.757 171.076L161.496 169.767Z" fill="#263238"/>
<path d="M174.606 179.901L172.571 176.901L167.608 178.241L169.499 181.297L174.606 179.901Z" fill="#263238"/>
<path d="M171.326 185.624L169.164 182.137L163.707 183.637L165.621 187.076L171.326 185.624Z" fill="#263238"/>
<path d="M154.97 180.907L153.102 177.532L149.536 178.441L151.355 181.888L154.97 180.907Z" fill="#263238"/>
<path d="M148.842 169.85L145.467 170.759L147.054 173.751L150.477 172.81L148.842 169.85Z" fill="#263238"/>
<path d="M164.887 187.268L162.988 183.829L158.153 185.153L160.012 188.504L164.887 187.268Z" fill="#263238"/>
<path d="M156.031 171.269L154.411 168.34L149.56 169.649L151.204 172.609L156.031 171.269Z" fill="#263238"/>
<path d="M158.145 154.257L159.23 155.861L163.475 154.919L162.35 153.395L158.145 154.257Z" fill="#263238"/>
<path d="M139.849 160.145L143.065 159.435L142.028 157.552L138.82 158.206L139.849 160.145Z" fill="#263238"/>
<path d="M152.943 154.578L156.932 153.764L154.738 150.517L150.829 151.163L152.943 154.578Z" fill="#263238"/>
<path d="M148.164 155.556L152.193 154.735L150.055 151.288L146.153 151.934L148.164 155.556Z" fill="#263238"/>
<path d="M146.56 165.73L145.187 163.257L141.932 164.087L143.264 166.592L146.56 165.73Z" fill="#263238"/>
<path d="M162.661 152.598L166.268 151.856L164.002 148.991L160.435 149.574L162.661 152.598Z" fill="#263238"/>
<path d="M141.653 156.89L139.514 153.028L136.355 153.554L138.469 157.536L141.653 156.89Z" fill="#263238"/>
<path d="M159.653 189.348L155.823 190.322L157.483 193.449L161.393 192.484L159.653 189.348Z" fill="#263238"/>
<path d="M177.853 184.704L172.459 186.076L174.43 189.26L179.999 187.879L177.853 184.704Z" fill="#263238"/>
<path d="M171.725 186.268L165.981 187.728L167.744 190.912L173.688 189.444L171.725 186.268Z" fill="#263238"/>
<path d="M184.236 183.077L178.603 184.513L180.75 187.697L186.582 186.253L184.236 183.077Z" fill="#263238"/>
<path d="M189.782 181.666L184.994 182.886L187.348 186.07L192.295 184.841L189.782 181.666Z" fill="#263238"/>
<path d="M157.435 185.351L153.725 186.364L155.472 189.667L159.286 188.694L157.435 185.351Z" fill="#263238"/>
<path d="M168.765 181.498L166.874 178.442L161.624 179.863L163.348 182.982L168.765 181.498Z" fill="#263238"/>
<path d="M177.422 184.065L175.029 180.531L169.898 181.935L172.061 185.43L177.422 184.065Z" fill="#263238"/>
<path d="M162.629 183.172L160.898 180.052L156.055 181.369L157.794 184.496L162.629 183.172Z" fill="#263238"/>
<path d="M153.382 185.711L157.076 184.697L155.337 181.562L151.706 182.543L153.382 185.711Z" fill="#263238"/>
<path d="M158.345 175.448L156.398 171.921L151.563 173.254L153.462 176.685L158.345 175.448Z" fill="#263238"/>
<path d="M183.774 182.448L181.133 178.865L175.771 180.333L178.172 183.876L183.774 182.448Z" fill="#263238"/>
<path d="M160.539 179.399L158.712 176.104L153.829 177.349L155.696 180.716L160.539 179.399Z" fill="#263238"/>
<path d="M173.449 167.223L176.17 170.909L180.438 169.824L177.502 166.106L173.449 167.223Z" fill="#263238"/>
<path d="M168.143 160.026L171.925 159.028L170.225 156.882L166.523 157.823L168.143 160.026Z" fill="#263238"/>
<path d="M164.728 155.39L166.052 157.193L169.739 156.259L168.406 154.576L164.728 155.39Z" fill="#263238"/>
<path d="M189.287 181.042L186.431 177.412L181.883 178.656L184.532 182.255L189.287 181.042Z" fill="#263238"/>
<path d="M168.606 160.655L170.513 163.232L174.406 162.179L172.412 159.649L168.606 160.655Z" fill="#263238"/>
<path d="M179.25 175.091L181.42 178.035L185.944 176.798L183.654 173.902L179.25 175.091Z" fill="#263238"/>
<path d="M164.249 154.752L167.911 153.946L166.77 152.494L163.14 153.236L164.249 154.752Z" fill="#263238"/>
<path d="M172.986 166.599L177.015 165.482L174.901 162.801L170.975 163.862L172.986 166.599Z" fill="#263238"/>
<path d="M205.357 151.831V158.357C204.694 158.998 203.963 159.565 203.178 160.049C201.974 160.775 192.056 162.443 192.056 162.443L204.631 176.238C204.631 176.238 216.16 174.977 219.392 174.06C222.775 173.086 222.049 160.751 222.049 160.751L205.357 151.831Z" fill="white" stroke="#263238" stroke-width="0.624476" stroke-linecap="round" stroke-linejoin="round"/>
<path d="M205.357 151.831V158.357C205.357 158.357 205.181 158.533 204.894 158.788L219.599 173.996C222.743 172.584 222.049 160.775 222.049 160.775L205.357 151.831Z" fill="#263238" stroke="#263238" stroke-width="0.624476" stroke-linecap="round" stroke-linejoin="round"/>
<path d="M183.103 68.3721V137.557L235.836 179.16V72.2419L183.103 68.3721Z" fill="white" stroke="#263238" stroke-width="0.624476" stroke-linecap="round" stroke-linejoin="round"/>
<path d="M186.734 72.002V130.296L231.001 157.632V75.8717L186.734 72.002Z" fill="#4763B7" stroke="#263238" stroke-width="0.624476" stroke-linecap="round" stroke-linejoin="round"/>
<path d="M241.158 72.2427H235.836V179.184H241.158V72.2427Z" fill="#263238" stroke="#263238" stroke-width="0.624476" stroke-linecap="round" stroke-linejoin="round"/>
<path d="M189.638 75.6318L189.878 127.639L226.884 148.679V84.281L201.487 80.4352L199.795 76.8367L189.638 75.6318Z" fill="white" stroke="#263238" stroke-width="0.624476" stroke-linecap="round" stroke-linejoin="round"/>
<path d="M192.056 81.9219V126.189L224.714 143.607V87.7305L192.056 81.9219Z" fill="#4763B7" stroke="#263238" stroke-width="0.624476" stroke-linecap="round" stroke-linejoin="round"/>
<path d="M211.156 125.126C215.763 123.579 217.77 117.178 215.638 110.828C213.506 104.478 208.043 100.585 203.435 102.132C198.827 103.679 196.82 110.081 198.952 116.43C201.084 122.78 206.548 126.673 211.156 125.126Z" fill="#263238"/>
<path d="M197.856 96.9189L216.144 102.289" stroke="#263238" stroke-width="0.624476" stroke-linecap="round" stroke-linejoin="round"/>
<path d="M197.13 91.8389L220.836 98.4534" stroke="#263238" stroke-width="0.624476" stroke-linecap="round" stroke-linejoin="round"/>
<path d="M213.471 205.825C213.471 205.825 201.91 206.894 197.633 210.317C193.356 213.74 196.564 215.456 200.625 216.525C204.686 217.594 222.886 215.879 225.24 213.525C227.594 211.171 225.24 205.394 213.471 205.825Z" fill="white" stroke="#263238" stroke-width="0.624476" stroke-linecap="round" stroke-linejoin="round"/>
<path d="M225.24 213.555C225.695 213.102 225.977 212.503 226.038 211.864C220.86 211.609 214.07 213.109 207.902 215.055C205.82 215.718 203.705 216.275 201.567 216.723C206.944 217.369 223.038 215.726 225.24 213.555Z" fill="#263238" stroke="#263238" stroke-width="0.624476" stroke-linecap="round" stroke-linejoin="round"/>
<path d="M172.483 78.8418L180.933 83.2382" stroke="#263238" stroke-width="0.832635" stroke-linecap="round" stroke-linejoin="round"/>
<path d="M167.632 76.3179L170.146 77.6264" stroke="#263238" stroke-width="0.832635" stroke-linecap="round" stroke-linejoin="round"/>
<path d="M174.343 100.991L177.207 101.318" stroke="#263238" stroke-width="0.832635" stroke-linecap="round" stroke-linejoin="round"/>
<path d="M163.379 99.7227L171.103 100.616" stroke="#263238" stroke-width="0.832635" stroke-linecap="round" stroke-linejoin="round"/>
<path d="M176.146 121.537L166.571 124.194" stroke="#263238" stroke-width="0.832635" stroke-linecap="round" stroke-linejoin="round"/>
<path d="M163.786 4.51074C159.257 4.51074 154.83 5.85378 151.064 8.37001C147.298 10.8862 144.363 14.4627 142.63 18.647C140.897 22.8313 140.443 27.4357 141.327 31.8778C142.21 36.3198 144.391 40.4001 147.594 43.6027C150.796 46.8052 154.877 48.9862 159.319 49.8698C163.761 50.7534 168.365 50.2999 172.549 48.5667C176.734 46.8335 180.31 43.8984 182.826 40.1326C185.343 36.3668 186.686 31.9394 186.686 27.4103C186.686 21.3369 184.273 15.5124 179.979 11.2179C175.684 6.92337 169.86 4.51074 163.786 4.51074V4.51074ZM163.786 45.8097C160.147 45.8081 156.591 44.7277 153.566 42.705C150.541 40.6823 148.184 37.8081 146.793 34.4459C145.402 31.0837 145.038 27.3844 145.749 23.8158C146.46 20.2472 148.213 16.9695 150.787 14.3971C153.36 11.8247 156.639 10.0731 160.208 9.36382C163.776 8.65452 167.476 9.01935 170.837 10.4122C174.199 11.805 177.072 14.1633 179.093 17.1889C181.115 20.2145 182.194 23.7716 182.194 27.4103C182.198 29.8295 181.725 32.2258 180.801 34.4619C179.878 36.698 178.522 38.7299 176.813 40.4413C175.103 42.1527 173.072 43.5099 170.837 44.4352C168.601 45.3605 166.205 45.8357 163.786 45.8336V45.8097Z" fill="#263238"/>
<path d="M165.422 27.4332C165.43 27.7583 165.341 28.0784 165.166 28.3525C164.991 28.6267 164.738 28.8426 164.44 28.9725C164.142 29.1024 163.812 29.1406 163.492 29.082C163.172 29.0235 162.877 28.871 162.644 28.6439C162.412 28.4168 162.252 28.1255 162.185 27.8072C162.119 27.4888 162.149 27.1579 162.272 26.8567C162.394 26.5555 162.604 26.2976 162.873 26.1161C163.143 25.9345 163.461 25.8375 163.786 25.8374C164.213 25.8373 164.623 26.0041 164.929 26.3023C165.234 26.6005 165.411 27.0063 165.422 27.4332V27.4332Z" fill="#263238"/>
<path d="M158 19.0001L163.482 27.3062L172.745 19.6384" stroke="#263238" stroke-width="0.832635" stroke-linecap="round" stroke-linejoin="round"/>
<path d="M42.267 44.9888L39.5143 37.4647L40.9824 39.1163V36.5471L44.1022 41.3185L41.3494 24.2516L45.0197 33.6108L45.3868 25.3526L45.9373 28.1054L46.6714 18.7461L47.956 33.0603L49.7911 28.1054L49.4241 34.5284L54.379 19.8472L51.9933 38.1987L55.4801 35.6295L53.4615 38.9328L56.0307 37.0976L53.1024 45.5393L42.4505 45.7229" fill="#4763B7"/>
<path d="M54.0438 63.5241H42.5701L39.4742 43.6406H57.1316L54.0438 63.5241Z" fill="#263238" stroke="#263238" stroke-width="0.832635" stroke-linecap="round" stroke-linejoin="round"/>
<path d="M85.4569 63.3896H27.5378V217.471H85.4569V63.3896Z" fill="white" stroke="#263238" stroke-width="0.832635" stroke-linecap="round" stroke-linejoin="round"/>
<path d="M81.5153 68.4473H30.905V105.557H81.5153V68.4473Z" stroke="#263238" stroke-width="0.832635" stroke-linecap="round" stroke-linejoin="round"/>
<path d="M66.3313 83.6299H46.0888V90.3801H66.3313V83.6299Z" fill="#263238"/>
<path d="M81.5153 111.748H30.905V148.858H81.5153V111.748Z" stroke="#263238" stroke-width="0.832635" stroke-linecap="round" stroke-linejoin="round"/>
<path d="M66.3313 126.933H46.0888V133.683H66.3313V126.933Z" fill="#263238"/>
<path d="M81.5153 155.041H30.905V192.151H81.5153V155.041Z" stroke="#263238" stroke-width="0.832635" stroke-linecap="round" stroke-linejoin="round"/>
<path d="M66.3313 170.227H46.0888V176.977H66.3313V170.227Z" fill="#263238"/>
<path d="M91.6645 208.678C91.6645 208.678 120.692 195.856 136.299 194.891L147.685 220.048H61.6876L91.6645 208.678Z" fill="#263238" stroke="#263238" stroke-width="0.624476" stroke-linecap="round" stroke-linejoin="round"/>
<path d="M74.0868 220.258C82.4328 218.854 93.1246 213.117 96.3082 205.896C93.9145 193.377 90.8905 175.743 90.8905 164.956C90.8905 146.828 95.6778 136.535 93.4996 124.263C91.3213 111.992 86.7414 103.989 81.8264 100.757C81.8264 100.757 74.3023 102.752 66.6186 109.973C58.9348 117.194 52.1767 129.609 49.5436 141.442C46.9106 153.275 43.3999 189.683 43.3999 199.209C43.3999 208.736 42.7137 220.561 42.7137 220.561C51.9134 220.561 61.1131 220.561 70.3128 220.561C71.5774 220.573 72.8404 220.472 74.0868 220.258V220.258Z" fill="white"/>
<path d="M96.3081 205.884C91.6325 209.873 70.5761 217.621 67.5042 218.307C64.4323 218.993 66.1398 212.498 70.9192 206.011C75.6986 199.524 65.1105 208.405 63.403 209.083C61.6955 209.761 64.0892 196.445 64.0892 189.934C64.0892 183.423 70.241 128.113 70.241 128.113L81.8503 106.929L85.8398 104.535C84.7254 103.054 83.3781 101.763 81.8503 100.713C81.8503 100.713 74.3262 102.708 66.6425 109.929C58.9588 117.15 52.1767 129.605 49.5436 141.438C46.9106 153.271 43.3998 189.678 43.3998 199.205C43.3998 208.732 42.7137 220.557 42.7137 220.557C51.9134 220.557 61.1131 220.557 70.3128 220.557C71.573 220.558 72.8307 220.445 74.0709 220.222C82.4328 218.849 93.1245 213.113 96.3081 205.884Z" fill="#4763B7"/>
<path opacity="0.5" d="M96.3081 205.884C91.6325 209.873 70.5761 217.621 67.5042 218.307C64.4323 218.993 66.1398 212.498 70.9192 206.011C75.6986 199.524 65.1105 208.405 63.403 209.083C61.6955 209.761 64.0892 196.445 64.0892 189.934C64.0892 183.423 70.241 128.113 70.241 128.113L81.8503 106.929L85.8398 104.535C84.7254 103.054 83.3781 101.763 81.8503 100.713C81.8503 100.713 74.3262 102.708 66.6425 109.929C58.9588 117.15 52.1767 129.605 49.5436 141.438C46.9106 153.271 43.3998 189.678 43.3998 199.205C43.3998 208.732 42.7137 220.557 42.7137 220.557C51.9134 220.557 61.1131 220.557 70.3128 220.557C71.573 220.558 72.8307 220.445 74.0709 220.222C82.4328 218.849 93.1245 213.113 96.3081 205.884Z" fill="white"/>
<path d="M74.0868 220.258C82.4328 218.854 93.1246 213.117 96.3082 205.896C93.9145 193.377 90.8905 175.743 90.8905 164.956C90.8905 146.828 95.6778 136.535 93.4996 124.263C91.3213 111.992 86.7414 103.989 81.8264 100.757C81.8264 100.757 74.3023 102.752 66.6186 109.973C58.9348 117.194 52.1767 129.609 49.5436 141.442C46.9106 153.275 43.3999 189.683 43.3999 199.209C43.3999 208.736 42.7137 220.561 42.7137 220.561C51.9134 220.561 61.1131 220.561 70.3128 220.561C71.5774 220.573 72.8404 220.472 74.0868 220.258V220.258Z" stroke="#263238" stroke-width="0.624476" stroke-linecap="round" stroke-linejoin="round"/>
<path d="M81.3796 103.581L94.5767 127.613L95.2869 140.794C95.2869 140.794 98.9651 131.395 97.3295 125.259C95.6938 119.124 81.3796 103.581 81.3796 103.581Z" fill="#263238" stroke="#263238" stroke-width="0.624476" stroke-linecap="round" stroke-linejoin="round"/>
<path d="M95.279 140.803L91.6007 196.424L95.6939 207.874L98.5583 184.967L96.1008 139.16L95.279 140.803Z" fill="#263238" stroke="#263238" stroke-width="0.624476" stroke-linecap="round" stroke-linejoin="round"/>
<path d="M91.6566 81.0562C91.6566 81.0562 92.1193 87.0484 92.5821 89.9687C93.0449 92.889 85.824 101.059 85.824 101.059L96.2684 116.882L108.101 107.666C108.101 107.666 124.857 106.437 126.381 105.049C127.905 103.661 127.921 88.4607 127.921 88.4607L131.91 86.1548C131.91 86.1548 128.224 70.1969 127.306 66.6383L126.381 63.1116C126.381 63.1116 131.759 61.2605 130.53 55.9306C129.301 50.6006 121.466 47.9516 113.631 49.1644C105.795 50.3772 103.8 53.3135 103.8 53.3135C103.8 53.3135 92.7337 53.1619 86.4383 58.3881C80.143 63.6143 83.9808 71.9044 85.9756 74.8247C87.673 77.0726 89.5747 79.1587 91.6566 81.0562V81.0562Z" fill="white"/>
<path d="M110.183 102.519C107.112 98.7605 110.183 84.4144 112.577 77.2413C114.971 70.0683 109.162 66.9964 109.162 66.9964L126.604 63.9883L126.365 63.0867C127.544 62.6257 128.593 61.8834 129.421 60.9244L130.362 55.379C128.766 50.3364 121.21 47.9108 113.606 49.0996C105.771 50.3284 103.776 53.2487 103.776 53.2487C103.776 53.2487 92.7096 53.0971 86.4142 58.3233C80.1189 63.5495 83.9567 71.8396 85.9515 74.7599C87.6458 77.03 89.5476 79.1375 91.6324 81.0552C91.6324 81.0552 92.0952 87.0474 92.558 89.9677C93.0208 92.888 85.8238 101.058 85.8238 101.058L96.2682 116.881L108.101 107.665C108.101 107.665 120.867 106.723 125.144 105.567L126.381 105.048C126.381 105.048 113.271 106.277 110.183 102.519Z" fill="#4763B7"/>
<path opacity="0.5" d="M110.183 102.519C107.112 98.7605 110.183 84.4144 112.577 77.2413C114.971 70.0683 109.162 66.9964 109.162 66.9964L126.604 63.9883L126.365 63.0867C127.544 62.6257 128.593 61.8834 129.421 60.9244L130.362 55.379C128.766 50.3364 121.21 47.9108 113.606 49.0996C105.771 50.3284 103.776 53.2487 103.776 53.2487C103.776 53.2487 92.7096 53.0971 86.4142 58.3233C80.1189 63.5495 83.9567 71.8396 85.9515 74.7599C87.6458 77.03 89.5476 79.1375 91.6324 81.0552C91.6324 81.0552 92.0952 87.0474 92.558 89.9677C93.0208 92.888 85.8238 101.058 85.8238 101.058L96.2682 116.881L108.101 107.665C108.101 107.665 120.867 106.723 125.144 105.567L126.381 105.048C126.381 105.048 113.271 106.277 110.183 102.519Z" fill="white"/>
<path d="M119.16 73.9932C119.16 73.9932 119.16 73.7538 119.16 73.3788C119.16 72.1899 119.359 69.6207 121.346 68.9186C123.955 68.001 126.133 70.4585 126.133 70.4585L126.285 72.916C125.91 72.4468 125.416 72.0857 124.855 71.8698C124.295 71.6539 123.687 71.5909 123.093 71.6872C121.567 72.0081 120.186 72.8176 119.16 73.9932V73.9932Z" fill="#263238"/>
<path d="M123.62 78.9099C123.62 80.1786 123.269 81.2158 122.822 81.2158C122.375 81.2158 122.024 80.1786 122.024 78.9099C122.024 77.6413 122.367 76.604 122.822 76.604C123.277 76.604 123.62 77.6333 123.62 78.9099Z" fill="#263238"/>
<path d="M91.6566 81.0562C91.6566 81.0562 92.1193 87.0484 92.5821 89.9687C93.0449 92.889 85.824 101.059 85.824 101.059L96.2684 116.882L108.101 107.666C108.101 107.666 124.857 106.437 126.381 105.049C127.905 103.661 127.921 88.4607 127.921 88.4607L131.91 86.1548C131.91 86.1548 128.224 70.1969 127.306 66.6383L126.381 63.1116C126.381 63.1116 131.759 61.2605 130.53 55.9306C129.301 50.6006 121.466 47.9516 113.631 49.1644C105.795 50.3772 103.8 53.3135 103.8 53.3135C103.8 53.3135 92.7337 53.1619 86.4383 58.3881C80.143 63.6143 83.9808 71.9044 85.9756 74.8247C87.673 77.0726 89.5747 79.1587 91.6566 81.0562V81.0562Z" stroke="#263238" stroke-width="0.624476" stroke-linecap="round" stroke-linejoin="round"/>
<path d="M106.41 66.001C109.178 64.1578 126.357 63.0887 126.357 63.0887C126.357 63.0887 131.735 61.2375 130.506 55.9076C129.277 50.5777 121.442 47.9287 113.607 49.1415C105.771 50.3543 103.777 53.2905 103.777 53.2905C103.777 53.2905 92.7097 53.1389 86.4144 58.3651C80.119 63.5913 83.9568 71.8814 85.9516 74.8017C87.6459 77.0719 89.5477 79.1794 91.6326 81.0971C91.6326 81.0971 91.8879 84.3844 92.2071 87.2808L96.9944 88.6292L102.221 85.8605L107.447 84.6318C107.447 84.6318 103.601 81.7115 105.755 78.9508C107.91 76.1901 111.899 75.2645 112.051 73.1102C112.202 70.9559 103.641 67.8441 106.41 66.001Z" fill="#263238" stroke="#263238" stroke-width="0.624476" stroke-linecap="round" stroke-linejoin="round"/>
<path d="M123.181 57.0732C123.181 57.0732 121.378 53.77 124.681 54.3684C127.985 54.9668 127.985 60.6797 125.28 61.8766C122.575 63.0734 107.862 60.3765 99.7472 62.7782C91.6326 65.1798 85.9357 71.7864 85.9357 71.7864" stroke="white" stroke-width="0.832635" stroke-miterlimit="10" stroke-linecap="round"/>
<path d="M90.4438 76.893C90.4438 76.893 96.7552 71.4912 101.854 70.5896C106.952 69.688 109.665 69.688 103.96 72.9833C98.2552 76.2786 102.157 75.6802 105.763 74.4833" stroke="white" stroke-width="0.832635" stroke-miterlimit="10" stroke-linecap="round"/>
<path d="M103.641 88.7393C103.641 88.7393 102.723 79.0609 97.96 78.7577C93.1965 78.4545 93.3481 85.3643 94.7684 90.1277C96.1886 94.8911 99.5558 96.423 102.293 93.9655" fill="#4763B7"/>
<g opacity="0.5">
<path d="M103.641 88.7388C103.641 88.7388 102.723 79.0604 97.9599 78.7572C93.1965 78.454 93.3481 85.3638 94.7684 90.1272C96.1886 94.8906 99.5557 96.4226 102.292 93.965" fill="white"/>
<path d="M103.641 88.7388C103.641 88.7388 102.723 79.0604 97.9599 78.7572C93.1965 78.454 93.3481 85.3638 94.7684 90.1272C96.1886 94.8906 99.5557 96.4226 102.292 93.965" stroke="#263238" stroke-width="0.624476" stroke-linecap="round" stroke-linejoin="round"/>
</g>
<path d="M103.641 88.7393C103.641 88.7393 102.723 79.0609 97.96 78.7577C93.1965 78.4545 93.3481 85.3643 94.7684 90.1277C96.1886 94.8911 99.5558 96.423 102.293 93.9655" stroke="#263238" stroke-width="0.624476" stroke-linecap="round" stroke-linejoin="round"/>
<path d="M86.2469 95.1958L101.614 118.55L94.545 127.614C91.3613 121.472 87.8233 115.521 83.949 109.789C78.7228 102.417 78.1084 101.188 78.1084 101.188L86.2469 95.1958Z" fill="white"/>
<path d="M86.2468 95.1938L78.1083 101.186C78.1083 101.186 78.5631 102.088 81.9142 106.899L90.5155 101.681L86.2468 95.1938Z" fill="#4763B7"/>
<path opacity="0.5" d="M86.2468 95.1938L78.1083 101.186C78.1083 101.186 78.5631 102.088 81.9142 106.899L90.5155 101.681L86.2468 95.1938Z" fill="white"/>
<path d="M86.2469 95.1958L101.614 118.55L94.545 127.614C91.3613 121.472 87.8233 115.521 83.949 109.789C78.7228 102.417 78.1084 101.188 78.1084 101.188L86.2469 95.1958Z" stroke="#263238" stroke-width="0.624476" stroke-linecap="round" stroke-linejoin="round"/>
<path d="M130 153.895C130 153.895 132.458 148.82 132.92 145.597C133.383 142.373 133.535 140.522 135.378 138.99C137.221 137.458 143.213 131.307 144.155 129.001C145.096 126.695 145.687 128.849 146.149 130.692C146.612 132.535 146.453 134.227 144.921 135.304C143.841 136.105 142.861 137.032 142 138.065L143.381 139.142C143.381 139.142 162.586 131.921 164.589 131.163C166.591 130.405 168.427 131.003 168.578 132.543C168.73 134.083 168.123 134.235 167.198 134.698C166.272 135.161 156.139 138.687 154.751 139.302L153.37 139.916L154.447 140.993C154.447 140.993 159.977 140.842 162.746 140.69C165.514 140.538 169.655 140.076 170.27 140.993C170.544 141.404 170.649 141.904 170.562 142.391C170.476 142.877 170.206 143.311 169.807 143.602C169.484 143.912 169.095 144.144 168.67 144.283C168.244 144.421 167.793 144.461 167.349 144.4C165.969 144.4 154.136 145.318 154.136 145.318L154.447 147.009C154.447 147.009 167.046 149.004 167.501 149.618C167.956 150.233 167.964 150.544 167.501 151.461C167.038 152.379 166.703 152.387 165.506 152.387C164.309 152.387 154.336 150.847 154.336 150.847C154.336 150.847 159.251 153.616 159.865 154.079C160.48 154.541 162.626 154.876 162.012 155.922C161.397 156.967 161.094 157.302 160.168 157.15C159.243 156.999 152.644 154.079 152.644 154.079C152.644 154.079 146.038 154.996 143.867 155.156C142.27 155.23 140.669 155.176 139.08 154.996L132.936 158.986L130 153.895Z" fill="white" stroke="#263238" stroke-width="0.624476" stroke-linecap="round" stroke-linejoin="round"/>
<path d="M85.9723 144.205C85.9723 144.205 81.5121 125.615 79.669 121.465C77.8258 117.316 67.3814 113.487 62.3068 122.543C57.2322 131.599 61.844 141.9 63.6952 149.272C65.5463 156.645 77.2115 189.965 78.903 194.138C80.5945 198.311 83.6904 197.329 85.358 196.906C87.0256 196.483 133.75 158.799 133.75 158.799L130.064 150.509L93.8077 169.124L85.9723 144.205Z" fill="white"/>
<path d="M84.6603 185.073C85.844 181.477 87.2101 177.943 88.7534 174.485C90.4609 171.07 80.5591 182.344 78.5085 176.193C76.4579 170.041 63.4842 139.306 65.8699 129.061C66.9047 124.301 69.6898 120.104 73.6733 117.3C69.8673 116.399 65.2076 117.356 62.3033 122.542C57.2367 131.606 61.8405 141.899 63.6916 149.272C65.5427 156.644 77.2079 189.964 78.8995 194.137C80.591 198.31 83.6868 197.329 85.3544 196.906C86.5832 196.571 111.685 176.52 125.249 165.645L84.6603 185.073Z" fill="#4763B7"/>
<path opacity="0.5" d="M84.6603 185.073C85.844 181.477 87.2101 177.943 88.7534 174.485C90.4609 171.07 80.5591 182.344 78.5085 176.193C76.4579 170.041 63.4842 139.306 65.8699 129.061C66.9047 124.301 69.6898 120.104 73.6733 117.3C69.8673 116.399 65.2076 117.356 62.3033 122.542C57.2367 131.606 61.8405 141.899 63.6916 149.272C65.5427 156.644 77.2079 189.964 78.8995 194.137C80.591 198.31 83.6868 197.329 85.3544 196.906C86.5832 196.571 111.685 176.52 125.249 165.645L84.6603 185.073Z" fill="white"/>
<path d="M85.9723 144.205C85.9723 144.205 81.5121 125.615 79.669 121.465C77.8258 117.316 67.3814 113.487 62.3068 122.543C57.2322 131.599 61.844 141.9 63.6952 149.272C65.5463 156.645 77.2115 189.965 78.903 194.138C80.5945 198.311 83.6904 197.329 85.358 196.906C87.0256 196.483 133.75 158.799 133.75 158.799L130.064 150.509L93.8077 169.124L85.9723 144.205Z" stroke="#263238" stroke-width="0.624476" stroke-linecap="round" stroke-linejoin="round"/>
<path d="M120.851 155.731L125 164.181" stroke="#263238" stroke-width="0.624476" stroke-linecap="round" stroke-linejoin="round"/>
<path d="M23.3888 113.338L2.16483 128.059C2.16483 128.059 12.6252 139.118 11.548 168.129C10.7502 190.287 13.6784 215.444 17.9312 220.559H40.5275C40.5275 220.559 32.7162 177.473 33.2747 152.786C33.7135 134.027 28.0804 121.006 23.3888 113.338Z" fill="white" stroke="#263238" stroke-width="0.624476" stroke-linecap="round" stroke-linejoin="round"/>
<path d="M25.942 113.338L4.71802 128.059C4.71802 128.059 15.1784 139.118 14.0933 168.129C13.2954 190.287 16.2236 215.444 20.4764 220.559H43.0807C43.0807 220.559 35.2773 177.473 35.8359 152.786C36.2587 134.027 30.6256 121.006 25.942 113.338Z" fill="#263238" stroke="#263238" stroke-width="0.624476" stroke-linecap="round" stroke-linejoin="round"/>
<path d="M23.3887 113.338H25.942L4.71804 128.059H2.17276L23.3887 113.338Z" fill="white" stroke="#263238" stroke-width="0.624476" stroke-linecap="round" stroke-linejoin="round"/>
<path d="M202.954 119.461C202.608 119.335 202.343 119.041 202.242 118.664L200.873 113.574C200.831 113.417 200.819 113.251 200.837 113.086C200.856 112.92 200.905 112.759 200.981 112.61C201.058 112.462 201.161 112.33 201.284 112.221C201.407 112.112 201.547 112.03 201.698 111.977C201.849 111.924 202.007 111.903 202.162 111.914C202.318 111.926 202.468 111.97 202.605 112.044C202.741 112.118 202.861 112.221 202.958 112.346C203.055 112.472 203.126 112.617 203.169 112.775L204.07 116.122L211.742 109.683C211.997 109.471 212.315 109.37 212.628 109.403C212.94 109.435 213.222 109.599 213.411 109.857C213.804 110.395 213.695 111.192 213.166 111.636L204.102 119.239C203.947 119.369 203.766 119.459 203.575 119.501C203.384 119.542 203.188 119.534 203.005 119.477C202.987 119.473 202.971 119.467 202.954 119.461V119.461Z" fill="white"/>
<path d="M122 95C122 95 122 95.0907 122 95.2327C122 95.6831 122.168 96.6563 123.841 96.9223C126.038 97.2699 127.872 96.3389 127.872 96.3389L128 95.408C127.684 95.5858 127.268 95.7225 126.796 95.8043C126.324 95.8861 125.812 95.91 125.312 95.8735C124.027 95.7519 122.864 95.4453 122 95V95Z" fill="#263238"/>
</svg>
