<?xml version="1.0" standalone="no"?>
<!DOCTYPE svg PUBLIC "-//W3C//DTD SVG 20010904//EN"
 "http://www.w3.org/TR/2001/REC-SVG-20010904/DTD/svg10.dtd">
<svg version="1.0" xmlns="http://www.w3.org/2000/svg"
 width="512.000000pt" height="512.000000pt" viewBox="0 0 512.000000 512.000000"
 preserveAspectRatio="xMidYMid meet">
<metadata>
Created by potrace 1.16, written by Peter Selinger 2001-2019
</metadata>
<g transform="translate(0.000000,512.000000) scale(0.100000,-0.100000)"
fill="#000000" stroke="none">
<path d="M2289 5105 c-246 -39 -491 -133 -697 -268 -145 -95 -172 -121 -172
-167 0 -30 6 -43 26 -59 42 -33 72 -26 153 34 285 211 606 316 966 316 772 -2
1420 -533 1587 -1301 19 -91 22 -133 22 -320 0 -183 -3 -230 -22 -316 -53
-246 -157 -473 -309 -673 -20 -26 -33 -56 -33 -73 0 -39 40 -78 81 -78 40 0
77 38 159 163 121 183 208 396 258 626 24 115 26 145 27 351 0 196 -3 240 -23
340 -92 456 -343 846 -719 1117 -160 115 -400 224 -610 278 -180 45 -505 59
-694 30z"/>
<path d="M2375 4648 c-58 -32 -105 -96 -105 -145 0 -41 -10 -51 -75 -73 -33
-11 -90 -35 -128 -52 -56 -26 -72 -30 -85 -20 -65 47 -149 64 -209 41 -32 -12
-228 -201 -249 -241 -30 -58 -15 -156 37 -229 9 -12 2 -39 -31 -125 -23 -60
-46 -119 -51 -131 -7 -18 -16 -23 -44 -23 -72 0 -147 -53 -172 -122 -18 -51
-17 -300 2 -346 31 -72 84 -110 169 -121 l50 -6 31 -80 c17 -44 42 -99 54
-123 l22 -43 -31 -36 c-17 -19 -36 -46 -41 -60 -12 -33 -12 -115 2 -150 15
-40 196 -222 244 -244 71 -33 146 -21 212 36 l41 35 64 -28 c34 -16 87 -37
116 -46 58 -20 72 -37 72 -91 0 -69 49 -140 113 -164 37 -14 317 -14 354 0 64
24 113 95 113 164 0 54 14 71 72 91 29 9 82 30 116 46 l64 28 41 -35 c66 -57
141 -69 212 -36 48 22 229 204 244 244 14 35 14 117 2 150 -5 14 -24 41 -41
60 l-31 36 22 43 c12 24 37 79 54 123 l31 80 50 6 c85 11 138 49 169 121 19
46 20 295 2 346 -25 69 -100 122 -172 122 -28 0 -37 5 -44 23 -5 12 -28 71
-51 131 -33 86 -40 113 -31 125 52 73 67 171 37 229 -21 40 -217 229 -249 241
-60 23 -144 6 -209 -41 -13 -9 -30 -5 -95 24 -43 19 -101 43 -130 52 -48 16
-53 20 -59 54 -10 61 -14 72 -46 108 -53 60 -69 64 -250 64 -100 0 -171 -5
-183 -12z m305 -158 c11 -11 20 -32 20 -46 0 -38 39 -102 76 -125 18 -11 57
-28 87 -38 30 -11 89 -36 132 -56 69 -33 83 -37 140 -33 49 3 70 10 98 31 20
15 39 27 44 27 15 0 173 -165 173 -181 0 -9 -7 -22 -16 -30 -57 -47 -61 -143
-11 -255 19 -43 40 -97 47 -119 34 -107 84 -158 170 -171 25 -4 51 -11 58 -17
17 -13 17 -228 0 -245 -7 -7 -28 -12 -48 -12 -80 -1 -153 -59 -180 -145 -7
-22 -31 -78 -52 -124 -22 -47 -42 -98 -45 -116 -7 -45 13 -110 47 -149 17 -18
30 -40 30 -47 0 -14 -158 -179 -171 -179 -4 0 -26 15 -48 34 -81 68 -138 71
-267 14 -44 -19 -101 -43 -127 -53 -52 -19 -101 -55 -119 -89 -7 -11 -17 -50
-23 -86 l-10 -65 -125 0 -125 0 -10 65 c-6 36 -16 75 -23 86 -18 34 -67 71
-119 89 -26 10 -82 33 -123 52 -126 58 -190 55 -271 -13 -22 -19 -44 -34 -47
-34 -13 0 -172 165 -172 178 0 8 13 30 30 48 34 39 54 104 47 149 -3 18 -23
69 -45 116 -21 46 -45 102 -52 124 -27 86 -100 144 -180 145 -20 0 -41 5 -48
12 -17 17 -17 232 1 245 6 6 32 13 57 17 86 13 136 64 170 171 7 22 28 76 47
119 50 112 46 208 -11 255 -9 8 -16 21 -16 30 0 16 157 181 173 181 5 0 24
-12 44 -27 28 -21 49 -28 98 -31 57 -4 71 0 140 33 43 20 102 45 132 56 30 10
69 27 87 38 37 23 76 87 76 125 0 14 9 35 20 46 17 17 33 20 120 20 87 0 103
-3 120 -20z"/>
<path d="M2411 4150 c-300 -63 -538 -286 -617 -580 -25 -90 -25 -300 -1 -390
96 -357 400 -592 767 -592 303 0 560 155 700 423 64 123 84 212 84 364 0 151
-14 217 -75 342 -95 198 -266 344 -484 413 -79 25 -295 36 -374 20z m339 -178
c185 -60 347 -222 406 -407 48 -150 40 -309 -20 -442 l-26 -55 -63 64 c-35 35
-93 80 -130 102 l-66 38 21 42 c33 62 36 184 8 258 -26 71 -97 150 -164 186
-46 24 -61 27 -156 27 -95 0 -110 -3 -156 -27 -67 -36 -138 -115 -164 -186
-28 -74 -25 -196 8 -258 l21 -42 -66 -38 c-37 -22 -95 -67 -130 -102 l-64 -62
-25 57 c-153 345 47 753 418 853 95 26 252 22 348 -8z m-104 -361 c117 -71
123 -235 13 -308 -135 -89 -305 29 -275 191 8 40 46 90 91 117 41 26 129 25
171 0z m-86 -500 c30 0 78 8 107 18 50 17 53 17 100 -1 26 -10 75 -38 108 -63
56 -42 125 -117 125 -136 0 -11 -113 -95 -160 -119 -19 -10 -66 -28 -105 -40
-135 -43 -325 -26 -455 40 -47 24 -160 108 -160 119 0 19 69 94 125 136 33 25
82 53 108 63 47 18 50 18 100 1 29 -10 77 -18 107 -18z"/>
<path d="M1179 4468 c-52 -56 -169 -238 -219 -343 -133 -276 -187 -533 -177
-843 7 -237 41 -398 128 -617 77 -193 177 -348 367 -568 115 -134 207 -269
286 -419 l56 -105 -35 -27 c-42 -32 -83 -109 -91 -171 -8 -55 9 -128 42 -177
l24 -38 -25 -38 c-56 -85 -56 -212 0 -295 l25 -36 -24 -36 c-32 -47 -50 -130
-42 -187 4 -25 21 -69 39 -99 37 -63 111 -113 182 -124 l45 -6 0 -47 c0 -95
76 -207 175 -260 l50 -27 575 0 575 0 50 27 c99 53 175 165 175 260 l0 47 45
6 c71 11 145 61 182 124 18 30 35 74 39 99 9 57 -10 138 -42 185 l-25 37 25
37 c57 83 57 210 1 295 l-25 38 24 38 c33 49 50 122 42 177 -8 60 -49 139 -86
167 -17 12 -30 27 -30 33 0 22 89 185 159 293 82 125 91 165 45 201 -32 25
-62 27 -93 4 -35 -24 -152 -209 -218 -344 l-58 -117 -782 -1 -782 -1 -62 121
c-97 191 -192 328 -354 515 -206 237 -330 481 -397 781 -19 84 -22 128 -22
313 0 185 3 229 22 316 49 225 150 451 287 643 41 58 75 115 75 127 0 12 -9
33 -21 48 -31 40 -90 37 -130 -6z m2226 -3032 c41 -18 71 -71 61 -109 -3 -15
-17 -39 -30 -54 l-24 -28 -852 0 -852 0 -24 28 c-34 39 -40 73 -20 114 31 65
-4 62 894 63 687 0 818 -2 847 -14z m5 -371 c30 -16 60 -61 60 -90 0 -29 -30
-74 -60 -90 -25 -13 -111 -15 -620 -15 l-591 0 -26 -26 c-21 -21 -24 -32 -20
-62 12 -71 -29 -66 648 -72 l611 -5 24 -28 c34 -39 40 -73 20 -114 -31 -65 2
-63 -896 -63 -891 0 -863 -2 -895 60 -23 44 -13 92 26 124 28 24 38 26 125 26
87 0 97 2 119 25 33 32 33 78 0 110 -22 23 -32 25 -110 25 -98 0 -136 14 -160
60 -19 36 -19 53 0 90 32 62 -9 59 893 60 717 0 827 -2 852 -15z m-210 -759
c0 -61 -63 -130 -136 -146 -51 -12 -957 -12 -1008 0 -73 16 -136 85 -136 146
l0 34 640 0 640 0 0 -34z"/>
</g>
</svg>
