<?xml version="1.0" encoding="UTF-8" standalone="no"?>
<svg
   xmlns:dc="http://purl.org/dc/elements/1.1/"
   xmlns:cc="http://creativecommons.org/ns#"
   xmlns:rdf="http://www.w3.org/1999/02/22-rdf-syntax-ns#"
   xmlns:svg="http://www.w3.org/2000/svg"
   xmlns="http://www.w3.org/2000/svg"
   xmlns:sodipodi="http://sodipodi.sourceforge.net/DTD/sodipodi-0.dtd"
   xmlns:inkscape="http://www.inkscape.org/namespaces/inkscape"
   version="1.1"
   id="svg2"
   xml:space="preserve"
   width="850"
   height="480"
   viewBox="0 100 1466 880"
   sodipodi:docname="illus web.ai"><metadata
     id="metadata8"><rdf:RDF><cc:Work
         rdf:about=""><dc:format>image/svg+xml</dc:format><dc:type
           rdf:resource="http://purl.org/dc/dcmitype/StillImage" /></cc:Work></rdf:RDF></metadata><defs
     id="defs6"><linearGradient
       x1="0"
       y1="0"
       x2="1"
       y2="0"
       gradientUnits="userSpaceOnUse"
       gradientTransform="matrix(912.98682,0,0,-912.98682,133.82153,416.09024)"
       spreadMethod="pad"
       id="linearGradient28"><stop
         style="stop-opacity:1;stop-color:#dbe2f3"
         offset="0"
         id="stop24" /><stop
         style="stop-opacity:1;stop-color:#eaeff8"
         offset="1"
         id="stop26" /></linearGradient><clipPath
       clipPathUnits="userSpaceOnUse"
       id="clipPath38"><path
         d="M 0,800 H 1100 V 0 H 0 Z"
         id="path36" /></clipPath><clipPath
       clipPathUnits="userSpaceOnUse"
       id="clipPath74"><path
         d="m 531.765,615.732 h 43.033 v -43.044 h -43.033 z"
         id="path72" /></clipPath><clipPath
       clipPathUnits="userSpaceOnUse"
       id="clipPath90"><path
         d="m 496.801,650.202 h 109.08 V 538.214 h -109.08 z"
         id="path88" /></clipPath><clipPath
       clipPathUnits="userSpaceOnUse"
       id="clipPath134"><path
         d="m 706.454,545.821 h 23.512 v -23.519 h -23.512 z"
         id="path132" /></clipPath><clipPath
       clipPathUnits="userSpaceOnUse"
       id="clipPath150"><path
         d="m 688.508,563.513 h 57.387 v -58.919 h -57.387 z"
         id="path148" /></clipPath><linearGradient
       x1="0"
       y1="0"
       x2="1"
       y2="0"
       gradientUnits="userSpaceOnUse"
       gradientTransform="matrix(577.9303,0,0,-577.9303,463.51962,135.64906)"
       spreadMethod="pad"
       id="linearGradient178"><stop
         style="stop-opacity:1;stop-color:#c4d7ef"
         offset="0"
         id="stop172" /><stop
         style="stop-opacity:1;stop-color:#deeaf8"
         offset="1"
         id="stop174" /><stop
         style="stop-opacity:1;stop-color:#deeaf8"
         offset="1"
         id="stop176" /></linearGradient><linearGradient
       x1="0"
       y1="0"
       x2="1"
       y2="0"
       gradientUnits="userSpaceOnUse"
       gradientTransform="matrix(323.16565,0,0,-323.16565,131.52652,129.95058)"
       spreadMethod="pad"
       id="linearGradient200"><stop
         style="stop-opacity:1;stop-color:#c4d7ef"
         offset="0"
         id="stop194" /><stop
         style="stop-opacity:1;stop-color:#deeaf8"
         offset="1"
         id="stop196" /><stop
         style="stop-opacity:1;stop-color:#deeaf8"
         offset="1"
         id="stop198" /></linearGradient><clipPath
       clipPathUnits="userSpaceOnUse"
       id="clipPath210"><path
         d="M 0,800 H 1100 V 0 H 0 Z"
         id="path208" /></clipPath><linearGradient
       x1="0"
       y1="0"
       x2="1"
       y2="0"
       gradientUnits="userSpaceOnUse"
       gradientTransform="matrix(33.343533,0,0,-33.343533,288.81628,458.20322)"
       spreadMethod="pad"
       id="linearGradient236"><stop
         style="stop-opacity:1;stop-color:#5561ab"
         offset="0"
         id="stop232" /><stop
         style="stop-opacity:1;stop-color:#4d58a5"
         offset="1"
         id="stop234" /></linearGradient><linearGradient
       x1="0"
       y1="0"
       x2="1"
       y2="0"
       gradientUnits="userSpaceOnUse"
       gradientTransform="matrix(27.13114,0,0,-27.13114,292.73004,440.74933)"
       spreadMethod="pad"
       id="linearGradient256"><stop
         style="stop-opacity:1;stop-color:#5561ab"
         offset="0"
         id="stop252" /><stop
         style="stop-opacity:1;stop-color:#4d58a5"
         offset="1"
         id="stop254" /></linearGradient><linearGradient
       x1="0"
       y1="0"
       x2="1"
       y2="0"
       gradientUnits="userSpaceOnUse"
       gradientTransform="matrix(31.065752,0,0,-31.065752,290.12296,449.88626)"
       spreadMethod="pad"
       id="linearGradient276"><stop
         style="stop-opacity:1;stop-color:#5561ab"
         offset="0"
         id="stop272" /><stop
         style="stop-opacity:1;stop-color:#4d58a5"
         offset="1"
         id="stop274" /></linearGradient><clipPath
       clipPathUnits="userSpaceOnUse"
       id="clipPath286"><path
         d="M 0,800 H 1100 V 0 H 0 Z"
         id="path284" /></clipPath><linearGradient
       x1="0"
       y1="0"
       x2="1"
       y2="0"
       gradientUnits="userSpaceOnUse"
       gradientTransform="matrix(374.78085,0,0,-374.78085,261.67731,291.98053)"
       spreadMethod="pad"
       id="linearGradient578"><stop
         style="stop-opacity:1;stop-color:#6472b5"
         offset="0"
         id="stop572" /><stop
         style="stop-opacity:1;stop-color:#6472b5"
         offset="0.00354599"
         id="stop574" /><stop
         style="stop-opacity:1;stop-color:#5c6eb2"
         offset="1"
         id="stop576" /></linearGradient><clipPath
       clipPathUnits="userSpaceOnUse"
       id="clipPath588"><path
         d="M 0,800 H 1100 V 0 H 0 Z"
         id="path586" /></clipPath><linearGradient
       x1="0"
       y1="0"
       x2="1"
       y2="0"
       gradientUnits="userSpaceOnUse"
       gradientTransform="matrix(29.144659,0,0,-29.144659,724.45728,175.76189)"
       spreadMethod="pad"
       id="linearGradient628"><stop
         style="stop-opacity:1;stop-color:#6472b5"
         offset="0"
         id="stop622" /><stop
         style="stop-opacity:1;stop-color:#6472b5"
         offset="0.00354599"
         id="stop624" /><stop
         style="stop-opacity:1;stop-color:#5c6eb2"
         offset="1"
         id="stop626" /></linearGradient><linearGradient
       x1="0"
       y1="0"
       x2="1"
       y2="0"
       gradientUnits="userSpaceOnUse"
       gradientTransform="matrix(32.917477,0,0,-32.917477,646.75299,177.64813)"
       spreadMethod="pad"
       id="linearGradient650"><stop
         style="stop-opacity:1;stop-color:#6472b5"
         offset="0"
         id="stop644" /><stop
         style="stop-opacity:1;stop-color:#6472b5"
         offset="0.00354599"
         id="stop646" /><stop
         style="stop-opacity:1;stop-color:#5c6eb2"
         offset="1"
         id="stop648" /></linearGradient><clipPath
       clipPathUnits="userSpaceOnUse"
       id="clipPath660"><path
         d="M 0,800 H 1100 V 0 H 0 Z"
         id="path658" /></clipPath><linearGradient
       x1="0"
       y1="0"
       x2="1"
       y2="0"
       gradientUnits="userSpaceOnUse"
       gradientTransform="matrix(105.06158,0,0,-105.06158,653.58344,287.11804)"
       spreadMethod="pad"
       id="linearGradient704"><stop
         style="stop-opacity:1;stop-color:#6472b5"
         offset="0"
         id="stop698" /><stop
         style="stop-opacity:1;stop-color:#6472b5"
         offset="0.00354599"
         id="stop700" /><stop
         style="stop-opacity:1;stop-color:#5c6eb2"
         offset="1"
         id="stop702" /></linearGradient><clipPath
       clipPathUnits="userSpaceOnUse"
       id="clipPath714"><path
         d="M 0,800 H 1100 V 0 H 0 Z"
         id="path712" /></clipPath><linearGradient
       x1="0"
       y1="0"
       x2="1"
       y2="0"
       gradientUnits="userSpaceOnUse"
       gradientTransform="matrix(29.144659,0,0,-29.144659,115.05486,174.80054)"
       spreadMethod="pad"
       id="linearGradient814"><stop
         style="stop-opacity:1;stop-color:#6472b5"
         offset="0"
         id="stop808" /><stop
         style="stop-opacity:1;stop-color:#6472b5"
         offset="0.00354599"
         id="stop810" /><stop
         style="stop-opacity:1;stop-color:#5c6eb2"
         offset="1"
         id="stop812" /></linearGradient><linearGradient
       x1="0"
       y1="0"
       x2="1"
       y2="0"
       gradientUnits="userSpaceOnUse"
       gradientTransform="matrix(32.917301,0,0,-32.917301,188.98625,176.68678)"
       spreadMethod="pad"
       id="linearGradient836"><stop
         style="stop-opacity:1;stop-color:#6472b5"
         offset="0"
         id="stop830" /><stop
         style="stop-opacity:1;stop-color:#6472b5"
         offset="0.00354599"
         id="stop832" /><stop
         style="stop-opacity:1;stop-color:#5c6eb2"
         offset="1"
         id="stop834" /></linearGradient><linearGradient
       x1="0"
       y1="0"
       x2="1"
       y2="0"
       gradientUnits="userSpaceOnUse"
       gradientTransform="matrix(110.37105,0,0,-110.37105,104.70229,278.72592)"
       spreadMethod="pad"
       id="linearGradient858"><stop
         style="stop-opacity:1;stop-color:#6472b5"
         offset="0"
         id="stop852" /><stop
         style="stop-opacity:1;stop-color:#6472b5"
         offset="0.00354599"
         id="stop854" /><stop
         style="stop-opacity:1;stop-color:#5c6eb2"
         offset="1"
         id="stop856" /></linearGradient><clipPath
       clipPathUnits="userSpaceOnUse"
       id="clipPath868"><path
         d="M 0,800 H 1100 V 0 H 0 Z"
         id="path866" /></clipPath></defs><sodipodi:namedview
     pagecolor="#ffffff"
     bordercolor="#666666"
     borderopacity="1"
     objecttolerance="10"
     gridtolerance="10"
     guidetolerance="10"
     inkscape:pageopacity="0"
     inkscape:pageshadow="2"
     inkscape:window-width="640"
     inkscape:window-height="480"
     id="namedview4" /><g
     id="g10"
     inkscape:groupmode="layer"
     inkscape:label="illus web"
     transform="matrix(1.3333333,0,0,-1.3333333,0,1066.6667)"><g
       id="g12"><g
         id="g14"><g
           id="g20"><g
             id="g22"><path
               d="m 571.441,549.588 c -32.908,-53.233 -77.261,-23.987 -133.479,5.257 v 0 c -67.743,35.241 -152.716,70.481 -255.654,-38.583 v 0 C 72.57,399.991 179.182,220.067 209.448,174.302 v 0 c 4.638,-7.011 7.485,-10.876 7.485,-10.876 v 0 l 334.937,-0.101 101.417,-0.037 c 1.179,4.169 7.552,8.474 20.435,12.716 v 0 c 49.828,16.212 153.722,15.752 201.528,0.46 v 0 c 13.328,-4.279 20.425,-8.852 22.038,-13.249 v 0 l 101.52,-0.028 27.084,-0.009 c 1.512,3.201 2.94,6.34 4.267,9.421 v 0 c 2.199,5.07 4.155,9.965 5.88,14.713 v 0 C 1092.778,343.285 903.91,331.71 964.006,452.481 v 0 c 70.099,140.88 -34.395,216.523 -157.447,216.522 v 0 C 718.724,669.002 621.432,630.459 571.441,549.588"
               style="fill:url(#linearGradient28);stroke:none"
               id="path30" /></g></g></g></g><g
       id="g32"><g
         id="g34"
         clip-path="url(#clipPath38)"><g
           id="g40"
           transform="translate(666.868,531.303)"><path
             d="M 0,0 C -0.158,0 -0.319,0.039 -0.467,0.121 -0.933,0.38 -1.101,0.967 -0.842,1.432 -0.221,2.549 0.38,3.673 0.964,4.805 1.208,5.278 1.788,5.462 2.264,5.219 2.736,4.975 2.922,4.393 2.678,3.92 2.085,2.771 1.474,1.63 0.844,0.496 0.668,0.179 0.339,0 0,0"
             style="fill:#97b1dc;fill-opacity:1;fill-rule:nonzero;stroke:none"
             id="path42" /></g><g
           id="g44"
           transform="translate(434.4912,545.3468)"><path
             d="m 0,0 c -0.38,0 -0.741,0.227 -0.894,0.602 -0.953,2.349 -1.847,4.751 -2.656,7.139 -0.17,0.504 0.1,1.051 0.605,1.222 0.5,0.17 1.051,-0.1 1.222,-0.605 C -0.927,6.007 -0.047,3.642 0.894,1.327 1.094,0.833 0.856,0.271 0.363,0.071 0.244,0.023 0.121,0 0,0 m 8.864,-17.74 c -0.328,0 -0.647,0.167 -0.828,0.468 -1.306,2.176 -2.561,4.412 -3.727,6.644 -0.246,0.472 -0.064,1.055 0.408,1.302 0.471,0.245 1.055,0.064 1.302,-0.409 1.148,-2.199 2.384,-4.4 3.671,-6.544 0.274,-0.457 0.126,-1.049 -0.331,-1.323 C 9.204,-17.695 9.033,-17.74 8.864,-17.74 M 221.44,-30.582 c -0.207,0 -0.415,0.066 -0.591,0.204 -0.42,0.326 -0.495,0.933 -0.169,1.353 1.536,1.972 3.028,4.009 4.434,6.053 0.303,0.439 0.904,0.55 1.341,0.249 0.439,-0.303 0.55,-0.903 0.249,-1.341 -1.429,-2.076 -2.943,-4.144 -4.502,-6.146 -0.19,-0.244 -0.475,-0.372 -0.762,-0.372 M 20.352,-33.904 c -0.276,0 -0.55,0.119 -0.742,0.348 -1.615,1.939 -3.197,3.955 -4.702,5.991 -0.316,0.428 -0.225,1.032 0.203,1.349 0.431,0.317 1.033,0.224 1.349,-0.202 1.482,-2.007 3.04,-3.993 4.632,-5.905 0.341,-0.408 0.286,-1.017 -0.124,-1.358 -0.18,-0.149 -0.398,-0.223 -0.616,-0.223 m 187.743,-11.341 c -0.256,0 -0.511,0.102 -0.701,0.302 -0.366,0.388 -0.348,0.998 0.039,1.364 1.815,1.711 3.601,3.496 5.308,5.304 0.366,0.387 0.976,0.403 1.363,0.04 0.387,-0.366 0.405,-0.976 0.04,-1.363 -1.734,-1.836 -3.546,-3.647 -5.387,-5.384 -0.186,-0.176 -0.425,-0.263 -0.662,-0.263 M 34.16,-48.14 c -0.228,0 -0.456,0.08 -0.64,0.242 -1.886,1.671 -3.756,3.424 -5.553,5.212 -0.378,0.376 -0.379,0.986 -0.004,1.364 0.376,0.376 0.986,0.379 1.364,0.003 1.771,-1.76 3.612,-3.488 5.472,-5.134 0.398,-0.353 0.436,-0.962 0.083,-1.362 -0.191,-0.214 -0.456,-0.325 -0.722,-0.325 m 158.51,-9.585 c -0.306,0 -0.607,0.145 -0.795,0.416 -0.302,0.439 -0.192,1.04 0.246,1.342 2.052,1.415 4.089,2.91 6.054,4.442 0.42,0.327 1.026,0.253 1.354,-0.167 0.326,-0.42 0.252,-1.026 -0.168,-1.354 -1.995,-1.555 -4.062,-3.072 -6.144,-4.508 -0.167,-0.115 -0.359,-0.171 -0.547,-0.171 m -142.703,-2.37 c -0.178,0 -0.359,0.049 -0.52,0.153 -2.129,1.365 -4.243,2.811 -6.286,4.297 -0.43,0.314 -0.525,0.916 -0.212,1.347 0.315,0.431 0.918,0.525 1.348,0.212 2.01,-1.464 4.094,-2.888 6.192,-4.233 0.448,-0.287 0.578,-0.884 0.291,-1.332 -0.185,-0.288 -0.496,-0.444 -0.813,-0.444 m 125.557,-7.597 c -0.359,0 -0.704,0.201 -0.87,0.547 -0.231,0.479 -0.029,1.055 0.451,1.287 2.243,1.08 4.485,2.243 6.663,3.456 0.468,0.258 1.052,0.092 1.312,-0.374 0.259,-0.465 0.091,-1.052 -0.374,-1.311 -2.212,-1.232 -4.487,-2.413 -6.765,-3.509 -0.135,-0.065 -0.277,-0.096 -0.417,-0.096 M 67.432,-69.47 c -0.13,0 -0.262,0.026 -0.388,0.082 -2.318,1.021 -4.631,2.124 -6.875,3.275 -0.473,0.243 -0.66,0.825 -0.417,1.299 0.244,0.472 0.823,0.66 1.299,0.417 2.209,-1.135 4.487,-2.22 6.77,-3.227 0.488,-0.214 0.709,-0.784 0.494,-1.271 -0.159,-0.361 -0.512,-0.575 -0.883,-0.575 m 89.614,-5.422 c -0.414,0 -0.796,0.268 -0.923,0.685 -0.154,0.509 0.134,1.048 0.643,1.202 2.389,0.724 4.783,1.527 7.116,2.387 0.498,0.184 1.054,-0.072 1.238,-0.572 0.184,-0.5 -0.071,-1.053 -0.571,-1.238 -2.368,-0.873 -4.799,-1.688 -7.223,-2.422 -0.093,-0.029 -0.188,-0.042 -0.28,-0.042 m -70.907,-1.153 c -0.083,0 -0.167,0.01 -0.249,0.033 -2.444,0.652 -4.899,1.386 -7.298,2.179 -0.505,0.167 -0.779,0.713 -0.612,1.219 0.167,0.505 0.709,0.778 1.219,0.612 2.363,-0.782 4.781,-1.505 7.188,-2.148 0.515,-0.137 0.82,-0.666 0.682,-1.18 -0.115,-0.431 -0.504,-0.715 -0.93,-0.715 m 51.541,-3.117 c -0.474,0 -0.886,0.348 -0.954,0.83 -0.075,0.527 0.293,1.015 0.82,1.089 2.468,0.347 4.956,0.773 7.397,1.265 0.517,0.104 1.03,-0.234 1.136,-0.756 0.104,-0.521 -0.234,-1.03 -0.756,-1.135 -2.477,-0.499 -5.003,-0.93 -7.508,-1.284 -0.046,-0.006 -0.091,-0.009 -0.135,-0.009 m -32.049,-0.517 c -0.035,0 -0.07,0.002 -0.105,0.006 -2.518,0.273 -5.057,0.622 -7.545,1.039 -0.525,0.089 -0.879,0.586 -0.791,1.11 0.087,0.526 0.587,0.884 1.11,0.792 2.452,-0.411 4.952,-0.756 7.434,-1.024 0.529,-0.058 0.912,-0.533 0.854,-1.062 -0.053,-0.495 -0.471,-0.861 -0.957,-0.861 m 13.954,-0.752 c -0.569,0 -1.138,0.004 -1.708,0.011 -0.532,0.008 -0.957,0.445 -0.951,0.977 0.008,0.528 0.438,0.951 0.964,0.951 h 0.014 c 2.494,-0.033 5.013,0.008 7.502,0.121 0.496,0.034 0.983,-0.387 1.007,-0.92 0.024,-0.532 -0.388,-0.982 -0.92,-1.007 -1.959,-0.088 -3.947,-0.133 -5.908,-0.133"
             style="fill:#97b1dc;fill-opacity:1;fill-rule:nonzero;stroke:none"
             id="path46" /></g><g
           id="g48"
           transform="translate(428.4585,564.2924)"><path
             d="M 0,0 C -0.438,0 -0.833,0.299 -0.938,0.744 -1.233,2.006 -1.511,3.27 -1.769,4.537 -1.876,5.059 -1.539,5.569 -1.017,5.674 -0.496,5.779 0.014,5.445 0.12,4.922 0.374,3.673 0.648,2.427 0.94,1.185 1.061,0.666 0.739,0.147 0.221,0.025 0.147,0.008 0.073,0 0,0"
             style="fill:#97b1dc;fill-opacity:1;fill-rule:nonzero;stroke:none"
             id="path50" /></g><g
           id="g52"
           transform="translate(444.8063,662.6175)"><path
             d="M 0,0 C -0.176,0 -0.353,0.048 -0.513,0.149 -0.963,0.432 -1.099,1.028 -0.814,1.478 -0.126,2.57 0.58,3.656 1.303,4.732 1.6,5.174 2.2,5.294 2.641,4.995 3.084,4.698 3.2,4.099 2.904,3.657 2.19,2.596 1.495,1.527 0.816,0.45 0.634,0.159 0.32,0 0,0"
             style="fill:#97b1dc;fill-opacity:1;fill-rule:nonzero;stroke:none"
             id="path54" /></g><g
           id="g56"
           transform="translate(544.9439,722.6135)"><path
             d="m 0,0 c -0.502,0 -0.926,0.389 -0.96,0.896 -0.038,0.532 0.362,0.993 0.893,1.03 2.648,0.186 5.34,0.291 8.002,0.314 H 7.943 C 8.472,2.24 8.903,1.813 8.907,1.284 8.912,0.751 8.484,0.316 7.952,0.312 5.328,0.289 2.676,0.185 0.069,0.003 0.045,0.001 0.023,0 0,0 m 28.737,-1.183 c -0.048,0 -0.098,0.004 -0.147,0.012 -2.589,0.397 -5.224,0.718 -7.832,0.955 -0.53,0.048 -0.921,0.518 -0.873,1.048 0.049,0.53 0.507,0.923 1.048,0.873 2.647,-0.241 5.322,-0.568 7.949,-0.971 0.527,-0.081 0.888,-0.572 0.807,-1.098 -0.072,-0.478 -0.484,-0.819 -0.952,-0.819 m -49.349,-1.945 c -0.437,0 -0.834,0.299 -0.938,0.743 -0.122,0.518 0.2,1.038 0.717,1.16 2.594,0.611 5.235,1.148 7.849,1.595 0.537,0.085 1.024,-0.263 1.113,-0.787 0.091,-0.526 -0.262,-1.024 -0.787,-1.113 -2.576,-0.441 -5.178,-0.97 -7.732,-1.573 -0.074,-0.017 -0.149,-0.025 -0.222,-0.025 m 69.629,-2.864 c -0.098,0 -0.199,0.015 -0.297,0.047 -2.489,0.807 -5.038,1.547 -7.575,2.2 -0.516,0.133 -0.826,0.659 -0.694,1.174 0.133,0.516 0.667,0.826 1.175,0.694 2.575,-0.663 5.162,-1.415 7.689,-2.234 0.506,-0.164 0.783,-0.708 0.619,-1.215 -0.132,-0.407 -0.51,-0.666 -0.917,-0.666 M -40.449,-9.54 c -0.377,0 -0.736,0.223 -0.89,0.594 -0.205,0.491 0.029,1.055 0.52,1.261 2.449,1.018 4.969,1.975 7.489,2.843 0.505,0.173 1.052,-0.093 1.226,-0.597 0.173,-0.503 -0.094,-1.052 -0.597,-1.226 -2.482,-0.855 -4.964,-1.798 -7.378,-2.802 -0.12,-0.05 -0.246,-0.073 -0.37,-0.073 m 108.703,-4.47 c -0.149,0 -0.3,0.034 -0.441,0.107 -2.325,1.199 -4.719,2.341 -7.117,3.396 -0.488,0.214 -0.709,0.782 -0.495,1.27 0.213,0.488 0.782,0.711 1.27,0.494 2.434,-1.069 4.866,-2.228 7.225,-3.446 0.474,-0.244 0.659,-0.826 0.415,-1.298 -0.171,-0.333 -0.508,-0.523 -0.857,-0.523 m -127.24,-5.077 c -0.322,0 -0.636,0.161 -0.819,0.455 -0.281,0.452 -0.143,1.046 0.309,1.327 2.255,1.404 4.587,2.758 6.928,4.023 0.471,0.255 1.055,0.077 1.307,-0.39 0.253,-0.469 0.078,-1.053 -0.39,-1.307 -2.307,-1.245 -4.604,-2.579 -6.826,-3.962 -0.158,-0.099 -0.334,-0.146 -0.509,-0.146 m 144.923,-5.95 c -0.2,0 -0.401,0.062 -0.575,0.19 -2.101,1.563 -4.278,3.078 -6.471,4.505 -0.447,0.29 -0.573,0.888 -0.282,1.334 0.29,0.446 0.885,0.573 1.334,0.282 2.225,-1.449 4.436,-2.987 6.57,-4.573 0.427,-0.317 0.516,-0.921 0.199,-1.349 -0.19,-0.254 -0.481,-0.389 -0.775,-0.389 M -75.74,-31.504 c -0.269,0 -0.536,0.112 -0.726,0.33 -0.35,0.401 -0.31,1.01 0.091,1.361 2.007,1.752 4.089,3.463 6.191,5.085 0.425,0.324 1.028,0.246 1.353,-0.174 0.325,-0.422 0.247,-1.027 -0.174,-1.353 -2.072,-1.598 -4.124,-3.284 -6.101,-5.01 -0.182,-0.16 -0.409,-0.239 -0.634,-0.239 m 177.345,-7.271 c -0.252,0 -0.503,0.097 -0.692,0.292 -1.817,1.873 -3.722,3.72 -5.662,5.489 -0.394,0.359 -0.422,0.969 -0.063,1.362 0.359,0.396 0.97,0.423 1.362,0.063 1.97,-1.796 3.903,-3.67 5.747,-5.571 0.371,-0.382 0.361,-0.992 -0.021,-1.363 -0.187,-0.182 -0.429,-0.272 -0.671,-0.272 m -191.903,-7.651 c -0.217,0 -0.435,0.073 -0.615,0.222 -0.41,0.34 -0.466,0.949 -0.126,1.358 1.692,2.038 3.475,4.057 5.3,6.002 0.365,0.389 0.974,0.407 1.364,0.043 0.387,-0.365 0.407,-0.975 0.043,-1.363 -1.8,-1.916 -3.557,-3.906 -5.223,-5.913 -0.191,-0.23 -0.465,-0.349 -0.743,-0.349 m 205.19,-8.415 c -0.304,0 -0.603,0.143 -0.791,0.412 -1.5,2.142 -3.088,4.269 -4.721,6.321 -0.331,0.417 -0.262,1.023 0.154,1.354 0.418,0.334 1.023,0.263 1.355,-0.153 1.657,-2.084 3.27,-4.242 4.792,-6.417 0.305,-0.436 0.2,-1.037 -0.237,-1.343 -0.168,-0.117 -0.361,-0.174 -0.552,-0.174 m 10.53,-17.993 c -0.36,0 -0.704,0.201 -0.87,0.546 -1.137,2.365 -2.361,4.721 -3.637,7.001 -0.26,0.464 -0.094,1.052 0.371,1.313 0.465,0.258 1.052,0.093 1.312,-0.371 1.295,-2.315 2.538,-4.706 3.692,-7.107 0.231,-0.48 0.028,-1.057 -0.451,-1.287 -0.134,-0.065 -0.277,-0.095 -0.417,-0.095 m 7.472,-19.462 c -0.418,0 -0.803,0.272 -0.926,0.693 -0.736,2.513 -1.562,5.035 -2.453,7.499 -0.181,0.5 0.078,1.052 0.579,1.234 0.499,0.183 1.054,-0.078 1.235,-0.579 0.904,-2.499 1.742,-5.06 2.49,-7.612 0.15,-0.511 -0.143,-1.047 -0.654,-1.197 -0.091,-0.026 -0.182,-0.038 -0.271,-0.038"
             style="fill:#97b1dc;fill-opacity:1;fill-rule:nonzero;stroke:none"
             id="path58" /></g><g
           id="g60"
           transform="translate(681.5031,613.9017)"><path
             d="M 0,0 C -0.467,0 -0.878,0.34 -0.952,0.815 -1.148,2.074 -1.362,3.331 -1.598,4.586 -1.695,5.11 -1.35,5.614 -0.827,5.712 -0.306,5.802 0.201,5.463 0.298,4.94 0.536,3.667 0.754,2.391 0.954,1.113 1.036,0.587 0.676,0.093 0.15,0.011 0.099,0.004 0.049,0 0,0"
             style="fill:#97b1dc;fill-opacity:1;fill-rule:nonzero;stroke:none"
             id="path62" /></g><g
           id="g64"
           transform="translate(653.1031,597.7686)"><path
             d="m 0,0 c 0.051,0.659 -0.321,1.277 -0.927,1.541 l -17.284,7.508 c -1.336,8.699 -4.067,17.248 -8.23,25.291 l 9.538,16.239 c 0.335,0.57 0.271,1.289 -0.158,1.791 l -14.694,17.177 c -0.429,0.502 -1.13,0.676 -1.744,0.434 L -51.02,63.073 c -7.302,5.358 -15.323,9.381 -23.711,12.048 l -4.741,18.239 c -0.166,0.639 -0.719,1.102 -1.378,1.154 l -22.536,1.756 c -0.659,0.051 -1.277,-0.321 -1.54,-0.927 l -7.509,-17.285 c -8.699,-1.335 -17.247,-4.067 -25.291,-8.23 l -16.239,9.539 c -0.569,0.335 -1.288,0.271 -1.79,-0.158 l -17.178,-14.695 c -0.502,-0.429 -0.676,-1.129 -0.434,-1.744 l 6.909,-17.52 c -5.359,-7.302 -9.382,-15.324 -12.048,-23.711 l -18.24,-4.741 c -0.638,-0.166 -1.102,-0.72 -1.153,-1.378 l -1.756,-22.536 c -0.052,-0.659 0.321,-1.278 0.926,-1.541 l 17.285,-7.508 c 1.335,-8.699 4.067,-17.248 8.23,-25.291 l -9.539,-16.239 c -0.334,-0.57 -0.271,-1.289 0.158,-1.791 l 14.695,-17.177 c 0.429,-0.502 1.13,-0.676 1.744,-0.434 l 17.52,6.908 c 7.302,-5.358 15.324,-9.381 23.712,-12.048 l 4.74,-18.239 c 0.166,-0.639 0.72,-1.102 1.379,-1.154 l 22.536,-1.756 c 0.658,-0.051 1.277,0.321 1.54,0.927 l 7.509,17.284 c 8.699,1.336 17.247,4.068 25.291,8.23 l 16.239,-9.538 c 0.569,-0.335 1.288,-0.271 1.79,0.158 l 17.177,14.694 c 0.502,0.43 0.676,1.13 0.434,1.745 l -6.908,17.52 c 5.358,7.302 9.381,15.324 12.048,23.711 l 18.239,4.741 c 0.639,0.166 1.103,0.719 1.154,1.378 z"
             style="fill:#97b1dc;fill-opacity:1;fill-rule:nonzero;stroke:none"
             id="path66" /></g><g
           id="g68"><g
             id="g70" /><g
             id="g82"><g
               clip-path="url(#clipPath74)"
               opacity="0.699997"
               id="g80"><g
                 transform="translate(553.3146,612.8406)"
                 id="g78"><path
                   d="m 0,0 c -1.056,0 -2.12,-0.09 -3.182,-0.272 -4.903,-0.839 -9.187,-3.538 -12.06,-7.599 -5.933,-8.383 -3.94,-20.03 4.443,-25.962 4.061,-2.875 8.996,-3.992 13.902,-3.155 4.904,0.839 9.187,3.537 12.06,7.598 2.875,4.061 3.995,8.998 3.156,13.902 -0.839,4.904 -3.538,9.187 -7.599,12.061 C 7.538,-1.176 3.82,0 0,0 m -0.085,-40.153 c -4.413,-0.001 -8.709,1.358 -12.384,3.958 -9.686,6.854 -11.989,20.31 -5.135,29.995 3.32,4.692 8.269,7.809 13.935,8.779 5.665,0.967 11.368,-0.326 16.059,-3.645 4.692,-3.321 7.811,-8.269 8.78,-13.933 0.969,-5.666 -0.325,-11.37 -3.645,-16.061 -3.32,-4.692 -8.268,-7.81 -13.934,-8.779 -1.227,-0.21 -2.456,-0.314 -3.676,-0.314"
                   style="fill:#ffffff;fill-opacity:1;fill-rule:nonzero;stroke:none"
                   id="path76" /></g></g></g></g><g
           id="g84"><g
             id="g86" /><g
             id="g98"><g
               clip-path="url(#clipPath90)"
               opacity="0.699997"
               id="g96"><g
                 transform="translate(552.8843,538.2142)"
                 id="g94"><path
                   d="m 0,0 c -1.474,0 -2.954,0.057 -4.439,0.173 -14.911,1.161 -28.476,8.06 -38.197,19.425 -8.754,10.232 -13.448,22.982 -13.448,36.305 0,1.474 0.058,2.955 0.174,4.44 1.161,14.91 8.06,28.476 19.425,38.198 11.363,9.721 25.834,14.435 40.745,13.273 14.911,-1.161 28.476,-8.06 38.197,-19.425 2.596,-3.033 4.867,-6.339 6.749,-9.824 L 46.662,81.19 c -1.785,3.305 -3.939,6.441 -6.403,9.319 -9.219,10.778 -22.084,17.32 -36.223,18.422 -14.14,1.092 -27.863,-3.37 -38.641,-12.588 -10.778,-9.22 -17.32,-22.085 -18.422,-36.225 -0.11,-1.408 -0.164,-2.812 -0.164,-4.21 0,-12.635 4.452,-24.726 12.753,-34.43 C -31.219,10.7 -18.354,4.158 -4.215,3.056 9.936,1.954 23.65,6.425 34.426,15.644 c 7.315,6.258 12.788,14.364 15.826,23.442 l 2.744,-0.919 C 49.791,28.593 44.019,20.044 36.306,13.447 26.073,4.694 13.322,0 0,0"
                   style="fill:#ffffff;fill-opacity:1;fill-rule:nonzero;stroke:none"
                   id="path92" /></g></g></g></g><g
           id="g100"
           transform="translate(775.623,499.6526)"><path
             d="M 0,0 C -0.167,0 -0.336,0.043 -0.491,0.135 -0.949,0.406 -1.1,0.997 -0.829,1.456 -0.181,2.55 0.439,3.667 1.012,4.779 1.256,5.251 1.836,5.436 2.312,5.193 2.784,4.949 2.97,4.367 2.726,3.893 2.136,2.749 1.498,1.599 0.831,0.473 0.651,0.169 0.33,0 0,0"
             style="fill:#97b1dc;fill-opacity:1;fill-rule:nonzero;stroke:none"
             id="path102" /></g><g
           id="g104"
           transform="translate(662.7457,497.7628)"><path
             d="M 0,0 C -0.317,0 -0.629,0.156 -0.813,0.444 -2.226,2.65 -3.522,4.963 -4.667,7.323 -4.9,7.802 -4.7,8.378 -4.221,8.611 -3.74,8.842 -3.166,8.643 -2.933,8.164 -1.821,5.874 -0.561,3.626 0.811,1.484 1.098,1.036 0.968,0.44 0.519,0.153 0.358,0.049 0.178,0 0,0 m 99.94,-13.793 c -0.265,0 -0.529,0.109 -0.719,0.322 -0.355,0.397 -0.321,1.007 0.077,1.361 l 0.567,0.512 c 1.695,1.547 3.326,3.197 4.847,4.906 0.353,0.4 0.962,0.436 1.36,0.08 0.399,-0.354 0.435,-0.963 0.08,-1.36 -1.563,-1.76 -3.242,-3.46 -4.988,-5.052 l -0.582,-0.524 c -0.184,-0.164 -0.413,-0.245 -0.642,-0.245 m -86.498,-1.454 c -0.217,0 -0.437,0.073 -0.617,0.224 -2.004,1.673 -3.937,3.489 -5.744,5.394 -0.367,0.387 -0.351,0.997 0.035,1.364 0.387,0.365 0.999,0.35 1.364,-0.036 1.756,-1.853 3.633,-3.616 5.581,-5.242 0.408,-0.341 0.464,-0.949 0.122,-1.358 -0.19,-0.228 -0.464,-0.346 -0.741,-0.346 m 69.435,-9.598 c -0.369,0 -0.721,0.213 -0.881,0.571 -0.217,0.487 0.001,1.056 0.487,1.274 2.325,1.038 4.612,2.227 6.796,3.531 0.455,0.274 1.048,0.124 1.322,-0.333 0.273,-0.458 0.125,-1.049 -0.333,-1.322 -2.25,-1.344 -4.604,-2.567 -6.998,-3.637 -0.128,-0.057 -0.262,-0.084 -0.393,-0.084 M 30.862,-25.71 c -0.121,0 -0.244,0.023 -0.363,0.071 -2.424,0.985 -4.817,2.126 -7.115,3.391 -0.466,0.257 -0.636,0.844 -0.379,1.31 0.257,0.466 0.842,0.635 1.31,0.379 2.231,-1.228 4.557,-2.337 6.911,-3.293 0.492,-0.201 0.73,-0.764 0.53,-1.257 -0.153,-0.374 -0.513,-0.601 -0.894,-0.601 m 32.397,-4.466 c -0.485,0 -0.902,0.364 -0.958,0.857 -0.059,0.529 0.322,1.006 0.851,1.066 2.538,0.284 5.077,0.719 7.548,1.294 0.514,0.126 1.037,-0.201 1.157,-0.721 0.121,-0.519 -0.201,-1.036 -0.72,-1.157 -2.544,-0.592 -5.158,-1.04 -7.77,-1.333 -0.037,-0.004 -0.073,-0.006 -0.108,-0.006 M 50.648,-30.38 c -0.026,0 -0.051,10e-4 -0.076,0.003 -2.615,0.206 -5.243,0.567 -7.809,1.074 -0.523,0.103 -0.862,0.611 -0.76,1.133 0.105,0.522 0.613,0.863 1.133,0.76 2.494,-0.494 5.046,-0.845 7.586,-1.045 0.531,-0.042 0.928,-0.506 0.886,-1.036 -0.039,-0.506 -0.462,-0.889 -0.96,-0.889"
             style="fill:#97b1dc;fill-opacity:1;fill-rule:nonzero;stroke:none"
             id="path106" /></g><g
           id="g108"
           transform="translate(654.5445,516.4062)"><path
             d="m 0,0 c -0.427,0 -0.816,0.285 -0.931,0.717 -0.333,1.254 -0.632,2.535 -0.891,3.807 -0.106,0.522 0.23,1.03 0.752,1.137 0.522,0.106 1.032,-0.23 1.137,-0.752 C 0.319,3.673 0.61,2.429 0.933,1.211 1.07,0.697 0.763,0.169 0.248,0.032 0.165,0.01 0.082,0 0,0"
             style="fill:#97b1dc;fill-opacity:1;fill-rule:nonzero;stroke:none"
             id="path110" /></g><g
           id="g112"
           transform="translate(662.4868,568.732)"><path
             d="m 0,0 c -0.176,0 -0.353,0.048 -0.513,0.149 -0.45,0.283 -0.586,0.878 -0.301,1.329 0.692,1.1 1.426,2.192 2.18,3.248 C 1.676,5.158 2.279,5.259 2.711,4.95 3.145,4.64 3.245,4.038 2.935,3.605 2.202,2.58 1.49,1.519 0.816,0.45 0.634,0.159 0.32,0 0,0"
             style="fill:#97b1dc;fill-opacity:1;fill-rule:nonzero;stroke:none"
             id="path114" /></g><g
           id="g116"
           transform="translate(708.181,598.8957)"><path
             d="M 0,0 C -0.466,0 -0.877,0.339 -0.951,0.814 -1.035,1.34 -0.676,1.833 -0.15,1.916 2.39,2.318 4.987,2.577 7.568,2.686 8.1,2.698 8.55,2.297 8.571,1.764 8.594,1.232 8.181,0.782 7.648,0.76 5.141,0.654 2.619,0.402 0.152,0.012 0.101,0.004 0.05,0 0,0 m 27.492,-1.411 c -0.082,0 -0.166,0.011 -0.249,0.033 -2.418,0.642 -4.901,1.15 -7.379,1.511 -0.528,0.076 -0.893,0.566 -0.816,1.092 0.077,0.528 0.562,0.906 1.093,0.815 2.551,-0.371 5.107,-0.893 7.597,-1.554 0.514,-0.137 0.821,-0.665 0.685,-1.18 -0.115,-0.431 -0.505,-0.717 -0.931,-0.717 m -46.544,-4.667 c -0.355,0 -0.696,0.196 -0.864,0.535 -0.238,0.477 -0.043,1.055 0.434,1.293 2.304,1.145 4.704,2.168 7.135,3.044 0.504,0.179 1.053,-0.08 1.233,-0.581 0.181,-0.501 -0.079,-1.054 -0.58,-1.234 -2.361,-0.85 -4.693,-1.844 -6.93,-2.956 -0.138,-0.069 -0.284,-0.101 -0.428,-0.101 m 64.866,-3.33 c -0.176,0 -0.354,0.048 -0.514,0.148 -2.117,1.338 -4.333,2.565 -6.587,3.648 -0.48,0.231 -0.682,0.806 -0.452,1.286 0.23,0.481 0.804,0.686 1.287,0.452 2.321,-1.115 4.603,-2.378 6.782,-3.755 0.45,-0.285 0.585,-0.88 0.3,-1.33 -0.183,-0.29 -0.496,-0.449 -0.816,-0.449 m -81.226,-8.177 c -0.254,0 -0.509,0.1 -0.698,0.298 -0.367,0.386 -0.353,0.997 0.032,1.364 0.391,0.372 0.786,0.741 1.185,1.106 1.506,1.375 3.092,2.696 4.713,3.927 0.424,0.323 1.029,0.241 1.351,-0.185 0.323,-0.424 0.24,-1.028 -0.185,-1.35 -1.574,-1.197 -3.116,-2.48 -4.579,-3.815 -0.389,-0.356 -0.774,-0.716 -1.153,-1.079 -0.188,-0.178 -0.427,-0.266 -0.666,-0.266 m 96.321,-4.945 c -0.272,0 -0.543,0.115 -0.734,0.339 -0.492,0.578 -0.995,1.149 -1.511,1.715 -1.177,1.289 -2.418,2.546 -3.691,3.736 -0.389,0.365 -0.409,0.975 -0.046,1.364 0.365,0.39 0.974,0.41 1.364,0.045 1.309,-1.225 2.586,-2.519 3.796,-3.845 0.531,-0.581 1.05,-1.17 1.557,-1.765 0.344,-0.406 0.295,-1.014 -0.109,-1.36 -0.182,-0.154 -0.404,-0.229 -0.626,-0.229 M 71.43,-39.541 c -0.375,0 -0.732,0.22 -0.888,0.588 -0.978,2.303 -2.102,4.574 -3.343,6.75 -0.264,0.462 -0.102,1.052 0.361,1.315 0.462,0.264 1.051,0.102 1.315,-0.36 1.277,-2.241 2.435,-4.58 3.443,-6.952 0.208,-0.49 -0.021,-1.057 -0.512,-1.265 -0.122,-0.051 -0.25,-0.076 -0.376,-0.076"
             style="fill:#97b1dc;fill-opacity:1;fill-rule:nonzero;stroke:none"
             id="path118" /></g><g
           id="g120"
           transform="translate(784.0737,543.7084)"><path
             d="M 0,0 C -0.467,0 -0.878,0.34 -0.952,0.815 -1.146,2.061 -1.379,3.317 -1.645,4.55 -1.757,5.07 -1.427,5.584 -0.906,5.696 -0.377,5.808 0.128,5.476 0.24,4.956 0.513,3.688 0.753,2.394 0.954,1.113 1.036,0.587 0.676,0.093 0.15,0.011 0.099,0.004 0.049,0 0,0"
             style="fill:#97b1dc;fill-opacity:1;fill-rule:nonzero;stroke:none"
             id="path122" /></g><g
           id="g124"
           transform="translate(769.4859,535.8898)"><path
             d="m 0,0 c 0.026,0.338 -0.165,0.656 -0.476,0.791 l -8.879,3.857 c -0.686,4.469 -2.089,8.86 -4.227,12.992 l 4.899,8.341 c 0.172,0.293 0.14,0.662 -0.081,0.92 l -7.548,8.824 c -0.221,0.258 -0.581,0.347 -0.896,0.223 l -9,-3.549 c -3.751,2.752 -7.871,4.819 -12.18,6.189 l -2.435,9.369 c -0.085,0.328 -0.37,0.566 -0.708,0.593 l -11.576,0.902 c -0.339,0.026 -0.657,-0.165 -0.792,-0.476 l -3.857,-8.879 c -4.468,-0.686 -8.859,-2.089 -12.991,-4.228 l -8.342,4.9 c -0.292,0.172 -0.662,0.139 -0.92,-0.081 l -8.823,-7.548 c -0.258,-0.221 -0.348,-0.581 -0.223,-0.896 l 3.549,-9 c -2.753,-3.751 -4.82,-7.872 -6.189,-12.18 l -9.37,-2.435 c -0.328,-0.086 -0.566,-0.37 -0.592,-0.708 l -0.902,-11.577 c -0.027,-0.338 0.165,-0.656 0.476,-0.791 l 8.879,-3.857 c 0.685,-4.468 2.089,-8.86 4.227,-12.992 l -4.9,-8.341 c -0.172,-0.293 -0.139,-0.662 0.082,-0.92 l 7.548,-8.824 c 0.22,-0.257 0.58,-0.347 0.896,-0.222 l 9,3.548 c 3.75,-2.752 7.871,-4.819 12.18,-6.188 l 2.435,-9.369 c 0.085,-0.329 0.37,-0.567 0.708,-0.593 l 11.576,-0.902 c 0.338,-0.027 0.656,0.164 0.792,0.476 l 3.857,8.878 c 4.468,0.686 8.859,2.09 12.991,4.228 l 8.342,-4.9 c 0.292,-0.172 0.662,-0.139 0.919,0.082 l 8.824,7.547 c 0.258,0.221 0.347,0.581 0.223,0.897 l -3.549,8.999 c 2.753,3.751 4.819,7.872 6.189,12.18 l 9.369,2.436 c 0.329,0.085 0.567,0.369 0.593,0.708 z"
             style="fill:#97b1dc;fill-opacity:1;fill-rule:nonzero;stroke:none"
             id="path126" /></g><g
           id="g128"><g
             id="g130" /><g
             id="g142"><g
               clip-path="url(#clipPath134)"
               opacity="0.699997"
               id="g140"><g
                 transform="translate(718.2183,542.9231)"
                 id="g138"><path
                   d="m 0,0 c -2.781,0 -5.521,-1.302 -7.247,-3.74 -2.823,-3.99 -1.875,-9.533 2.114,-12.356 1.934,-1.369 4.288,-1.902 6.616,-1.502 2.334,0.399 4.373,1.683 5.74,3.615 1.368,1.934 1.901,4.284 1.502,6.617 -0.399,2.334 -1.684,4.373 -3.616,5.74 C 3.557,-0.527 1.77,0 0,0 m -0.037,-20.621 c -2.411,0 -4.758,0.742 -6.766,2.163 -5.292,3.745 -6.55,11.097 -2.806,16.388 1.815,2.564 4.519,4.268 7.614,4.797 3.096,0.53 6.212,-0.178 8.774,-1.992 2.564,-1.814 4.268,-4.517 4.797,-7.612 0.53,-3.096 -0.177,-6.213 -1.992,-8.776 -1.814,-2.564 -4.517,-4.267 -7.612,-4.796 -0.671,-0.115 -1.342,-0.172 -2.009,-0.172"
                   style="fill:#ffffff;fill-opacity:1;fill-rule:nonzero;stroke:none"
                   id="path136" /></g></g></g></g><g
           id="g144"><g
             id="g146" /><g
             id="g158"><g
               clip-path="url(#clipPath150)"
               opacity="0.699997"
               id="g156"><g
                 transform="translate(718.0074,504.594)"
                 id="g154"><path
                   d="m 0,0 c -0.776,0 -1.555,0.03 -2.337,0.091 -7.846,0.611 -14.985,4.242 -20.101,10.223 -4.742,5.542 -7.062,12.354 -7.061,19.133 0,8.319 3.495,16.591 10.298,22.41 12.345,10.563 30.982,9.11 41.543,-3.237 0.083,-0.096 0.165,-0.194 0.247,-0.291 1.145,-1.375 2.163,-2.849 3.036,-4.395 0.004,-0.006 0.008,-0.012 0.011,-0.017 0.013,-0.024 0.026,-0.047 0.038,-0.069 0.023,-0.041 0.045,-0.081 0.068,-0.121 0.012,-0.022 0.024,-0.045 0.037,-0.067 0.038,-0.069 0.076,-0.14 0.114,-0.21 l -2.544,-1.374 c -0.894,1.653 -1.972,3.222 -3.205,4.664 -6.744,7.883 -17.138,10.839 -26.584,8.516 -3.895,-0.959 -7.63,-2.816 -10.881,-5.597 -6.135,-5.248 -9.286,-12.707 -9.287,-20.21 0,-6.114 2.092,-12.257 6.368,-17.255 9.524,-11.133 26.331,-12.444 37.465,-2.919 3.66,3.13 6.398,7.187 7.919,11.73 l 2.744,-0.919 C 26.201,15.047 23.164,10.549 19.105,7.077 13.721,2.471 7.01,0 0,0"
                   style="fill:#ffffff;fill-opacity:1;fill-rule:nonzero;stroke:none"
                   id="path152" /></g></g></g></g></g></g><g
       id="g160"><g
         id="g162"><g
           id="g168"><g
             id="g170"><path
               d="m 682.251,200.871 -55.402,-3.143 c -6.538,-0.375 -10.681,-1.798 -9.536,-3.25 v 0 l 10.084,-13.208 c 0.874,-1.115 -1.24,-2.25 -5.403,-2.923 v 0 c -5.153,-0.827 -10.18,-1.701 -15.093,-2.625 v 0 c -9.268,-1.758 -17.727,-3.633 -25.38,-5.594 v 0 c -3.441,-0.904 -8.998,-1.269 -14.064,-0.885 v 0 l -59.95,4.364 c -6.623,0.472 -13.709,-0.24 -16.428,-1.633 v 0 L 468.554,160.38 c -2.336,-1.231 -0.576,-2.663 4.105,-3.47 v 0 c 0.49,-0.078 1.019,-0.164 1.605,-0.232 v 0 l 50.134,-6.22 c 4.672,-0.567 7.383,-1.692 6.797,-2.854 v 0 c -0.038,-0.107 -0.077,-0.203 -0.202,-0.308 v 0 c -0.288,-0.308 -0.576,-0.587 -0.73,-0.904 v 0 c -2.193,-2.538 -3.48,-5.105 -3.893,-7.681 v 0 c -0.183,-1.067 -0.203,-2.144 -0.078,-3.221 v 0 c 0.24,-1.221 -3.24,-2.345 -8.536,-2.768 v 0 l -45.511,-3.807 c -6.46,-0.529 -10.027,-2.067 -8.286,-3.548 v 0 l 3.153,-2.701 11.094,-9.431 c 1.692,-1.48 8.306,-2.413 15.179,-2.172 v 0 l 50.23,1.884 c 5.365,0.202 10.653,-0.365 13.382,-1.404 v 0 c 7.124,-2.72 15.584,-5.355 25.274,-7.834 v 0 c 7.191,-1.846 14.939,-3.567 23.015,-5.125 v 0 l -3.461,-2.307 -14.103,-9.459 c -1.808,-1.173 0.048,-2.452 4.346,-3.173 v 0 c 0.883,-0.154 1.873,-0.279 2.961,-0.374 v 0 l 52.748,-5 c 6.268,-0.577 13.478,-0.019 16.823,1.269 v 0 l 17.324,6.816 c 2.923,1.144 9.162,1.731 14.94,1.384 v 0 c 23.956,-1.422 48.72,-2.009 73.302,-1.73 v 0 c 5.835,0.068 11.103,-0.683 12.997,-1.856 v 0 l 20.612,-12.006 c 2.345,-1.337 8.834,-2.087 15.188,-1.731 v 0 l 55.97,3.201 c 6.643,0.375 10.834,1.798 9.642,3.269 v 0 l -10.508,13.738 c -0.951,1.182 1.51,2.355 6.183,2.989 v 0 c 9.968,1.356 19.543,2.923 28.753,4.663 v 0 c 4.961,0.942 9.69,1.913 14.209,2.923 v 0 c 3.547,0.788 8.796,1.066 13.593,0.73 v 0 l 57.479,-4.172 c 6.672,-0.481 13.843,0.221 16.67,1.643 v 0 l 21.908,11.306 0.51,0.269 c 2.624,1.375 0.173,2.971 -5.711,3.692 v 0 l -40.607,5.037 c -0.673,0.077 -1.298,0.173 -1.874,0.279 v 0 c -3.961,0.721 -5.806,1.913 -4.298,3.019 v 0 c 6.519,5.075 9.451,10.315 8.71,15.564 v 0 c -0.211,1.538 -0.749,3.086 -1.605,4.624 v 0 c -0.134,0.279 -0.087,0.557 0.096,0.826 v 0 c 0.769,1.01 3.971,1.885 8.402,2.26 v 0 l 25.601,2.124 10.795,0.895 c 4.769,0.403 8.009,1.384 8.518,2.46 v 0 c 0.115,0.327 0.049,0.673 -0.346,1.029 v 0 l -12.872,10.988 -1.366,1.164 c -1.739,1.489 -8.479,2.46 -15.448,2.191 v 0 l -51,-1.903 c -5.027,-0.183 -10.065,0.279 -12.978,1.211 v 0 c -4.277,1.317 -8.757,2.596 -13.622,3.846 v 0 c -9.123,2.335 -18.986,4.44 -29.436,6.315 v 0 l -0.048,0.01 c -4.365,0.788 -6.086,2.057 -4.326,3.23 v 0 l 16.41,10.998 0.798,0.557 c 2.172,1.404 -0.99,2.971 -7.297,3.567 v 0 l -52.441,4.932 c -6.402,0.596 -13.844,0.048 -17.256,-1.288 v 0 l -25.418,-9.96 c -2.817,-1.106 -8.547,-1.691 -14.122,-1.442 v 0 c -23.697,0.961 -47.942,1.125 -71.87,0.452 v 0 c -6.095,-0.154 -11.873,0.605 -14.055,1.884 v 0 l -16.324,9.498 c -2.07,1.195 -7.186,1.934 -12.683,1.934 v 0 c -1.141,0 -2.298,-0.032 -3.448,-0.098 m -46.673,-70.475 c -3.413,2.663 -4.903,5.44 -4.096,8.277 v 0 c 1.222,4.354 7.826,8.853 21.179,13.285 v 0 c 51.643,16.939 159.323,16.458 208.871,0.481 v 0 c 13.814,-4.47 21.169,-9.248 22.841,-13.844 v 0 c 1.471,-3.998 -1.384,-7.863 -8.027,-11.257 v 0 C 852.583,115.276 805.127,109.446 758.049,109.445 v 0 c -52.205,-10e-4 -103.95,7.166 -122.471,20.951"
               style="fill:url(#linearGradient178);stroke:none"
               id="path180" /></g></g></g></g><g
       id="g182"><g
         id="g184"><g
           id="g190"><g
             id="g192"><path
               d="m 253.838,168.242 -30.978,-1.846 c -3.664,-0.223 -5.973,-1.061 -5.34,-1.908 v 0 l 5.643,-7.755 c 0.491,-0.659 -0.695,-1.319 -3.022,-1.721 v 0 c -2.879,-0.48 -5.696,-0.998 -8.442,-1.541 v 0 c -5.18,-1.025 -9.913,-2.132 -14.192,-3.281 v 0 c -1.391,-0.383 -3.387,-0.597 -5.447,-0.606 v 0 c -0.802,0 -1.622,0.027 -2.416,0.089 v 0 l -33.518,2.558 c -3.708,0.277 -7.666,-0.142 -9.191,-0.963 v 0 l -12.588,-6.801 c -1.31,-0.723 -0.329,-1.57 2.292,-2.033 v 0 c 0.276,-0.053 0.571,-0.106 0.9,-0.142 v 0 l 28.028,-3.646 c 2.611,-0.339 4.127,-0.999 3.797,-1.685 v 0 c -0.018,-0.054 -0.035,-0.116 -0.107,-0.178 v 0 c -0.161,-0.179 -0.321,-0.339 -0.41,-0.527 v 0 c -1.73,-2.103 -2.46,-4.252 -2.22,-6.4 v 0 c 0.134,-0.722 -1.809,-1.373 -4.769,-1.631 v 0 l -25.451,-2.23 c -3.61,-0.311 -5.607,-1.221 -4.635,-2.085 v 0 l 1.765,-1.586 6.204,-5.536 c 0.945,-0.865 4.644,-1.418 8.486,-1.276 v 0 l 28.09,1.106 c 2.995,0.125 5.955,-0.214 7.479,-0.82 v 0 c 3.985,-1.596 8.719,-3.147 14.13,-4.609 v 0 c 4.021,-1.078 8.353,-2.086 12.873,-3.004 v 0 l -1.935,-1.346 -7.889,-5.563 c -1.008,-0.687 0.026,-1.435 2.434,-1.854 v 0 c 0.49,-0.098 1.042,-0.17 1.658,-0.223 v 0 l 29.489,-2.933 c 3.503,-0.339 7.541,-0.009 9.413,0.74 v 0 l 9.682,4.003 c 1.631,0.669 5.126,1.016 8.361,0.811 v 0 c 13.391,-0.838 27.234,-1.177 40.981,-1.016 v 0 c 3.263,0.044 6.214,-0.402 7.265,-1.089 v 0 l 11.527,-7.05 c 1.319,-0.785 4.947,-1.221 8.495,-1.008 v 0 l 31.299,1.872 c 3.718,0.223 6.053,1.061 5.393,1.917 v 0 l -5.874,8.068 c -0.536,0.695 0.847,1.381 3.45,1.755 v 0 c 5.581,0.794 10.929,1.712 16.082,2.737 v 0 c 2.772,0.553 5.42,1.124 7.942,1.721 v 0 c 1.988,0.455 4.921,0.624 7.604,0.428 v 0 l 32.147,-2.452 c 3.726,-0.285 7.737,0.134 9.315,0.963 v 0 l 12.249,6.641 0.294,0.152 c 1.461,0.811 0.089,1.747 -3.201,2.176 v 0 l -22.705,2.95 c -0.374,0.045 -0.722,0.107 -1.043,0.16 v 0 c -2.219,0.428 -3.253,1.123 -2.406,1.774 v 0 c 4.715,3.86 6.079,7.881 3.966,11.856 v 0 c -0.071,0.161 -0.044,0.331 0.054,0.482 v 0 c 0.436,0.597 2.219,1.105 4.707,1.328 v 0 l 20.343,1.774 c 2.05,0.187 3.592,0.562 4.323,1.007 v 0 c 0.232,0.143 0.384,0.286 0.446,0.438 v 0 c 0.062,0.187 0.027,0.4 -0.196,0.605 v 0 l -7.961,7.132 c -0.972,0.874 -4.743,1.444 -8.638,1.292 v 0 l -28.518,-1.123 c -2.808,-0.106 -5.625,0.17 -7.256,0.714 v 0 c -2.389,0.767 -4.894,1.524 -7.613,2.255 v 0 c -5.108,1.373 -10.618,2.612 -16.465,3.708 v 0 l -0.027,0.009 c -2.443,0.464 -3.406,1.204 -2.416,1.899 v 0 l 9.173,6.454 0.446,0.322 c 1.212,0.828 -0.553,1.746 -4.083,2.094 v 0 l -29.32,2.898 c -3.575,0.347 -7.747,0.026 -9.645,-0.758 v 0 l -14.219,-5.839 c -1.569,-0.651 -4.778,-0.998 -7.899,-0.856 v 0 c -13.247,0.571 -26.805,0.669 -40.187,0.267 v 0 c -3.404,-0.089 -6.632,0.357 -7.862,1.105 v 0 l -9.12,5.581 c -1.16,0.703 -4.03,1.135 -7.107,1.135 v 0 c -0.634,0 -1.276,-0.018 -1.914,-0.056 M 227.736,126.86 c -4.653,3.807 -2.923,8.042 8.211,12.178 v 0 c 0.436,0.161 0.883,0.321 1.346,0.481 v 0 c 28.874,9.948 89.092,9.663 116.798,0.285 v 0 c 0.784,-0.267 1.533,-0.534 2.238,-0.802 v 0 c 12.399,-4.707 13.576,-9.904 6.043,-13.934 v 0 c -13.291,-7.081 -39.828,-10.503 -66.157,-10.503 v 0 c -29.19,0 -58.125,4.206 -68.479,12.295"
               style="fill:url(#linearGradient200);stroke:none"
               id="path202" /></g></g></g></g><g
       id="g204"><g
         id="g206"
         clip-path="url(#clipPath210)"><g
           id="g212"
           transform="translate(245.1039,571.3325)"><path
             d="m 0,0 c 0,-14.795 5.241,-28.366 13.965,-38.955 7.547,-9.161 11.737,-20.622 11.737,-32.488 v -17.111 c 0,-10.877 8.902,-19.779 19.78,-19.779 h 31.652 c 10.881,0 19.78,8.902 19.78,19.779 v 17.14 c 0,11.89 4.253,23.343 11.797,32.533 8.763,10.67 13.995,24.348 13.905,39.253 -0.199,33.813 -27.494,60.938 -61.306,60.938 -3.756,0 -7.435,-0.34 -11.007,-0.989 -0.791,-0.142 -1.576,-0.3 -2.357,-0.476 C 20.512,53.75 0,29.271 0,0"
             style="fill:#fbb683;fill-opacity:1;fill-rule:nonzero;stroke:none"
             id="path214" /></g><g
           id="g216"
           transform="translate(322.1598,462.9992)"><path
             d="m 0,0 -0.068,-0.527 -0.903,-6.486 -0.23,-1.756 v -0.015 l -0.232,-1.768 -0.866,-6.664 -0.229,-1.756 -0.003,-0.014 -0.229,-1.771 -0.128,-0.976 c -0.441,-3.381 -4.306,-5.965 -8.929,-5.965 h -10.416 c -1.102,0 -2.155,0.146 -3.134,0.414 h -0.003 c -0.881,0.241 -1.697,0.583 -2.426,1.009 l -0.056,0.033 c -0.593,0.348 -1.122,0.753 -1.578,1.202 -0.934,0.92 -1.55,2.027 -1.726,3.244 l -0.369,2.583 -0.235,1.628 v 0.003 l -0.003,0.036 v 0.003 l -0.229,1.592 -0.884,6.179 -0.232,1.622 -0.006,0.036 -0.23,1.601 -0.958,6.693 z"
             style="fill:#91b0dd;fill-opacity:1;fill-rule:nonzero;stroke:none"
             id="path218" /></g></g></g><g
       id="g220"><g
         id="g222"><g
           id="g228"><g
             id="g230"><path
               d="m 317.921,463.18 -5.955,-0.128 c -9.5,-2.747 -18.784,-5.334 -23.15,-6.566 v 0 l 0.23,-1.602 0.005,-0.035 0.232,-1.622 c 3.536,0.98 12.059,3.23 32.808,9.245 v 0 l 0.068,0.528 -4.167,0.18 z"
               style="fill:url(#linearGradient236);stroke:none"
               id="path238" /></g></g></g></g><g
       id="g240"><g
         id="g242"><g
           id="g248"><g
             id="g250"><path
               d="m 292.73,437.959 c 0.456,-0.449 0.985,-0.854 1.577,-1.202 v 0 l 0.057,-0.033 c 0.729,-0.426 1.544,-0.768 2.425,-1.009 v 0 h 0.003 c 4.819,1.381 11.971,3.446 22.608,6.527 v 0 l 0.229,1.771 0.003,0.015 0.229,1.756 c -9.5,-2.75 -20.399,-5.899 -27.131,-7.825"
               style="fill:url(#linearGradient256);stroke:none"
               id="path258" /></g></g></g></g><g
       id="g260"><g
         id="g262"><g
           id="g268"><g
             id="g270"><path
               d="m 290.123,447.132 0.276,-1.718 0.235,-1.628 c 4.819,1.381 19.456,5.581 30.094,8.661 v 0 l 0.159,1.216 0.301,2.323 c -9.499,-2.75 -24.333,-6.929 -31.065,-8.854"
               style="fill:url(#linearGradient276);stroke:none"
               id="path278" /></g></g></g></g><g
       id="g280"><g
         id="g282"
         clip-path="url(#clipPath286)"><g
           id="g288"
           transform="translate(293.896,463.1794)"><path
             d="m 0,0 -13.13,78.204 2.734,0.463 L 3.395,0 Z"
             style="fill:#ffffff;fill-opacity:1;fill-rule:nonzero;stroke:none"
             id="path290" /></g><g
           id="g292"
           transform="translate(319.117,463.1308)"><path
             d="M 0,0 -4.327,-0.018 9.821,77.497 12.548,76.998 Z"
             style="fill:#ffffff;fill-opacity:1;fill-rule:nonzero;stroke:none"
             id="path294" /></g><g
           id="g296"
           transform="translate(322.9037,537.9868)"><path
             d="m 0,0 c -1.458,-1.401 -2.449,-3.196 -2.372,-4.578 0.056,-1.003 0.655,-1.721 1.783,-2.134 0.62,-0.229 1.043,-0.062 1.336,0.52 C 1.395,-4.904 1.119,-2.146 0,0 m -30.97,0.536 c -1.465,-1.307 -2.289,-3.151 -2.472,-4.838 -0.156,-1.432 0.196,-2.595 0.855,-2.829 1.066,-0.379 1.849,-0.138 2.318,0.719 0.854,1.559 0.543,4.554 -0.701,6.948 m 10.493,-2.659 c -0.769,-0.958 -1.372,-1.967 -1.694,-2.916 -0.637,-1.876 -0.115,-3.145 1.55,-3.773 0.67,-0.253 1.56,-0.453 1.987,0.031 0.659,0.748 0.272,2.87 -0.941,5.16 -0.269,0.507 -0.572,1.011 -0.902,1.498 m 12.134,-0.061 c -1.661,-2.423 -2.83,-5.163 -2.562,-6.632 0.085,-0.466 0.314,-0.727 0.718,-0.819 1.645,-0.372 2.655,0.107 3.004,1.427 0.404,1.525 -0.125,3.907 -1.16,6.024 M -9.174,-10.6 c -0.355,0 -0.753,0.046 -1.198,0.147 -0.742,0.169 -1.212,0.682 -1.359,1.486 -0.316,1.733 1.044,4.912 2.952,7.605 -0.997,1.742 -2.326,3.18 -3.72,3.601 -2.058,0.624 -5.217,-1.276 -7.416,-3.704 0.401,-0.571 0.764,-1.164 1.082,-1.763 1.127,-2.128 1.936,-4.85 0.828,-6.107 -0.41,-0.467 -1.249,-0.89 -2.912,-0.262 -2.078,0.783 -2.825,2.543 -2.049,4.828 0.38,1.12 1.08,2.284 1.969,3.365 -1.704,2.222 -3.98,3.911 -6.224,3.628 -1.199,-0.151 -2.226,-0.571 -3.081,-1.162 1.435,-2.67 1.765,-6.059 0.769,-7.877 -0.678,-1.239 -1.862,-1.63 -3.336,-1.107 -1.058,0.377 -1.611,1.833 -1.407,3.711 0.208,1.922 1.167,4.027 2.877,5.488 -0.446,0.695 -0.98,1.311 -1.595,1.788 -3.865,3.001 -7.062,-0.219 -7.195,-0.358 l -0.603,0.584 c 0.038,0.039 3.863,3.893 8.313,0.437 0.674,-0.524 1.26,-1.191 1.747,-1.941 0.948,0.645 2.084,1.103 3.407,1.27 2.514,0.316 5.024,-1.458 6.887,-3.82 2.395,2.601 5.803,4.523 8.182,3.805 1.503,-0.455 2.921,-1.905 4.005,-3.691 1.009,1.308 2.133,2.449 3.226,3.173 1.752,1.16 2.893,0.894 3.54,0.467 C -0.82,2.554 -0.252,1.965 0.216,1.29 0.744,1.708 1.296,2.066 1.845,2.339 3.874,3.35 5.737,3.275 7.091,2.13 L 6.549,1.49 C 5.088,2.725 3.209,2.081 2.218,1.588 1.674,1.316 1.147,0.972 0.658,0.578 2.008,-1.857 2.271,-5.032 1.497,-6.57 1.009,-7.536 0.14,-7.873 -0.877,-7.501 c -1.834,0.672 -2.281,1.935 -2.334,2.876 -0.1,1.8 1.148,3.849 2.778,5.359 -0.421,0.628 -0.926,1.17 -1.513,1.556 -0.792,0.521 -1.86,0.034 -2.616,-0.466 -1.091,-0.722 -2.233,-1.911 -3.244,-3.261 1.258,-2.394 1.911,-5.185 1.434,-6.985 -0.231,-0.874 -0.896,-2.177 -2.802,-2.178"
             style="fill:#ffffff;fill-opacity:1;fill-rule:nonzero;stroke:none"
             id="path298" /></g><g
           id="g300"
           transform="translate(582.9242,136.3886)"><path
             d="m 0,0 c 0,0 -0.942,7.335 -3.122,11.696 -2.181,4.362 -16.058,1.587 -16.058,1.587 0,0 -2.776,-2.379 -3.37,-13.481 z"
             style="fill:#233862;fill-opacity:1;fill-rule:nonzero;stroke:none"
             id="path302" /></g><g
           id="g304"
           transform="translate(630.204,136.4881)"><path
             d="m 0,0 c -3.261,1.99 -1.405,16.838 -1.405,16.838 0,0 15.194,12.155 17.283,2.849 C 17.967,10.38 30.312,6.202 37.34,5.062 42.191,4.276 43.693,1.589 44.158,0 Z"
             style="fill:#233862;fill-opacity:1;fill-rule:nonzero;stroke:none"
             id="path306" /></g><g
           id="g308"
           transform="translate(598.7322,244.4778)"><path
             d="m 0,0 c 0.619,-3.408 1.011,-6.203 1.115,-8.207 1.413,-27.551 23.192,-90.546 27.087,-92.015 6.028,-2.274 15.52,2.561 20.486,4.143 2.058,0.657 3.446,2.733 2.988,4.838 C 40.891,-41.658 36.927,29.74 35.485,72.01 c -0.729,21.292 -4.383,35.999 -4.383,35.999 0,0 -53.119,14.173 -53.434,-3.755 C -22.612,88.389 -4.737,26.171 0,0"
             style="fill:#2c3282;fill-opacity:1;fill-rule:nonzero;stroke:none"
             id="path310" /></g><g
           id="g312"
           transform="translate(636.9374,262.1616)"><path
             d="m 0,0 -2.72,54.327 c -0.729,21.291 -4.384,35.999 -4.384,35.999 0,0 -53.118,14.172 -53.433,-3.756 -0.105,-5.949 28.8,-154.47 37.046,-171.083 0,0 20.53,100.87 23.491,84.513"
             style="fill:#12294b;fill-opacity:1;fill-rule:nonzero;stroke:none"
             id="path314" /></g><g
           id="g316"
           transform="translate(610.5508,348.6689)"><path
             d="m 0,0 -28.081,-203.52 c 0,0 -12.331,-2.974 -21.922,-0.595 0,0 -8.221,108.241 -7.536,134.41 0.685,26.168 -5.901,70.021 1.503,74.858 C -48.633,9.989 0,0 0,0"
             style="fill:#2b3176;fill-opacity:1;fill-rule:nonzero;stroke:none"
             id="path318" /></g><g
           id="g320"
           transform="translate(549.0414,352.0601)"><path
             d="m 0,0 c -0.135,-1.839 1.041,-3.512 2.812,-4.026 3.917,-1.136 8.433,-1.928 17.143,-3.732 8.181,-1.699 19.188,-3.204 32.711,-3.287 21.51,-0.137 29.654,7.277 29.654,7.277 0.926,-0.017 -0.49,4.485 -1.765,25.889 -0.432,7.251 -0.85,16.441 -1.15,28.057 -0.272,10.452 -0.455,22.869 -0.472,37.599 -0.023,17.72 -27.451,36.784 -27.957,36.784 l -0.006,-0.008 c 0,-2.552 -4.021,-7.26 -10.214,-7.666 -7.351,-0.48 -16.37,3.178 -16.37,7.411 0,0.043 -13.289,-21.258 -18.009,-43.955 C 5.777,77.466 5.313,74.431 4.944,71.236 3.824,61.608 4.905,68.477 0,0"
             style="fill:#ffef92;fill-opacity:1;fill-rule:nonzero;stroke:none"
             id="path322" /></g><g
           id="g324"
           transform="translate(600.017,476.62)"><path
             d="M 0,0 C 0,0 25.505,0.216 31.643,-8.392 37.781,-17.001 51.239,-63.31 44.216,-78.72 37.193,-94.129 24.052,-72.345 16.758,-62.907 9.465,-53.468 0,0 0,0"
             style="fill:#ffef92;fill-opacity:1;fill-rule:nonzero;stroke:none"
             id="path326" /></g><g
           id="g328"
           transform="translate(600.2775,480.5131)"><path
             d="m 0,0 -0.014,-2.637 c 0,0 0.718,-8.245 -9.435,-9.449 -10.154,-1.208 -17.713,1.515 -17.438,7.878 0.915,4.927 1.786,10.01 1.854,14.086 0.025,1.515 -0.079,3.122 -0.361,4.938 l 19.674,0.392 5.795,-0.946 z"
             style="fill:#fab17e;fill-opacity:1;fill-rule:nonzero;stroke:none"
             id="path330" /></g><g
           id="g332"
           transform="translate(600.3524,494.7749)"><path
             d="m 0,0 -0.075,-14.262 c -2.09,-0.972 -4.448,-1.565 -7.092,-1.565 -9.042,0 -14.886,6.631 -17.941,11.443 0.025,1.515 -0.079,3.123 -0.361,4.938 l 19.674,0.393 z"
             style="fill:#ed975e;fill-opacity:1;fill-rule:nonzero;stroke:none"
             id="path334" /></g><g
           id="g336"
           transform="translate(573.3761,498.4945)"><path
             d="m 0,0 c 2.282,-12.285 18.135,-11.882 24.985,-11.109 1.928,0.214 3.141,0.46 3.141,0.46 2.174,0.581 3.387,4.005 3.95,8.49 1.118,8.875 -0.295,21.904 -1.794,25.236 -2.256,5.014 -6.507,10.438 -22.47,6.525 C -8.155,25.686 -2.929,15.741 0,0"
             style="fill:#fab17e;fill-opacity:1;fill-rule:nonzero;stroke:none"
             id="path338" /></g><g
           id="g340"
           transform="translate(626.098,442.1075)"><path
             d="m 0,0 c 0,0 9.864,-21.785 9.577,-28.314 0,0 -4.885,0.167 -9.577,-1.232 C -7.712,-31.845 0,0 0,0"
             style="fill:#ebd254;fill-opacity:1;fill-rule:nonzero;stroke:none"
             id="path342" /></g><g
           id="g344"
           transform="translate(608.5574,533.2656)"><path
             d="m 0,0 c 0,0 -7.027,0.54 -15.314,4.144 -6.727,2.925 -15.214,-0.296 -17.969,-1.748 0.074,0.444 0.252,1.05 0.672,1.658 0,0 -1.237,-0.877 -1.419,-2.103 -0.127,-0.094 -0.184,-0.159 -0.151,-0.181 0,0 -1.403,0.257 -2.303,-0.148 0,0 0.63,0.09 0.855,-0.316 0.024,-0.043 0.06,-0.079 0.101,-0.111 -10.493,-5.07 -11.462,-21.654 -8.085,-25.491 4.062,-4.617 10.08,-14.889 10.08,-14.889 0,0 0.63,2.332 -0.108,6.395 -0.739,4.062 2.769,4.062 7.201,5.909 4.432,1.846 0.739,7.017 4.617,10.156 3.878,3.14 18.097,1.293 17.912,3.694 C 1.367,-11.109 0,-0.541 0,0"
             style="fill:#2c3282;fill-opacity:1;fill-rule:nonzero;stroke:none"
             id="path346" /></g><g
           id="g348"
           transform="translate(570.1609,401.3)"><path
             d="m 0,0 c 4.165,-16.722 49.198,-25.363 59.435,-27.119 -0.432,7.251 -0.849,16.441 -1.15,28.057 z"
             style="fill:#ebd254;fill-opacity:1;fill-rule:nonzero;stroke:none"
             id="path350" /></g><g
           id="g352"
           transform="translate(580.0464,395.8652)"><path
             d="m 0,0 c -0.429,0 -10.011,1.43 -11.727,2.288 -1.717,0.858 -9.566,12.014 -4.426,14.874 5.141,2.861 18.94,-8.581 18.94,-8.581 z"
             style="fill:#fab17e;fill-opacity:1;fill-rule:nonzero;stroke:none"
             id="path354" /></g><g
           id="g356"
           transform="translate(638.3273,392.5506)"><path
             d="m 0,0 c 0,0 -37.06,-2.011 -61.931,3.315 0,0 -0.627,7.185 7.189,10.376 0,0 38.763,8.216 48.075,5.927 C 2.645,17.33 0,0 0,0"
             style="fill:#ffef92;fill-opacity:1;fill-rule:nonzero;stroke:none"
             id="path358" /></g><g
           id="g360"
           transform="translate(553.2192,421.6344)"><path
             d="m 0,0 c 7.691,-9.273 17.746,-16.845 28.829,-18.618 l 0.003,0.003 c 0.092,0.14 3.355,5.094 2.743,12.377 -0.283,3.369 -1.396,7.239 -4.036,11.361 -0.812,1.267 -1.536,2.749 -2.179,4.393 -6.053,15.443 -5.152,45.208 -5.152,45.208 0,0 -25.703,-2.692 -33.712,-14.133 C -18.409,33.583 -12.154,14.662 0,0"
             style="fill:#ffef92;fill-opacity:1;fill-rule:nonzero;stroke:none"
             id="path362" /></g><g
           id="g364"
           transform="translate(598.3611,487.385)"><path
             d="M 0,0 C 1.928,0.214 3.141,0.461 3.141,0.461 5.315,1.041 6.527,4.465 7.091,8.95 3.015,7.946 1.147,4.797 0.369,3.455 0.017,2.852 -0.054,1.499 0,0"
             style="fill:#ed975e;fill-opacity:1;fill-rule:nonzero;stroke:none"
             id="path366" /></g><g
           id="g368"
           transform="translate(608.7166,480.4362)"><path
             d="M 0,0 C 0,0 8.877,14.648 1.974,15.285 -4.929,15.923 -7.703,11.251 -8.7,9.535 -9.696,7.818 -8.439,0.077 -8.439,0.077 Z"
             style="fill:#fab17e;fill-opacity:1;fill-rule:nonzero;stroke:none"
             id="path370" /></g><g
           id="g372"
           transform="translate(574.8835,415.8879)"><path
             d="m 0,0 c 0.272,-1.857 0.827,-3.564 1.513,-5.086 2.168,-4.814 5.652,-7.786 5.652,-7.786 l 0.003,0.003 c 23.054,10.406 27.72,46.14 28.501,65.774 0.314,7.892 0,13.183 0,13.183 -10.401,3.444 -13.324,-2.54 -13.324,-2.54 0,0 -12.28,-29.201 -18.65,-48.285 C 1.258,7.96 -0.312,2.136 0,0"
             style="fill:#ffef92;fill-opacity:1;fill-rule:nonzero;stroke:none"
             id="path374" /></g><g
           id="g376"
           transform="translate(553.5345,421.0178)"><path
             d="m 0,0 c 7.89,-9.105 18.106,-16.457 29.225,-17.991 l 0.003,0.003 c 22.824,10.902 26.715,46.729 27.072,66.375 0,0 -10.052,-39.794 -24.597,-53.941 -2.628,-2.561 -5.406,-4.28 -8.297,-4.775 0,0 -18.834,4.886 -22.868,9.782 C 0.25,-0.195 0.075,-0.022 0,0"
             style="fill:#ebd254;fill-opacity:1;fill-rule:nonzero;stroke:none"
             id="path378" /></g><g
           id="g380"
           transform="translate(889.2698,521.1604)"><path
             d="m 0,0 c -7.449,3.864 -13.417,1.436 -13.417,1.436 -22.792,2.676 -29.44,-23.903 -29.131,-33.049 0.305,-9.145 1.352,-18.969 -8.826,-30.85 -29.401,-34.32 32.174,-35.834 32.174,-35.834 0.52,27.421 52.577,-16.47 51.136,-19.248 C 74.072,-127.658 16.94,-8.788 0,0"
             style="fill:#2c3282;fill-opacity:1;fill-rule:nonzero;stroke:none"
             id="path382" /></g><g
           id="g384"
           transform="translate(801.3532,406.8453)"><path
             d="m 0,0 c 0,0 -4.008,6.102 -7.238,6.222 -3.23,0.119 -9.212,1.794 -8.733,0.598 0.478,-1.196 4.187,-1.317 4.546,-2.034 0.359,-0.718 -5.504,-1.795 -7.179,-1.915 -1.674,-0.119 -5.623,0 -5.503,-0.837 0.12,-0.838 7.116,-4.307 12.052,-3.828 4.937,0.478 11.038,-1.436 11.038,-1.436 z"
             style="fill:#fab17e;fill-opacity:1;fill-rule:nonzero;stroke:none"
             id="path386" /></g><g
           id="g388"
           transform="translate(859.3182,404.8716)"><path
             d="m 0,0 c 0,0 -2.179,-4.314 -6.13,-9.271 -4.763,-5.965 -12.106,-12.857 -21.327,-14.217 -4.404,-0.649 -8.711,0.298 -12.67,2.057 -0.011,0.003 -0.014,0.003 -0.014,0.003 -11.198,4.971 -19.618,16.403 -19.618,16.403 -1.975,5.384 1.256,9.034 1.256,9.034 0,0 22.611,-5.086 24.765,-4.009 2.153,1.077 14.716,37.266 17.706,41.813 2.993,4.548 13.186,6.91 13.186,6.91 z"
             style="fill:#f9ddbf;fill-opacity:1;fill-rule:nonzero;stroke:none"
             id="path390" /></g><g
           id="g392"
           transform="translate(853.1881,395.6005)"><path
             d="m 0,0 c -4.763,-5.965 -12.106,-12.856 -21.327,-14.217 -4.404,-0.649 -8.711,0.298 -12.67,2.057 0.438,-0.057 11.622,-1.439 16.08,6.536 4.547,8.137 9.464,21.058 16.219,16.751 C 1.216,9.267 1.087,4.648 0,0"
             style="fill:#f2ccaa;fill-opacity:1;fill-rule:nonzero;stroke:none"
             id="path394" /></g><g
           id="g396"
           transform="translate(943.6785,160.7898)"><path
             d="m 0,0 c 0,0 6.9,-6.297 5.554,-10.77 -1.347,-4.475 -7.573,-7.458 -8.415,-12.925 -0.841,-5.468 -4.207,-8.451 -7.236,-8.451 h -14.442 c 0,0 -2.229,3.847 3.156,5.008 5.385,1.16 7.416,7.585 7.079,13.55 -0.336,5.966 0.505,13.92 0.505,13.92 l 11.443,2.651 z"
             style="fill:#233862;fill-opacity:1;fill-rule:nonzero;stroke:none"
             id="path398" /></g><g
           id="g400"
           transform="translate(885.2798,158.1167)"><path
             d="m 0,0 c 0,0 2.482,-26.675 -0.547,-28.166 l -38.766,0.079 c 0,0 0,4.474 6.227,5.468 6.226,0.994 17.165,4.64 19.016,12.759 C -12.219,-1.74 0,0 0,0"
             style="fill:#233862;fill-opacity:1;fill-rule:nonzero;stroke:none"
             id="path402" /></g><g
           id="g404"
           transform="translate(912.9052,349.4879)"><path
             d="m 0,0 c -7.977,17.891 -12.859,23.026 -11.927,28.578 0.694,4.133 -2.112,77.056 -2.112,77.056 -0.946,0.293 -2.843,0.556 -3.881,0.786 -3.272,0.727 -5.981,3.025 -7.108,6.182 -1.357,3.802 -2.437,9.417 -2.412,16.453 l -1.022,-0.201 -17.182,-3.403 c 0,0 0.391,-5.407 0.403,-10.501 0,-0.042 0,-0.085 0,-0.127 0.021,-4.424 -2.881,-8.328 -7.132,-9.555 -2.17,-0.627 -4.059,-1.162 -4.059,-1.162 0,0 -6.309,-18.013 -7.514,-36.518 C -65.151,49.084 -52.473,41.044 -64.041,4.066 -75.852,-33.701 4.407,-9.885 0,0"
             style="fill:#fab17e;fill-opacity:1;fill-rule:nonzero;stroke:none"
             id="path406" /></g><g
           id="g408"
           transform="translate(867.2614,474.9392)"><path
             d="m 0,0 c 0,0 0.391,-5.407 0.402,-10.501 9.615,0.271 14.698,9.042 16.78,13.903 z"
             style="fill:#ed975e;fill-opacity:1;fill-rule:nonzero;stroke:none"
             id="path410" /></g><g
           id="g412"
           transform="translate(864.0504,470.1158)"><path
             d="M 0,0 C 0,0 22.749,-0.375 22.765,13.795 22.78,27.965 25.727,37.46 11.203,38.299 -3.321,39.138 -6.149,33.734 -7.304,29.005 -8.46,24.277 -5.917,0.463 0,0"
             style="fill:#fab17e;fill-opacity:1;fill-rule:nonzero;stroke:none"
             id="path414" /></g><g
           id="g416"
           transform="translate(864.8926,508.7619)"><path
             d="m 0,0 c 0,0 6.228,-16.625 15.787,-19.082 9.559,-2.459 13.705,0.103 13.705,0.103 0,0 -7.332,5.824 -8.853,15.991 C 20.639,-2.988 4.698,7.913 0,0"
             style="fill:#2c3282;fill-opacity:1;fill-rule:nonzero;stroke:none"
             id="path418" /></g><g
           id="g420"
           transform="translate(866.436,507.4122)"><path
             d="m 0,0 c 0,0 -4.619,-1.727 -6.52,-5.095 -1.858,-3.294 -3.442,-7.657 -3.075,-13.009 0,0 -4.692,11.299 0.581,17.692 C -3.422,6.366 0,0 0,0"
             style="fill:#2c3282;fill-opacity:1;fill-rule:nonzero;stroke:none"
             id="path422" /></g><g
           id="g424"
           transform="translate(915.1008,422.8636)"><path
             d="m 0,0 c 0,0 0.578,-8.144 0,-17.917 -0.384,-6.479 -6.938,-15.157 -7.867,-17.303 -2.333,-5.384 -4.964,-6.26 -4.964,-6.26 l -20.354,-4.989 -7.157,-1.751 -22.568,6.74 c 0,0 -10.28,28.692 -6.152,44.843 4.127,16.151 10.434,27.368 10.434,27.368 0,0 18.415,-18.032 42.395,1.529 z"
             style="fill:#f9ddbf;fill-opacity:1;fill-rule:nonzero;stroke:none"
             id="path426" /></g><g
           id="g428"
           transform="translate(853.6256,377.0288)"><path
             d="m 0,0 c 0,0 -11.177,-34.788 -11.894,-46.632 -0.718,-11.845 21.364,-168.258 22.253,-173.716 0.837,-5.144 7.225,-8.424 7.225,-8.424 0,0 2.938,-1.733 7.131,-0.548 5.818,1.642 11.601,5.044 11.601,5.044 0,0 1.771,86.302 -10.687,141.054 C 16.707,-44.013 30.241,0 30.241,0 Z"
             style="fill:#2c3984;fill-opacity:1;fill-rule:nonzero;stroke:none"
             id="path430" /></g><g
           id="g432"
           transform="translate(900.9783,378.0661)"><path
             d="m 0,0 c 0,0 17.048,-22.875 18.638,-38.338 1.589,-15.463 6.355,-70.148 9.742,-85.223 3.386,-15.074 11.965,-43.714 11.965,-90.732 0,0 -1.294,-2.695 -5.287,-4.131 -1.277,-0.459 -2.987,-0.904 -4.649,-1.285 -3.292,-0.755 -6.671,0.854 -8.173,3.88 -8.411,16.934 -27.456,82.213 -28.83,93.55 -0.971,8.024 -8.147,17.945 -22.612,65.072 -2.551,8.311 -10.3,53.785 -10.3,53.785 z"
             style="fill:#2c3984;fill-opacity:1;fill-rule:nonzero;stroke:none"
             id="path434" /></g><g
           id="g436"
           transform="translate(851.8402,382.3994)"><path
             d="m 0,0 c 0,0 4.487,-3.549 13.4,-3.729 10.647,-0.214 37.028,2.714 37.028,2.714 0,0 1.173,-3.275 1.125,-6.733 0,0 -32.221,-8.127 -50.89,-1.187 0,0 -2.407,4.531 -0.663,8.935"
             style="fill:#233862;fill-opacity:1;fill-rule:nonzero;stroke:none"
             id="path438" /></g><g
           id="g440"
           transform="translate(862.6861,378.8824)"><path
             d="m 0,0 c -1.791,0 -3.248,-1.744 -3.248,-3.888 0,-2.144 1.457,-3.888 3.248,-3.888 1.791,0 3.248,1.744 3.248,3.888 C 3.248,-1.744 1.791,0 0,0 m 0,-9.387 c -2.679,0 -4.858,2.467 -4.858,5.499 0,3.032 2.179,5.498 4.858,5.498 2.679,0 4.858,-2.466 4.858,-5.498 C 4.858,-6.92 2.679,-9.387 0,-9.387"
             style="fill:#ffffff;fill-opacity:1;fill-rule:nonzero;stroke:none"
             id="path442" /></g><g
           id="g444"
           transform="translate(936.955,376.1057)"><path
             d="m 0,0 -33.011,-28.744 -39.346,45.187 33.01,28.744 z"
             style="fill:#b6473d;fill-opacity:1;fill-rule:nonzero;stroke:none"
             id="path446" /></g><g
           id="g448"
           transform="translate(894.8232,376.001)"><path
             d="m 0,0 c 0,0 -12.095,-1.414 -12.057,-4.286 0.037,-2.871 3.014,-8.769 4.507,-9.031 1.494,-0.262 9.844,7.976 9.844,7.976 z"
             style="fill:#fab17e;fill-opacity:1;fill-rule:nonzero;stroke:none"
             id="path450" /></g><g
           id="g452"
           transform="translate(898.8674,455.1235)"><path
             d="m 0,0 c 0,0 16.148,-1.132 22.338,-16.18 6.19,-15.047 17.935,-40.312 17.935,-44.562 0,-4.25 -6.561,-17.353 -41.794,-24.886 0,0 -3.644,3.834 -3.424,6.865 0,0 21.994,18.891 21.935,21.1 -0.112,4.176 -3.605,9.689 -22.915,29.005 C -11.175,-23.407 0,0 0,0"
             style="fill:#f9ddbf;fill-opacity:1;fill-rule:nonzero;stroke:none"
             id="path454" /></g><g
           id="g456"
           transform="translate(410.9349,415.3913)"><path
             d="m 0,0 -12.149,-50.799 -23.766,-43.479 5.576,-4.98 36.307,42.276 13.455,41.118 z"
             style="fill:#f9a66d;fill-opacity:1;fill-rule:nonzero;stroke:none"
             id="path458" /></g><g
           id="g460"
           transform="translate(408.8125,424.4875)"><path
             d="m 0,0 -8.151,-31.225 25.767,-12.433 -8.092,25.44 z"
             style="fill:#f26c65;fill-opacity:1;fill-rule:nonzero;stroke:none"
             id="path462" /></g><g
           id="g464"
           transform="translate(440.13,439.7193)"><path
             d="m 0,0 c 0,0 24.755,9.645 39.118,-17.986 14.364,-27.632 29.338,-86.956 29.338,-86.956 l -29.032,-5.207 -38.459,-1.123 -25.089,77.378 c -3.157,7.145 -11.025,16.389 -5.443,21.619 2.521,2.361 6.008,4.538 10.828,6.121 z"
             style="fill:#f69186;fill-opacity:1;fill-rule:nonzero;stroke:none"
             id="path466" /></g><g
           id="g468"
           transform="translate(423.6806,382.1555)"><path
             d="M 0,0 -7.271,22.424"
             style="fill:none;stroke:#f26c65;stroke-width:1.02;stroke-linecap:butt;stroke-linejoin:miter;stroke-miterlimit:10;stroke-dasharray:none;stroke-opacity:1"
             id="path470" /></g><g
           id="g472"
           transform="translate(429.2254,370.169)"><path
             d="M 0,0 26.005,58.239 46.244,26.777 17.811,-14.437 c -2.566,-3.719 -6.723,-5.83 -11.071,-5.623 l -56.275,5.501 -4.978,7.063 z"
             style="fill:#fab17e;fill-opacity:1;fill-rule:nonzero;stroke:none"
             id="path474" /></g><g
           id="g476"
           transform="translate(452.628,432.7003)"><path
             d="m 0,0 -22.27,-40.347 34.631,-25.998 17.698,40.023 z"
             style="fill:#f69186;fill-opacity:1;fill-rule:nonzero;stroke:none"
             id="path478" /></g><g
           id="g480"
           transform="translate(474.6549,386.5423)"><path
             d="m 0,0 -10.503,-19.549 -6.126,4.669 8.315,-12.544 z"
             style="fill:#f26c65;fill-opacity:1;fill-rule:nonzero;stroke:none"
             id="path482" /></g><g
           id="g484"
           transform="translate(451.474,415.3913)"><path
             d="M 0,0 -14.21,-28.223 -5.854,2.054 Z"
             style="fill:#f26c65;fill-opacity:1;fill-rule:nonzero;stroke:none"
             id="path486" /></g><g
           id="g488"
           transform="translate(403.8158,153.2014)"><path
             d="M 0,0 2.158,44.867 21.275,41.365 15.957,-4.985 -0.469,-1.669 Z"
             style="fill:#fab17e;fill-opacity:1;fill-rule:nonzero;stroke:none"
             id="path490" /></g><g
           id="g492"
           transform="translate(422.1589,157.1043)"><path
             d="m 0,0 c 0,0 -13.655,-6.001 -20.08,3.703 l -33.168,-18.322 52.689,-0.133 z"
             style="fill:#152d4f;fill-opacity:1;fill-rule:nonzero;stroke:none"
             id="path494" /></g><g
           id="g496"
           transform="translate(368.9496,137.2254)"><path
             d="M 0,0 52.689,-0.133 52.651,5.127 -0.039,5.26 Z"
             style="fill:#152d4f;fill-opacity:1;fill-rule:nonzero;stroke:none"
             id="path498" /></g><g
           id="g500"
           transform="translate(441.0952,328.447)"><path
             d="m 0,0 -35.697,-56.213 c -3.765,-6.971 -3.504,-9.363 -4.002,-17.373 l -3.718,-87.041 31.459,-2.245 7.905,86.553 38.939,66.397 3.573,13.129 z"
             style="fill:#2c3282;fill-opacity:1;fill-rule:nonzero;stroke:none"
             id="path502" /></g><g
           id="g504"
           transform="translate(490.0334,150.1617)"><path
             d="M 0,0 -11.236,46.39 7.881,42.888 16.393,0 0.774,-1.946 Z"
             style="fill:#fab17e;fill-opacity:1;fill-rule:nonzero;stroke:none"
             id="path506" /></g><g
           id="g508"
           transform="translate(507.1675,157.1043)"><path
             d="M 0,0 C 0,0 -13.655,-6.001 -20.08,3.703 L -53.248,-14.619 4.248,-14.752 Z"
             style="fill:#152d4f;fill-opacity:1;fill-rule:nonzero;stroke:none"
             id="path510" /></g><g
           id="g512"
           transform="translate(453.9582,137.2254)"><path
             d="M 0,0 57.496,-0.133 57.457,5.127 -0.039,5.26 Z"
             style="fill:#152d4f;fill-opacity:1;fill-rule:nonzero;stroke:none"
             id="path514" /></g><g
           id="g516"
           transform="translate(503.3163,333.955)"><path
             d="m 0,0 c 0,0 8.42,-18.946 -2.232,-44.801 -0.408,-0.99 -0.819,-1.88 -1.23,-2.724 l -4.328,-39.261 14.858,-82.595 -32.741,-0.411 -17.668,74.985 c -0.677,2.794 -1.103,5.65 -1.271,8.529 l 0.456,71.946 7.18,10.752 z"
             style="fill:#2c3984;fill-opacity:1;fill-rule:nonzero;stroke:none"
             id="path518" /></g><g
           id="g520"
           transform="translate(396.4423,480.2701)"><path
             d="M 0,0 C 0,0 -7.081,-15.611 5.343,-15.136 Z"
             style="fill:#2c3282;fill-opacity:1;fill-rule:nonzero;stroke:none"
             id="path522" /></g><g
           id="g524"
           transform="translate(410.2949,461.2987)"><path
             d="m 0,0 c 1.419,-3.588 -0.089,-7.689 -3.37,-9.158 -3.28,-1.47 -7.09,0.248 -8.509,3.836 -1.42,3.588 0.089,7.688 3.369,9.158 C -5.229,5.306 -1.419,3.588 0,0"
             style="fill:#ed975e;fill-opacity:1;fill-rule:nonzero;stroke:none"
             id="path526" /></g><g
           id="g528"
           transform="translate(418.644,446.7727)"><path
             d="m 0,0 5.152,-15.92 c 1.799,-5.594 5.913,-7.436 10.935,-5.557 4.287,1.604 8.298,5.521 6.514,10.381 l -9.21,24.648 z"
             style="fill:#fab17e;fill-opacity:1;fill-rule:nonzero;stroke:none"
             id="path530" /></g><g
           id="g532"
           transform="translate(422.0363,436.1748)"><path
             d="M 0,0 C 0,0 12.615,3.346 11.696,19.325 11.406,24.358 -3.95,12.219 -3.95,12.219 Z"
             style="fill:#ed975e;fill-opacity:1;fill-rule:nonzero;stroke:none"
             id="path534" /></g><g
           id="g536"
           transform="translate(424.9951,443.9901)"><path
             d="M 0,0 -0.334,-0.219 C -4.612,-1.536 -18.409,1.48 -21.141,9.055 l -5.634,15.879 c -3.424,9.495 0.66,20.076 9.229,23.915 8.772,3.93 20.497,0.026 24.292,-9.569 L 10.995,26.849 C 14.242,17.382 14.471,17.019 8.954,8.844 6.584,5.333 3.542,2.322 0,0"
             style="fill:#fab17e;fill-opacity:1;fill-rule:nonzero;stroke:none"
             id="path538" /></g><g
           id="g540"
           transform="translate(435.9707,494.3976)"><path
             d="M 0,0 C -3.561,7.063 -9.605,4.13 -9.605,4.13 L -9.606,4.119 c -4.025,3.767 -11.957,5.437 -19.382,2.288 -10.06,-4.266 -19.606,-16.378 -30.661,-17.124 -3.569,-0.241 3.562,-6.617 10.735,-8.217 5.502,-1.228 11.176,2.198 11.176,2.198 0,0 11.796,3.544 20.782,7.82 0.93,-4.345 3.526,-10.836 10.628,-8.531 l 5.816,-12.049 c 0,0 5.127,20.341 0.512,29.496"
             style="fill:#2c3282;fill-opacity:1;fill-rule:nonzero;stroke:none"
             id="path542" /></g><g
           id="g544"
           transform="translate(443.7874,474.0183)"><path
             d="m 0,0 c 1.405,-3.553 -0.088,-7.614 -3.337,-9.069 -3.248,-1.455 -7.021,0.245 -8.426,3.799 -1.406,3.553 0.088,7.613 3.336,9.069 C -5.178,5.254 -1.406,3.553 0,0"
             style="fill:#fab17e;fill-opacity:1;fill-rule:nonzero;stroke:none"
             id="path546" /></g><g
           id="g548"
           transform="translate(445.1852,441.0542)"><path
             d="m 0,0 -15.487,-3.82 -10.671,-4.534 c 0,0 3.023,-11.104 12.636,-9.265 C 4.2,-14.229 0,0 0,0"
             style="fill:#fab17e;fill-opacity:1;fill-rule:nonzero;stroke:none"
             id="path550" /></g><g
           id="g552"
           transform="translate(374.7129,362.6726)"><path
             d="m 0,0 -27.552,2.602 -12.494,-8.331 c -0.721,-0.48 -0.303,-1.601 0.556,-1.492 2.771,0.35 7.325,1.791 12.419,6.884 0,0 1.282,-11.696 8.812,-11.215 7.531,0.48 23.237,4.489 23.237,4.489 z"
             style="fill:#fab17e;fill-opacity:1;fill-rule:nonzero;stroke:none"
             id="path554" /></g><g
           id="g556"
           transform="translate(375.0199,321.1129)"><path
             d="m 0,0 -12.157,-5.955 -7.956,-11.243 c -0.425,-0.6 0.122,-1.404 0.837,-1.228 2.895,0.716 8.318,2.399 12.246,5.654 5.608,4.646 8.158,6.249 6.723,2.563 -1.435,-3.685 0.307,-7.21 0.307,-7.21 0,0 4.723,4.05 5.576,12.439 z"
             style="fill:#f9a66d;fill-opacity:1;fill-rule:nonzero;stroke:none"
             id="path558" /></g></g></g><g
       id="g560"><g
         id="g562"><g
           id="g568"><g
             id="g570"><path
               d="m 266.285,296.589 c -2.545,0 -4.607,-2.064 -4.607,-4.608 v 0 c 0,-2.546 2.062,-4.608 4.607,-4.608 v 0 H 631.85 c 2.546,0 4.608,2.062 4.608,4.608 v 0 c 0,2.544 -2.063,4.608 -4.608,4.608 v 0 z"
               style="fill:url(#linearGradient578);stroke:none"
               id="path580" /></g></g></g></g><g
       id="g582"><g
         id="g584"
         clip-path="url(#clipPath588)"><g
           id="g590"
           transform="translate(717.8458,420.1901)"><path
             d="m 0,0 c 3.598,-12.684 -5.189,-25.754 -14.868,-28.5 -9.68,-2.746 -16.587,5.873 -20.185,18.557 -3.598,12.683 1.332,25.191 11.012,27.937 C -14.361,20.74 -3.598,12.684 0,0"
             style="fill:#fab17e;fill-opacity:1;fill-rule:nonzero;stroke:none"
             id="path592" /></g><g
           id="g594"
           transform="translate(667.8002,198.185)"><path
             d="m 0,0 c 0,0 22.613,-35.122 25.667,-36.649 3.054,-1.527 10.689,-1.909 7.826,-7.635 -2.863,-5.726 -4.008,-28.25 -6.681,-29.395 -2.672,-1.146 -25.577,-3.818 -22.142,0 3.436,3.817 5.55,1.908 7.283,8.78 1.734,6.872 4.17,19.852 0.925,22.524 -3.245,2.672 -23.096,26.723 -23.096,26.723 z"
             style="fill:#fab17e;fill-opacity:1;fill-rule:nonzero;stroke:none"
             id="path596" /></g><g
           id="g598"
           transform="translate(553.9879,183.1019)"><path
             d="m 0,0 c 0,0 -27.488,-45.304 -32.578,-49.376 -5.091,-4.073 -21.889,-10.181 -8.145,-11.199 13.744,-1.018 20.362,4.581 29.015,7.126 8.654,2.545 19.344,4.073 15.271,10.69 -4.072,6.618 -2.38,21.064 6.398,30.227 C 18.74,-3.37 0,0 0,0"
             style="fill:#fab17e;fill-opacity:1;fill-rule:nonzero;stroke:none"
             id="path600" /></g><g
           id="g602"
           transform="translate(668.8739,239.5437)"><path
             d="m 0,0 c -7.402,-0.865 -15.266,-1.855 -22.284,-2.701 -4.845,4.72 -8.191,7.267 -8.296,8.459 C -29.359,7.739 -16.276,4.038 0,0"
             style="fill:#12294b;fill-opacity:1;fill-rule:nonzero;stroke:none"
             id="path604" /></g><g
           id="g606"
           transform="translate(694.2629,241.8317)"><path
             d="m 0,0 c -4.797,0 -14.603,-1.019 -25.389,-2.288 -16.276,4.038 -29.36,7.739 -30.58,5.758 0.105,-1.192 3.451,-3.739 8.296,-8.459 -5.557,-0.673 -10.584,-1.25 -14.43,-1.625 -3.451,-0.336 -6.297,-1.009 -8.729,-2.038 -4.489,-1.913 -7.594,-5.038 -10.594,-9.489 -2.807,-4.143 -5.508,-9.44 -9.181,-15.958 -7.892,-14.045 -27.744,-29.532 -42.76,-47.433 -1.509,-0.153 -3.586,0.068 -5.807,0.5 -5.258,1.029 -11.344,3.269 -12.776,4.701 2.5,6.557 29.994,57.691 48.029,87.954 0.365,0.615 0.711,1.211 1.067,1.788 0.269,0.452 1.577,2.605 1.942,3.191 2.172,3.586 4.162,6.749 5.883,9.364 0.558,0.461 1.135,0.904 1.731,1.336 l 0.009,0.01 c 9.941,7.344 24.563,11.872 39.3,14.66 C -27.177,47.039 0,46.327 0,46.327 c 0,0 0.163,-0.711 0.433,-1.961 C 2.326,35.55 9.363,0 0,0"
             style="fill:#2c3984;fill-opacity:1;fill-rule:nonzero;stroke:none"
             id="path608" /></g></g></g><g
       id="g610"><g
         id="g612"><g
           id="g618"><g
             id="g620"><path
               d="m 724.458,229.119 25.577,-106.714 h 3.567 l -21.298,106.714 z"
               style="fill:url(#linearGradient628);stroke:none"
               id="path630" /></g></g></g></g><g
       id="g632"><g
         id="g634"><g
           id="g640"><g
             id="g642"><path
               d="m 671.823,232.892 -25.07,-110.487 h 3.567 l 29.35,110.487 z"
               style="fill:url(#linearGradient650);stroke:none"
               id="path652" /></g></g></g></g><g
       id="g654"><g
         id="g656"
         clip-path="url(#clipPath660)"><g
           id="g662"
           transform="translate(623.4312,233.1797)"><path
             d="m 0,0 c -8.681,-3.692 -12.171,-11.93 -19.775,-25.447 -7.892,-14.045 -27.744,-29.532 -42.76,-47.432 -1.51,-0.154 -3.586,0.067 -5.807,0.499 l -0.019,0.01 c 0,0 6.229,14.545 21.322,26.725 15.103,12.171 28.918,33.321 28.918,33.321 -11.113,14.747 -10.321,40.142 -10.321,40.142 0.365,0.615 5.783,7.934 5.975,8.136 l 0.01,0.01 z"
             style="fill:#12294b;fill-opacity:1;fill-rule:nonzero;stroke:none"
             id="path664" /></g><g
           id="g666"
           transform="translate(734.6682,237.573)"><path
             d="m 0,0 c -9.315,-10.911 -41.203,-4.095 -65.794,1.971 -16.276,4.037 -29.36,7.739 -30.581,5.758 0.106,-1.192 3.452,-3.739 8.297,-8.46 6.575,-6.393 15.929,-16.785 23.774,-33.185 1.432,-2.99 6.047,-18.295 7.835,-20.746 -1.731,-11.065 -4.134,-12.805 -10.402,-17.41 -24.639,17.477 -36.685,32.974 -50.932,52.413 -1.432,1.961 -2.778,3.883 -4.028,5.777 -12.776,19.323 -16.083,35.233 -11.863,45.452 2.596,6.288 8.046,10.431 15.891,11.892 6.326,1.183 14.612,2.077 23.409,2.769 24.639,1.923 53.191,2.182 53.191,2.182 l 1.23,0.212 38.339,6.623 C -1.634,55.248 14.785,17.314 0,0"
             style="fill:#2c3984;fill-opacity:1;fill-rule:nonzero;stroke:none"
             id="path668" /></g><g
           id="g670"
           transform="translate(734.6722,382.3819)"><path
             d="m 0,0 c -10.42,1.463 -21.031,-0.518 -30.956,-7.703 -8.672,-8.84 -18.485,-23.419 -17.884,-47.466 0.764,-30.541 -4.726,-32.502 1,-40.901 23.884,-9.863 64.732,-52.238 55.113,-6.808 C 0.307,-69.984 22.549,-45.465 4.606,-8.976 3.146,-6.007 1.321,-3.127 0,0"
             style="fill:#f37169;fill-opacity:1;fill-rule:nonzero;stroke:none"
             id="path672" /></g><g
           id="g674"
           transform="translate(734.6722,382.3819)"><path
             d="m 0,0 c -6.416,15.189 -7.992,32.253 -7.992,32.253 l -16.797,-4.962 c 0,0 9.544,-21.379 0.381,-29.014 -1.947,-1.623 -4.206,-3.593 -6.548,-5.98 C -21.031,-0.518 -10.42,1.463 0,0"
             style="fill:#fab17e;fill-opacity:1;fill-rule:nonzero;stroke:none"
             id="path676" /></g><g
           id="g678"
           transform="translate(727.1866,410.5907)"><path
             d="m 0,0 c -0.995,0.885 -2.24,1.99 -3.548,3.146 l -13.701,-4.048 c -0.01,-0.025 -0.019,-0.05 -0.029,-0.074 0.331,-0.758 3.82,-8.9 4.28,-16.734 4.083,2.477 8.554,6.517 13.665,13.572 C 0.39,-2.573 0.17,-1.177 0,0"
             style="fill:#ed975e;fill-opacity:1;fill-rule:nonzero;stroke:none"
             id="path680" /></g><g
           id="g682"
           transform="translate(722.8627,377.6049)"><path
             d="m 0,0 c -17.301,-6.051 -15.382,-24.276 -31.304,-51.156 -8.24,-13.91 -15.893,-13.703 -15.893,-13.703 0,0 -19.326,-0.155 -42.701,2.703 -14.637,1.79 -15.566,-2.568 -5.386,-6.207 20.531,-7.341 41.838,-15.242 59.017,-13.334 17.179,1.909 46.562,45.742 48.076,57.151 C 13.905,-8.766 8.713,3.047 0,0"
             style="fill:#f0995a;fill-opacity:1;fill-rule:nonzero;stroke:none"
             id="path684" /></g></g></g><g
       id="g686"><g
         id="g688"><g
           id="g694"><g
             id="g696"><path
               d="m 750.813,346.255 c -6.106,-20.568 -8.743,-40.782 -9.728,-48.729 v 0 c -1.056,-8.524 -0.201,-14.054 1.094,-22.423 v 0 c 0.461,-2.984 0.983,-6.364 1.506,-10.431 v 0 c 1.545,-12.006 0.308,-19.766 -3.89,-24.421 v 0 c -4.7,-5.212 -13.901,-7.467 -28.941,-7.095 v 0 c -13.356,0.33 -22.548,2.198 -29.936,3.7 v 0 c -9.715,1.974 -16.735,3.401 -25.059,-0.577 v 0 c -1.993,-0.952 -2.836,-3.338 -1.884,-5.331 v 0 c 0.952,-1.992 3.339,-2.835 5.331,-1.884 v 0 c 5.908,2.824 10.92,1.806 20.019,-0.044 v 0 c 7.695,-1.564 17.271,-3.511 31.332,-3.857 v 0 c 1.129,-0.028 2.227,-0.042 3.299,-0.042 v 0 c 15.846,0 25.721,3.06 31.777,9.775 v 0 c 5.878,6.517 7.746,16.303 5.883,30.796 v 0 c -0.535,4.168 -1.066,7.602 -1.535,10.632 v 0 c -2.446,15.811 -3.026,29.182 8.398,67.654 v 0 c 0.628,2.117 -0.578,4.343 -2.695,4.971 v 0 c -0.38,0.113 -0.763,0.166 -1.14,0.166 v 0 c -1.723,0 -3.314,-1.123 -3.831,-2.86"
               style="fill:url(#linearGradient704);stroke:none"
               id="path706" /></g></g></g></g><g
       id="g708"><g
         id="g710"
         clip-path="url(#clipPath714)"><g
           id="g716"
           transform="translate(555.8566,144.9184)"><path
             d="m 0,0 c -18.239,-8.92 -28.056,-14.032 -33.903,-13.545 -1.38,0.115 -2.524,0.256 -3.484,0.406 -6.504,-3.845 -16.887,-8.387 -5.205,-9.253 13.744,-1.018 20.362,4.582 29.015,7.127 8.654,2.545 19.344,4.072 15.272,10.69 C 0.914,-3.307 0.348,-1.75 0,0"
             style="fill:#233862;fill-opacity:1;fill-rule:nonzero;stroke:none"
             id="path718" /></g><g
           id="g720"
           transform="translate(695.4557,160.7909)"><path
             d="m 0,0 c -0.446,-14.441 -2.431,-28.75 -11.263,-31.453 -2.341,-0.717 -4.475,-0.819 -6.363,-0.568 -1.389,-1.717 -3.084,-1.737 -5.359,-4.264 -3.436,-3.818 19.47,-1.145 22.142,0 2.672,1.145 3.818,23.669 6.681,29.395 C 8.19,-2.186 3.458,-1.088 0,0"
             style="fill:#233862;fill-opacity:1;fill-rule:nonzero;stroke:none"
             id="path722" /></g><g
           id="g724"
           transform="translate(628.9258,297.9031)"><path
             d="m 0,0 h -65.32 c -1.753,0 -3.348,1.017 -4.087,2.608 l -26.397,56.81 c -1.048,2.257 -0.069,4.937 2.188,5.986 2.258,1.049 2.054,0.069 3.103,-2.188 L -64.367,7.091 H 0 C 2.489,7.091 4.507,6.996 4.507,4.507 4.507,2.018 2.489,0 0,0"
             style="fill:#91b0dd;fill-opacity:1;fill-rule:nonzero;stroke:none"
             id="path726" /></g><g
           id="g728"
           transform="translate(637.3237,314.9446)"><path
             d="m 0,0 c -11.708,0.17 -23.319,7.148 -29.088,6.13 -5.769,-1.018 -24.604,-14.083 -22.228,-14.592 2.375,-0.509 17.307,7.23 17.816,7.348 0.509,0.118 3.733,-5.36 11.708,-7.372 7.975,-2.012 0.057,5.976 24.777,-1.49 C 19.059,-14.83 0,0 0,0"
             style="fill:#fac1b3;fill-opacity:1;fill-rule:nonzero;stroke:none"
             id="path730" /></g><g
           id="g732"
           transform="translate(732.9493,396.2425)"><path
             d="m 0,0 1.723,-13.861 c 0,0 -15.15,-0.901 -22.69,-5.143 -7.539,-4.242 -18.665,-16.498 -18.665,-16.498 l 9.09,15.65 1.309,10.011 z"
             style="fill:#ffffff;fill-opacity:1;fill-rule:nonzero;stroke:none"
             id="path734" /></g><g
           id="g736"
           transform="translate(726.5017,379.2745)"><path
             d="m 0,0 c -11.253,2.109 -16.459,-7.975 -23.755,-24.434 -7.296,-16.459 -19.751,-36.449 -22.228,-39.026 -2.477,-2.577 -41.741,0 -41.741,0 0,0 -1.188,-11.368 0,-12.726 1.188,-1.357 7.975,-1.188 7.975,-1.188 0,0 2.715,-2.167 5.26,-3.883 2.545,-1.716 24.094,-4.94 34.105,-4.431 10.011,0.509 19.174,1.358 20.531,2.885 1.358,1.527 28.676,43.607 30.373,58.709 C 12.217,-8.993 5.743,-1.076 0,0"
             style="fill:#ffffff;fill-opacity:1;fill-rule:nonzero;stroke:none"
             id="path738" /></g><g
           id="g740"
           transform="translate(693.3176,448.5037)"><path
             d="m 0,0 c -21.283,-1.018 -17.945,-33.035 -17.945,-33.035 0,0 5.528,-1.707 17.108,0.202 -0.89,3.436 -0.509,12.217 -0.509,12.217 0,0 1.346,-7.127 3.055,-11.453 2.448,-1.123 5.217,-0.128 9.926,1.01 2.418,-10.173 9.25,-14.472 13.928,-15.942 5.17,-1.625 10.641,-3.563 16.749,-0.509 6.109,3.054 2.75,34.275 -0.494,40.553 C 36.95,2.467 28.857,10.902 14.859,6.448 7.839,4.214 0,0 0,0"
             style="fill:#2c3282;fill-opacity:1;fill-rule:nonzero;stroke:none"
             id="path742" /></g><g
           id="g744"
           transform="translate(730.3283,410.4786)"><path
             d="m 0,0 8.701,-12.709 c 0,0 -9.643,-24.094 18.404,-35.011 21.965,-8.549 19.378,-23.612 9.452,-38.761 -9.926,-15.15 5.939,-28.378 5.939,-28.378 0,0 2.419,16.781 23.761,19.949 29.1,4.318 37.339,43.388 15.604,62.923 -17.986,16.165 -23.458,2.778 -35.632,17.285 -12.175,14.507 -35.158,4.708 -35.158,4.708 L 2.647,2.291 Z"
             style="fill:#2c3282;fill-opacity:1;fill-rule:nonzero;stroke:none"
             id="path746" /></g><g
           id="g748"
           transform="translate(822.2002,339.2133)"><path
             d="M 0,0 C -0.113,0 -0.227,0.027 -0.334,0.085 -0.67,0.27 -0.794,0.693 -0.61,1.03 c 7.334,13.403 1.35,29.643 -1.661,34.043 -0.317,0.464 -0.619,0.935 -0.938,1.433 -2.959,4.619 -6.641,10.366 -26.268,13.9 -4.702,0.846 -8.515,3.646 -12.553,6.609 -8.372,6.148 -17.863,13.113 -38.48,3.624 -0.349,-0.161 -0.762,-0.008 -0.923,0.341 -0.16,0.35 -0.008,0.763 0.341,0.923 21.363,9.832 31.203,2.608 39.886,-3.766 3.904,-2.866 7.591,-5.573 11.975,-6.362 20.225,-3.641 24.089,-9.672 27.193,-14.518 0.314,-0.49 0.61,-0.952 0.916,-1.399 C 0.692,33.207 2.932,27.717 3.849,21.426 4.645,15.97 4.728,7.887 0.611,0.362 0.484,0.131 0.246,0 0,0"
             style="fill:#303d60;fill-opacity:1;fill-rule:nonzero;stroke:none"
             id="path750" /></g><g
           id="g752"
           transform="translate(129.6272,379.7533)"><path
             d="m 0,0 c -24.702,-14.125 -59.06,-72.84 -51.807,-82.422 7.254,-9.582 46.193,15.614 46.193,15.614 z"
             style="fill:#96cfe0;fill-opacity:1;fill-rule:nonzero;stroke:none"
             id="path754" /></g><g
           id="g756"
           transform="translate(133.1597,427.3692)"><path
             d="m 0,0 c 5.172,-4.327 2.658,-6.108 1.513,-9.672 -1.146,-3.563 2.758,-3.818 4.878,-7.126 2.121,-3.309 -1.951,-3.935 1.103,-6.803 3.054,-2.869 7.338,-2.614 7.338,-2.614 L 27.689,-1.563 42.617,20.475 C 33.185,20.731 36.685,27.742 25.838,24.943 20.135,23.471 24.345,21.125 16.937,21.889 9.528,22.652 5.882,23.416 4.949,18.58"
             style="fill:#2c3282;fill-opacity:1;fill-rule:nonzero;stroke:none"
             id="path758" /></g><g
           id="g760"
           transform="translate(367.9519,151.9437)"><path
             d="m 0,0 c 0,0 13.743,-0.382 24.432,3.818 10.69,4.199 17.943,10.689 16.034,3.054 -1.908,-7.636 -10.689,-20.734 -18.324,-22.011 -7.635,-1.276 -10.308,-9.675 -14.507,-9.675 -4.199,0 -10.307,9.675 -20.997,14.511 C -23.104,-5.896 0,0 0,0"
             style="fill:#233862;fill-opacity:1;fill-rule:nonzero;stroke:none"
             id="path762" /></g><g
           id="g764"
           transform="translate(259.646,153.2321)"><path
             d="m 0,0 c 0,0 5.781,-7.971 15.839,-13.515 10.389,-5.726 22.375,-8.484 14.943,-11.073 -7.432,-2.59 -18.298,-4.603 -28.897,-1.525 -7.434,2.159 -16.149,2.611 -18.452,6.123 -2.302,3.512 2.71,12.333 0.625,25.516 C -17.613,16.087 0,0 0,0"
             style="fill:#233862;fill-opacity:1;fill-rule:nonzero;stroke:none"
             id="path766" /></g><g
           id="g768"
           transform="translate(195.2902,281.3495)"><path
             d="m 0,0 c 0,0 79.613,-29.81 86.027,-38.143 6.414,-8.334 90.1,-84.246 90.1,-89.845 0,-5.6 -14.253,-15.78 -14.253,-15.78 0,0 -71.774,44.031 -89.591,66.429 -17.816,22.397 -61.298,33.195 -84.415,35.27 C -35.249,-39.995 0,0 0,0"
             style="fill:#12294b;fill-opacity:1;fill-rule:nonzero;stroke:none"
             id="path770" /></g><g
           id="g772"
           transform="translate(198.3443,281.3495)"><path
             d="m 0,0 c 0,0 54.467,2.036 66.175,0 11.708,-2.036 37.388,-2.012 20.591,-49.419 -13.166,-37.157 -17.511,-84.2 -17.511,-84.2 l -26.178,-6.431 c 0,0 1.039,84.591 13.53,107.115 -9.097,-1.499 -25.794,-4.425 -48.934,-11.042 -42.929,-12.276 -66.466,-6.129 -66.466,-6.129 l -6.392,22.398 z"
             style="fill:#2c3282;fill-opacity:1;fill-rule:nonzero;stroke:none"
             id="path774" /></g><g
           id="g776"
           transform="translate(152.8599,421.9768)"><path
             d="m 0,0 -13.309,-39.321 16.814,-11.071 9.528,33.976 z"
             style="fill:#fab17e;fill-opacity:1;fill-rule:nonzero;stroke:none"
             id="path778" /></g><g
           id="g780"
           transform="translate(157.8682,376.9462)"><path
             d="M 0,0 8.024,28.615 -5.008,45.031 -9.876,30.648 C -8.196,17.658 -4.138,6.912 0,0"
             style="fill:#ed975e;fill-opacity:1;fill-rule:nonzero;stroke:none"
             id="path782" /></g><g
           id="g784"
           transform="translate(186.8073,415.3212)"><path
             d="m 0,0 c 0.432,-11.959 -5.443,-22.31 -14.78,-23.231 -9.337,-0.921 -17.858,7.987 -19.032,19.897 -1.175,11.909 5.442,22.31 14.779,23.231 C -9.695,20.817 -0.682,18.872 0,0"
             style="fill:#fab17e;fill-opacity:1;fill-rule:nonzero;stroke:none"
             id="path786" /></g><g
           id="g788"
           transform="translate(133.1597,383.801)"><path
             d="m 0,0 c -40.851,-27.589 -15.443,-72.171 -6.473,-104.749 7.641,-27.749 7.392,-44.519 8.537,-44.519 1.145,0 29.24,4.2 45.274,18.706 16.034,14.507 26.874,28.559 26.874,28.559 0,0 -20.542,3.658 -27.256,30.232 -3.408,13.492 -1.858,20.816 -9.628,42.195 C 29.558,-8.198 0,0 0,0"
             style="fill:#a4ddf0;fill-opacity:1;fill-rule:nonzero;stroke:none"
             id="path790" /></g><g
           id="g792"
           transform="translate(133.1597,383.801)"><path
             d="m 0,0 4.375,10.706 c 0,0 13.872,-9.163 19.407,-13.49 5.536,-4.327 8.951,-5.345 8.951,-5.345 0,0 2.001,-15.346 0.701,-13.953 C 17.062,-4.536 0,0 0,0"
             style="fill:#a4ddf0;fill-opacity:1;fill-rule:nonzero;stroke:none"
             id="path794" /></g></g></g><g
       id="g796"><g
         id="g798"><g
           id="g804"><g
             id="g806"><path
               d="M 136.353,228.158 115.055,121.443 h 3.567 L 144.2,228.158 Z"
               style="fill:url(#linearGradient814);stroke:none"
               id="path816" /></g></g></g></g><g
       id="g818"><g
         id="g820"><g
           id="g826"><g
             id="g828"><path
               d="m 188.986,231.931 29.35,-110.488 h 3.568 l -25.07,110.488 z"
               style="fill:url(#linearGradient836);stroke:none"
               id="path838" /></g></g></g></g><g
       id="g840"><g
         id="g842"><g
           id="g848"><g
             id="g850"><path
               d="m 107.027,332.923 c -2.005,-0.925 -2.881,-3.299 -1.957,-5.304 v 0 c 8.333,-18.074 11.893,-33.808 11.938,-63.404 v 0 c 0.021,-14.079 1.503,-24.885 8.664,-31.861 v 0 c 5.777,-5.627 14.829,-8.194 29.117,-8.194 v 0 c 1.041,0 2.112,0.014 3.21,0.042 v 0 c 14.061,0.346 23.637,2.293 31.331,3.857 v 0 c 9.1,1.849 14.112,2.867 20.021,0.044 v 0 c 1.992,-0.951 4.379,-0.108 5.331,1.884 v 0 c 0.952,1.992 0.108,4.378 -1.883,5.331 v 0 c -8.325,3.978 -15.345,2.551 -25.061,0.577 v 0 c -7.387,-1.503 -16.58,-3.371 -29.936,-3.7 v 0 c -13.833,-0.345 -22.021,1.474 -26.551,5.886 v 0 c -4.416,4.302 -6.226,11.877 -6.247,26.146 v 0 c -0.048,30.999 -3.865,47.635 -12.672,66.739 v 0 c -0.675,1.464 -2.122,2.325 -3.634,2.325 v 0 c -0.56,0 -1.129,-0.118 -1.671,-0.368"
               style="fill:url(#linearGradient858);stroke:none"
               id="path860" /></g></g></g></g><g
       id="g862"><g
         id="g864"
         clip-path="url(#clipPath868)"><g
           id="g870"
           transform="translate(345.8696,297.4627)"><path
             d="m 0,0 h -65.32 c -2.489,0 -4.507,2.018 -4.507,4.507 0,2.489 2.018,4.507 4.507,4.507 H -2.876 L 22.31,63.216 c 1.049,2.257 3.729,3.236 5.986,2.188 2.257,-1.049 3.236,-3.729 2.188,-5.986 L 4.087,2.608 C 3.348,1.017 1.754,0 0,0"
             style="fill:#91b0dd;fill-opacity:1;fill-rule:nonzero;stroke:none"
             id="path872" /></g><g
           id="g874"
           transform="translate(134.6723,343.6327)"><path
             d="m 0,0 c 0,0 10.181,-31.051 22.779,-43.905 12.599,-12.853 37.953,-17.171 45.892,-16.666 -6.329,2.544 -18.381,9.785 -23.227,28.969 -3.409,13.491 -1.859,20.816 -9.629,42.194 C 30.048,26.462 12.276,35.067 3.5,38.449 14.455,30.58 28.151,17.622 32.36,7.763 37.032,-3.182 0,0 0,0"
             style="fill:#96cfe0;fill-opacity:1;fill-rule:nonzero;stroke:none"
             id="path876" /></g><g
           id="g878"
           transform="translate(275.1895,335.6084)"><path
             d="M 0,0 C 0,0 17.561,8.017 19.47,7.253 21.379,6.49 40.848,-5.266 40.848,-7.214 c 0,-1.948 -17.179,7.259 -17.179,7.259 0,0 1.909,-5.089 0.764,-7.53 C 23.287,-9.926 10.082,-9.926 -1.831,-9.162 -13.743,-8.399 0,0 0,0"
             style="fill:#fab17e;fill-opacity:1;fill-rule:nonzero;stroke:none"
             id="path880" /></g><g
           id="g882"
           transform="translate(135.2335,367.6225)"><path
             d="m 0,0 c -16.188,-33.178 39.342,-66.812 72.285,-69.802 32.944,-2.99 72.084,27.017 72.084,27.017 l -4.413,10.771 c 0,0 -66,-10.613 -67.671,-9.406 C 70.614,-40.214 5.929,12.152 0,0"
             style="fill:#a4ddf0;fill-opacity:1;fill-rule:nonzero;stroke:none"
             id="path884" /></g><g
           id="g886"
           transform="translate(156.2809,420.8575)"><path
             d="m 0,0 c 1.5,-3.946 0.4,-8.025 -2.457,-9.112 -2.858,-1.087 -6.391,1.231 -7.891,5.177 -1.501,3.946 -0.4,8.025 2.457,9.112 C -5.033,6.263 -1.5,3.946 0,0"
             style="fill:#fab17e;fill-opacity:1;fill-rule:nonzero;stroke:none"
             id="path888" /></g><g
           id="g890"
           transform="translate(186.8296,446.1187)"><path
             d="m 0,0 c 4.473,1.866 9.51,3.866 7.951,-3.733 -0.678,-3.309 0,-2.375 1.188,-5.43 1.188,-3.054 -2.994,-5.452 -4.351,-7.149 -1.358,-1.697 1.976,-3.54 -0.739,-5.577 -2.715,-2.036 -6.294,0.755 -8.823,0 -7.551,-2.253 -6.618,3.686 -10.86,4.921 -4.242,1.235 -6.321,1.045 -7.126,-1.67 -0.806,-2.715 2.969,-11.65 -0.255,-10.801 -3.224,0.848 -3.95,-6.363 -4.817,-10.436 -0.867,-4.072 -3.079,2.811 -2.936,7.469 0.219,7.145 -1.554,10.146 -4.186,12.145 -2.632,2 -3.752,20.176 8.974,20.855 C -13.255,1.273 -13.174,2.5 -7.744,3.648 -2.314,4.796 -2.038,-0.85 0,0"
             style="fill:#2c3282;fill-opacity:1;fill-rule:nonzero;stroke:none"
             id="path892" /></g><g
           id="g894"
           transform="translate(878.0962,301.1415)"><path
             d="m 0,0 -10.835,41.084 -2.369,27.114 -2.206,0.156 -1.214,-28.482 18.906,-56.066 z"
             style="fill:#12294b;fill-opacity:1;fill-rule:nonzero;stroke:none"
             id="path896" /></g><g
           id="g898"
           transform="translate(470.8902,330.8154)"><path
             d="m 0,0 -9.57,-14.682 -1.286,-18.23 -4.482,14.681 1.776,17.216 z"
             style="fill:#12294b;fill-opacity:1;fill-rule:nonzero;stroke:none"
             id="path900" /></g></g></g></g></svg>
